<svg xmlns="http://www.w3.org/2000/svg" viewBox="0 0 978.8 980.15"><defs><style>.cls-1{fill:#6c757d;fill-rule:evenodd;}</style></defs><title>Asset 12</title><g id="Layer_2" data-name="Layer 2"><g id="Layer_1-2" data-name="Layer 1"><path class="cls-1" d="M488.72,0C354.45,0,236.3,49.69,145,142.33,51,237.66,0,361.18,0,490.08,0,620.32,49.67,741.15,143.66,835.15s216.16,145,345.06,145,253.77-51,350.44-146.34c91.3-90,139.64-209.46,139.64-343.73,0-132.92-48.34-253.76-141-346.41C743.84,49.69,623,0,488.72,0Zm1.35,88.62c110.09,0,208.11,41.62,284.65,118.16C849.9,282,890.18,381.32,890.18,490.08c0,110.1-38.94,206.77-114.12,280.63-79.22,77.87-181.26,119.49-286,119.49-106.07,0-205.43-41.62-282-118.15s-119.5-177.24-119.5-282c0-106.07,43-206.76,119.5-284.65C283.29,128.91,380,88.62,490.07,88.62Z"/><path class="cls-1" d="M483.75,408.65c-27.69-50.48-74.91-70.56-129.74-70.56-79.8,0-143.32,56.45-143.32,152,0,97.17,59.72,152,146,152,55.37,0,102.6-30.4,128.66-76.54L424.58,534.6c-13.57,32.57-34.2,42.34-60.26,42.34-45.05,0-65.68-37.46-65.68-86.86s17.37-86.86,65.68-86.86c13,0,39.09,7.06,54.29,39.63Z"/><path class="cls-1" d="M766.47,408.65c-27.69-50.48-74.91-70.56-129.74-70.56-79.8,0-143.32,56.45-143.32,152,0,97.17,59.72,152,146,152,55.37,0,102.6-30.4,128.66-76.54L707.3,534.6c-13.58,32.57-34.21,42.34-60.26,42.34-45,0-65.69-37.46-65.69-86.86s17.37-86.86,65.69-86.86c13,0,39.08,7.06,54.29,39.63Z"/></g></g></svg>