<?xml version="1.0" encoding="utf-8"?>
<!-- Generator: Adobe Illustrator 22.1.0, SVG Export Plug-In . SVG Version: 6.00 Build 0)  -->
<svg version="1.1" id="Layer_1" xmlns="http://www.w3.org/2000/svg" xmlns:xlink="http://www.w3.org/1999/xlink" x="0px" y="0px"
	 viewBox="0 0 142.6 153.3" style="enable-background:new 0 0 142.6 153.3;" xml:space="preserve">
<style type="text/css">
	.st0{fill:#6C757D;}
</style>
<title>Asset 8</title>
<g id="Layer_2_1_">
	<g id="Layer_1-2">
		<path class="st0" d="M102.2,80.3c0,8.2,6.6,14.8,14.8,14.8c8.2,0,14.8-6.6,14.8-14.8s-6.6-14.8-14.8-14.8c0,0,0,0,0,0
			c-8.1,0-14.7,6.5-14.8,14.6C102.2,80.1,102.2,80.2,102.2,80.3z M117,89.8c-5.3,0-9.5-4.3-9.5-9.5c0-5.3,4.3-9.5,9.5-9.5
			c5.3,0,9.5,4.3,9.5,9.5c0,0,0,0,0,0C126.5,85.5,122.2,89.7,117,89.8z"/>
		<path class="st0" d="M119.8,99.9c-11.6,0-21.3,8.8-22.6,20.3c-1.1-2.1-2.1-4.2-2.7-5.7c-0.4-1.1-0.8-2.1-1.3-3
			c-1.7-3.9-5.5-6.4-9.7-6.5l-4.8,1.3c-1.1,0.6-2.1,1.5-2.8,2.5c-2.1,3.4-1.3,7.4-1.1,8.2c1.9,12.9,11.2,36.3,31.9,36.3h1.7
			c5.6-0.7,11-2.2,16.1-4.6c4.6-2.2,8.7-5.4,12-9.3c0.4-0.4,0.6-1.1,1.1-1.5v12.9c0.1,1.4,1.3,2.5,2.7,2.4c1.3-0.1,2.3-1.1,2.4-2.4
			v-28.1C142.4,110.2,132.3,100,119.8,99.9z M132,136.2c-5.5,7-14.6,9.9-20.1,11.2c-1.5,0.4-2.9,0.6-4.4,0.8c-2.1,0.2-4.1,0-6.1-0.6
			c-1.6-0.4-3.1-1-4.7-1.7c-13.5-7.4-17.1-29.4-17.1-29.6v-0.2c-0.4-1.5-0.2-3,0.4-4.4c0.2-0.4,0.6-0.8,1.9-1.3
			c2.6-0.6,5.3,0.7,6.3,3.2v0.2c0.5,0.9,0.9,1.8,1.3,2.7c2.1,5.1,4.4,10.1,7.4,13.5c0.7,0.9,1.6,1.8,2.5,2.5
			c0.8,0.6,1.6,1.1,2.5,1.5c0.4,0.2,0.8,0.2,1.3,0.4c1.9,0.4,4.6,0,7.6-3.2c4.2-4.7,5.7-12.9,5.7-13.3v-0.4c0-1.4-1.1-2.6-2.5-2.6
			c-1.3,0-2.4,0.9-2.6,2.2c-0.4,1.9-1.7,7.8-4.4,10.6c-1.7,1.7-2.5,1.5-3,1.5c-0.8-0.3-1.5-0.7-2.1-1.2v-5.3
			c0-9.6,7.8-17.5,17.4-17.5c7.5,0,14.2,4.7,16.6,11.8l0,0v0.4C137.3,124.8,136,131.1,132,136.2z"/>
		<path class="st0" d="M24.7,93.3c8.2,0,14.8-6.6,14.8-14.8c0-8.2-6.6-14.8-14.8-14.8c-8.2,0-14.8,6.6-14.8,14.8c0,0,0,0,0,0
			c0,8.1,6.5,14.7,14.6,14.8C24.6,93.4,24.6,93.4,24.7,93.3z M24.7,69.1c5.3,0,9.5,4.2,9.5,9.5c0,5.3-4.2,9.5-9.5,9.5
			s-9.5-4.2-9.5-9.5c0,0,0,0,0,0C15.3,73.3,19.5,69.1,24.7,69.1z"/>
		<path class="st0" d="M60.6,114.7c0.8-2.4,0.7-4.9-0.4-7.2c-1.7-3.4-4.2-4-5.7-4c-3.4-0.2-6.3,2.3-7.8,4.6
			c-0.8,1.3-1.9,2.3-3.2,3.2c-3.7-8.1-11.8-13.4-20.7-13.5C10.2,97.8,0,108,0,120.6v25.1c0,1.4,1.1,2.5,2.5,2.5
			c1.4,0,2.5-1.1,2.5-2.5v-18.4c2.9,6.1,7.4,11.3,12.9,15.2c1.1,0.6,2.1,1.3,3.4,1.9c3.7,1.8,7.8,2.8,12,2.8c3.1,0,6.1-0.5,9.1-1.3
			h0.2c0.6,0,1.1-0.2,1.5-0.6c8.2-2.6,15.6-7.3,21.3-13.7c3.2-3.4,4.9-10.8,2.3-14.8C65.9,114.9,63.2,114.1,60.6,114.7z M45.4,140
			c-0.8,0.4-1.7,0.7-2.5,0.9l-2.5,0.6c-6.8,1.5-13.5,0.9-19.2-2.7c-7.6-5.3-15-16.9-13.3-25.3c0-0.4,0.2-0.8,0.2-1.3v-0.8
			c5.4-8.1,16.2-10.2,24.3-4.9c2.9,2,5.2,4.8,6.6,8.1c0.7,1.7,1.2,3.5,1.3,5.3v4.9c-3.6-1.9-6.3-7.8-7-10.1
			c-0.4-1.4-1.9-2.2-3.2-1.7c0,0-0.1,0-0.1,0c-0.9,0.3-1.6,1.1-1.7,2.1v1.3c0.4,1.3,4.2,12,12,13.9c0.4,0,0.8,0.2,1.3,0.2h1.5
			c0.9,0,1.7-0.1,2.5-0.4c1.2-0.4,2.4-1.1,3.4-1.9c0.2-0.2,0.4-0.2,0.4-0.4c0.8-0.7,1.7-1.3,2.5-1.9c1.2-0.6,2.3-1.4,3.4-2.3
			c0.2-0.2,0.6-0.4,0.8-0.6c1.7-1.3,3.2-2.5,4.6-3c2.1-0.6,2.5,0,2.8,0.2c1.1,1.7,0.2,6.6-1.7,8.4C57.2,133.5,51.7,137.5,45.4,140z
			 M54.3,108.8c0.4,0,0.8,0.6,1.3,1.3c0.6,1.3,0.4,2.8-0.6,5.3c-0.8,1.7-1.9,3.3-3.2,4.7c-0.7,0.6-1.4,1.1-2.1,1.5
			c-1.3,0.8-2.3,1.5-3.2,2.1c-0.2,0.2-0.4,0.2-0.8,0.2v-3.2c0-1.3-0.2-2.7-0.4-4c2.3-1.5,4.3-3.4,5.9-5.7
			C51.8,109.8,53,109,54.3,108.8L54.3,108.8z"/>
	</g>
</g>
</svg>
