<?xml version="1.0" encoding="utf-8"?>
<!-- Generator: Adobe Illustrator 22.1.0, SVG Export Plug-In . SVG Version: 6.00 Build 0)  -->
<svg version="1.1" id="Layer_1" xmlns="http://www.w3.org/2000/svg" xmlns:xlink="http://www.w3.org/1999/xlink" x="0px" y="0px"
	 width="860.1px" height="101.4px" viewBox="0 0 860.1 101.4" style="enable-background:new 0 0 860.1 101.4;" xml:space="preserve"
	>
<style type="text/css">
	.st0{fill:#3C3C3B;}
</style>
<path class="st0" d="M37.9,74.9c-6.5,0.1-11.8-5.7-11.9-12.8c-0.1-7.1,5.1-12.9,11.6-13c4.1,0,7.8,2.2,10,6l22.5-13.4
	c-6.9-11.9-19.5-19.2-32.8-19.1C16.6,22.9-0.2,40.7,0,62.4c0.2,21.7,17.3,39.1,38.2,38.9c13.4-0.1,25.8-7.7,32.4-19.7L47.9,68.7
	C45.7,72.6,42,74.9,37.9,74.9 M82.2,0C68.8,0.1,56.4,7.7,49.7,19.7l22.8,12.9c2.1-3.9,5.8-6.2,9.9-6.2c6.5-0.1,11.8,5.7,11.9,12.8
	c0.1,7.1-5.1,12.9-11.6,13c-4.1,0-7.8-2.2-10-6L50.1,59.5C57,71.4,69.6,78.7,82.9,78.6c20.9-0.2,37.7-18,37.5-39.7
	C120.2,17.3,103-0.2,82.2,0"/>
<g>
	<path class="st0" d="M164.2,51.3c-0.1-1.1-0.5-2.1-1.1-3c-0.9-1.2-2.2-1.8-4.1-1.8c-2.6,0-4.4,1.3-5.4,3.9
		c-0.5,1.4-0.8,3.2-0.8,5.5c0,2.2,0.3,3.9,0.8,5.2c0.9,2.5,2.7,3.7,5.2,3.7c1.8,0,3.1-0.5,3.9-1.5c0.8-1,1.2-2.2,1.4-3.8h7.9
		c-0.2,2.4-1,4.6-2.6,6.7c-2.4,3.4-6,5.1-10.8,5.1c-4.8,0-8.3-1.4-10.5-4.2c-2.3-2.8-3.4-6.5-3.4-11c0-5.1,1.2-9,3.7-11.9
		c2.5-2.8,5.9-4.2,10.3-4.2c3.7,0,6.8,0.8,9.1,2.5c2.4,1.7,3.8,4.6,4.2,8.8H164.2z"/>
	<path class="st0" d="M185.3,70.3h-7.7V30.2h7.7V70.3z"/>
	<path class="st0" d="M200.9,37.1H193V30h7.9V37.1z M193,40.7h7.9v29.6H193V40.7z"/>
	<path class="st0" d="M245.3,40.8c1.3,0.5,2.4,1.4,3.5,2.7c0.8,1,1.4,2.3,1.7,3.8c0.2,1,0.3,2.5,0.3,4.4l-0.1,18.7h-7.9V51.4
		c0-1.1-0.2-2-0.5-2.8c-0.7-1.4-2-2.1-3.8-2.1c-2.1,0-3.6,0.9-4.4,2.7c-0.4,0.9-0.6,2.1-0.6,3.4v17.6h-7.8V52.7c0-1.8-0.2-3-0.5-3.8
		c-0.7-1.4-1.9-2.1-3.8-2.1c-2.2,0-3.7,0.7-4.5,2.1c-0.4,0.8-0.6,2-0.6,3.6v17.8h-7.9V40.7h7.5V45c1-1.5,1.9-2.6,2.7-3.3
		c1.5-1.2,3.5-1.7,5.8-1.7c2.3,0,4.1,0.5,5.5,1.5c1.1,0.9,2,2.1,2.6,3.6c1-1.7,2.3-3,3.8-3.8c1.6-0.8,3.4-1.2,5.3-1.2
		C242.8,40,244.1,40.3,245.3,40.8z"/>
	<path class="st0" d="M269.6,52.3c1.4-0.2,2.5-0.4,3.1-0.7c1.1-0.5,1.7-1.2,1.7-2.2c0-1.2-0.4-2.1-1.3-2.5c-0.9-0.5-2.1-0.7-3.8-0.7
		c-1.9,0-3.2,0.5-3.9,1.4c-0.6,0.7-0.9,1.6-1.1,2.7h-7.5c0.2-2.6,0.9-4.7,2.2-6.4c2.1-2.6,5.6-3.9,10.6-3.9c3.3,0,6.2,0.6,8.7,1.9
		c2.5,1.3,3.8,3.7,3.8,7.3v13.6c0,0.9,0,2.1,0.1,3.4c0.1,1,0.2,1.7,0.5,2.1c0.3,0.4,0.6,0.7,1.1,0.9v1.1h-8.4
		c-0.2-0.6-0.4-1.2-0.5-1.7c-0.1-0.5-0.2-1.1-0.2-1.8c-1.1,1.2-2.3,2.1-3.7,3c-1.7,1-3.6,1.4-5.7,1.4c-2.7,0-4.9-0.8-6.7-2.3
		c-1.8-1.5-2.6-3.7-2.6-6.5c0-3.6,1.4-6.3,4.2-7.9c1.6-0.9,3.8-1.5,6.8-1.9L269.6,52.3z M274.4,55.9c-0.5,0.3-1,0.6-1.5,0.7
		c-0.5,0.2-1.2,0.4-2.1,0.5l-1.8,0.3c-1.7,0.3-2.8,0.6-3.6,1.1c-1.2,0.7-1.8,1.8-1.8,3.3c0,1.3,0.4,2.3,1.1,2.9
		c0.7,0.6,1.7,0.9,2.7,0.9c1.7,0,3.3-0.5,4.7-1.5c1.4-1,2.2-2.8,2.2-5.4V55.9z"/>
	<path class="st0" d="M285.8,46.5v-5.5h4.1v-8.3h7.7v8.3h4.8v5.5h-4.8v15.7c0,1.2,0.2,2,0.5,2.3c0.3,0.3,1.3,0.4,2.8,0.4
		c0.2,0,0.5,0,0.7,0s0.5,0,0.8,0v5.8l-3.7,0.1c-3.7,0.1-6.2-0.5-7.5-1.9c-0.9-0.9-1.3-2.3-1.3-4.1V46.5H285.8z"/>
	<path class="st0" d="M326.7,41.3c2.1,0.9,3.8,2.4,5.1,4.4c1.2,1.8,2,3.8,2.4,6.1c0.2,1.4,0.3,3.3,0.3,5.9h-21.6
		c0.1,3,1.2,5.1,3.1,6.3c1.2,0.7,2.6,1.1,4.3,1.1c1.8,0,3.2-0.5,4.3-1.4c0.6-0.5,1.1-1.2,1.6-2h7.9c-0.2,1.8-1.2,3.5-2.9,5.4
		c-2.7,2.9-6.4,4.3-11.1,4.3c-3.9,0-7.4-1.2-10.4-3.6c-3-2.4-4.5-6.4-4.5-11.9c0-5.1,1.4-9.1,4.1-11.8c2.7-2.7,6.3-4.1,10.6-4.1
		C322.3,39.9,324.6,40.3,326.7,41.3z M315.1,48c-1.1,1.1-1.8,2.7-2.1,4.6h13.3c-0.1-2.1-0.8-3.6-2.1-4.7c-1.2-1.1-2.8-1.6-4.6-1.6
		C317.7,46.3,316.2,46.8,315.1,48z"/>
	<path class="st0" d="M371.5,51.3c-0.1-1.1-0.5-2.1-1.1-3c-0.9-1.2-2.2-1.8-4.1-1.8c-2.6,0-4.4,1.3-5.4,3.9
		c-0.5,1.4-0.8,3.2-0.8,5.5c0,2.2,0.3,3.9,0.8,5.2c0.9,2.5,2.7,3.7,5.2,3.7c1.8,0,3.1-0.5,3.9-1.5c0.8-1,1.2-2.2,1.4-3.8h7.9
		c-0.2,2.4-1,4.6-2.6,6.7c-2.4,3.4-6,5.1-10.8,5.1c-4.8,0-8.3-1.4-10.5-4.2c-2.3-2.8-3.4-6.5-3.4-11c0-5.1,1.2-9,3.7-11.9
		c2.5-2.8,5.9-4.2,10.3-4.2c3.7,0,6.8,0.8,9.1,2.5c2.4,1.7,3.8,4.6,4.2,8.8H371.5z"/>
	<path class="st0" d="M392.7,70.3h-7.7V30.2h7.7V70.3z"/>
	<path class="st0" d="M419.6,41.3c2.1,0.9,3.8,2.4,5.1,4.4c1.2,1.8,2,3.8,2.4,6.1c0.2,1.4,0.3,3.3,0.3,5.9h-21.6
		c0.1,3,1.2,5.1,3.1,6.3c1.2,0.7,2.6,1.1,4.3,1.1c1.8,0,3.2-0.5,4.3-1.4c0.6-0.5,1.1-1.2,1.6-2h7.9c-0.2,1.8-1.2,3.5-2.9,5.4
		c-2.7,2.9-6.4,4.3-11.1,4.3c-3.9,0-7.4-1.2-10.4-3.6c-3-2.4-4.5-6.4-4.5-11.9c0-5.1,1.4-9.1,4.1-11.8c2.7-2.7,6.3-4.1,10.6-4.1
		C415.2,39.9,417.5,40.3,419.6,41.3z M408,48c-1.1,1.1-1.8,2.7-2.1,4.6h13.3c-0.1-2.1-0.8-3.6-2.1-4.7c-1.2-1.1-2.8-1.6-4.6-1.6
		C410.6,46.3,409.1,46.8,408,48z"/>
	<path class="st0" d="M443,52.3c1.4-0.2,2.5-0.4,3.1-0.7c1.1-0.5,1.7-1.2,1.7-2.2c0-1.2-0.4-2.1-1.3-2.5c-0.9-0.5-2.1-0.7-3.8-0.7
		c-1.9,0-3.2,0.5-3.9,1.4c-0.6,0.7-0.9,1.6-1.1,2.7h-7.5c0.2-2.6,0.9-4.7,2.2-6.4c2.1-2.6,5.6-3.9,10.6-3.9c3.3,0,6.2,0.6,8.7,1.9
		c2.5,1.3,3.8,3.7,3.8,7.3v13.6c0,0.9,0,2.1,0.1,3.4c0.1,1,0.2,1.7,0.5,2.1c0.3,0.4,0.6,0.7,1.1,0.9v1.1h-8.4
		c-0.2-0.6-0.4-1.2-0.5-1.7c-0.1-0.5-0.2-1.1-0.2-1.8c-1.1,1.2-2.3,2.1-3.7,3c-1.7,1-3.6,1.4-5.7,1.4c-2.7,0-4.9-0.8-6.7-2.3
		c-1.8-1.5-2.6-3.7-2.6-6.5c0-3.6,1.4-6.3,4.2-7.9c1.6-0.9,3.8-1.5,6.8-1.9L443,52.3z M447.7,55.9c-0.5,0.3-1,0.6-1.5,0.7
		c-0.5,0.2-1.2,0.4-2.1,0.5l-1.8,0.3c-1.7,0.3-2.8,0.6-3.6,1.1c-1.2,0.7-1.8,1.8-1.8,3.3c0,1.3,0.4,2.3,1.1,2.9
		c0.7,0.6,1.7,0.9,2.7,0.9c1.7,0,3.3-0.5,4.7-1.5c1.4-1,2.2-2.8,2.2-5.4V55.9z"/>
	<path class="st0" d="M486.1,42.4c1.9,1.6,2.9,4.3,2.9,8v20h-7.9v-18c0-1.6-0.2-2.8-0.6-3.6c-0.8-1.5-2.2-2.3-4.3-2.3
		c-2.6,0-4.4,1.1-5.4,3.3c-0.5,1.2-0.8,2.7-0.8,4.5v16h-7.7V40.7h7.5V45c1-1.5,1.9-2.6,2.8-3.3c1.6-1.2,3.6-1.8,6-1.8
		C481.6,40,484.1,40.8,486.1,42.4z"/>
	<path class="st0" d="M503.9,40.7v17.9c0,1.7,0.2,3,0.6,3.8c0.7,1.5,2.1,2.3,4.1,2.3c2.6,0,4.4-1.1,5.4-3.2c0.5-1.2,0.8-2.7,0.8-4.6
		V40.7h7.9v29.6h-7.5v-4.2c-0.1,0.1-0.3,0.4-0.5,0.8s-0.6,0.9-1,1.2c-1.2,1.1-2.4,1.8-3.5,2.2c-1.1,0.4-2.5,0.6-4,0.6
		c-4.4,0-7.3-1.6-8.8-4.7c-0.9-1.7-1.3-4.3-1.3-7.7V40.7H503.9z"/>
	<path class="st0" d="M555.1,43.9c2.4,2.6,3.6,6.3,3.6,11.3c0,5.2-1.2,9.2-3.5,11.9c-2.4,2.7-5.4,4.1-9.1,4.1
		c-2.4,0-4.3-0.6-5.9-1.8c-0.9-0.7-1.7-1.6-2.5-2.9V82H530V40.7h7.4V45c0.8-1.3,1.7-2.3,2.7-3c1.7-1.3,3.8-2,6.2-2
		C549.8,40,552.7,41.3,555.1,43.9z M549.2,49.4c-1.1-1.8-2.8-2.6-5.1-2.6c-2.8,0-4.8,1.3-5.9,4c-0.5,1.4-0.8,3.2-0.8,5.4
		c0,3.4,0.9,5.9,2.8,7.3c1.1,0.8,2.4,1.2,3.9,1.2c2.2,0,3.8-0.8,5-2.5c1.1-1.7,1.7-3.9,1.7-6.7C550.8,53.2,550.2,51.2,549.2,49.4z"
		/>
	<path class="st0" d="M591.9,29.9c0.4,0,0.9,0.1,1.6,0.1v6.3c-0.4-0.1-1.2-0.1-2.2-0.1c-1,0-1.7,0.2-2.1,0.7c-0.4,0.5-0.6,1-0.6,1.6
		s0,1.4,0,2.5h5.1v5.5h-5.1v23.9H581V46.4h-4.3v-5.5h4.2V39c0-3.2,0.5-5.4,1.6-6.6c1.1-1.8,3.8-2.7,8.1-2.7
		C591.1,29.8,591.5,29.8,591.9,29.9z"/>
	<path class="st0" d="M622.9,66.7c-2.5,3.1-6.3,4.6-11.4,4.6c-5.1,0-8.9-1.5-11.4-4.6c-2.5-3.1-3.8-6.8-3.8-11.2
		c0-4.3,1.3-8,3.8-11.1c2.5-3.1,6.3-4.7,11.4-4.7c5.1,0,8.9,1.6,11.4,4.7c2.5,3.1,3.8,6.8,3.8,11.1
		C626.7,59.9,625.4,63.6,622.9,66.7z M616.7,62.4c1.2-1.6,1.8-3.9,1.8-6.9c0-3-0.6-5.3-1.8-6.9c-1.2-1.6-3-2.4-5.2-2.4
		s-4,0.8-5.2,2.4c-1.2,1.6-1.8,3.9-1.8,6.9c0,3,0.6,5.3,1.8,6.9c1.2,1.6,3,2.4,5.2,2.4S615.5,64,616.7,62.4z"/>
	<path class="st0" d="M640,40.7v17.9c0,1.7,0.2,3,0.6,3.8c0.7,1.5,2.1,2.3,4.1,2.3c2.6,0,4.4-1.1,5.4-3.2c0.5-1.2,0.8-2.7,0.8-4.6
		V40.7h7.9v29.6h-7.5v-4.2c-0.1,0.1-0.3,0.4-0.5,0.8c-0.3,0.5-0.6,0.9-1,1.2c-1.2,1.1-2.4,1.8-3.5,2.2c-1.1,0.4-2.5,0.6-4,0.6
		c-4.4,0-7.3-1.6-8.8-4.7c-0.8-1.7-1.3-4.3-1.3-7.7V40.7H640z"/>
	<path class="st0" d="M690.1,42.4c1.9,1.6,2.9,4.3,2.9,8v20h-7.9v-18c0-1.6-0.2-2.8-0.6-3.6c-0.8-1.5-2.2-2.3-4.3-2.3
		c-2.6,0-4.4,1.1-5.4,3.3c-0.5,1.2-0.8,2.7-0.8,4.5v16h-7.7V40.7h7.5V45c1-1.5,1.9-2.6,2.8-3.3c1.6-1.2,3.6-1.8,6-1.8
		C685.7,40,688.2,40.8,690.1,42.4z"/>
	<path class="st0" d="M716,41.1c1.4,0.8,2.5,1.9,3.4,3.3V30.3h7.9v40h-7.5v-4.1c-1.1,1.8-2.4,3-3.8,3.8c-1.4,0.8-3.2,1.2-5.3,1.2
		c-3.5,0-6.4-1.4-8.7-4.2c-2.4-2.8-3.5-6.4-3.5-10.8c0-5.1,1.2-9,3.5-11.9c2.3-2.9,5.4-4.3,9.3-4.3C713,40,714.6,40.4,716,41.1z
		 M717.9,62.3c1.1-1.6,1.7-3.7,1.7-6.3c0-3.6-0.9-6.2-2.7-7.8c-1.1-0.9-2.4-1.4-3.9-1.4c-2.3,0-3.9,0.9-5,2.6
		c-1.1,1.7-1.6,3.8-1.6,6.4c0,2.7,0.5,4.9,1.6,6.6c1.1,1.6,2.7,2.5,4.9,2.5C715.1,64.7,716.7,63.9,717.9,62.3z"/>
	<path class="st0" d="M746,52.3c1.4-0.2,2.5-0.4,3.1-0.7c1.1-0.5,1.7-1.2,1.7-2.2c0-1.2-0.4-2.1-1.3-2.5c-0.9-0.5-2.1-0.7-3.8-0.7
		c-1.9,0-3.2,0.5-3.9,1.4c-0.6,0.7-0.9,1.6-1.1,2.7h-7.5c0.2-2.6,0.9-4.7,2.2-6.4c2.1-2.6,5.6-3.9,10.6-3.9c3.3,0,6.2,0.6,8.7,1.9
		c2.5,1.3,3.8,3.7,3.8,7.3v13.6c0,0.9,0,2.1,0.1,3.4c0.1,1,0.2,1.7,0.5,2.1c0.3,0.4,0.6,0.7,1.1,0.9v1.1h-8.4
		c-0.2-0.6-0.4-1.2-0.5-1.7c-0.1-0.5-0.2-1.1-0.2-1.8c-1.1,1.2-2.3,2.1-3.7,3c-1.7,1-3.6,1.4-5.7,1.4c-2.7,0-4.9-0.8-6.7-2.3
		c-1.8-1.5-2.6-3.7-2.6-6.5c0-3.6,1.4-6.3,4.2-7.9c1.6-0.9,3.8-1.5,6.8-1.9L746,52.3z M750.7,55.9c-0.5,0.3-1,0.6-1.5,0.7
		c-0.5,0.2-1.2,0.4-2.1,0.5l-1.8,0.3c-1.7,0.3-2.8,0.6-3.6,1.1c-1.2,0.7-1.8,1.8-1.8,3.3c0,1.3,0.4,2.3,1.1,2.9
		c0.7,0.6,1.7,0.9,2.7,0.9c1.7,0,3.3-0.5,4.7-1.5c1.4-1,2.2-2.8,2.2-5.4V55.9z"/>
	<path class="st0" d="M762.2,46.5v-5.5h4.1v-8.3h7.7v8.3h4.8v5.5H774v15.7c0,1.2,0.2,2,0.5,2.3c0.3,0.3,1.3,0.4,2.8,0.4
		c0.2,0,0.5,0,0.7,0s0.5,0,0.8,0v5.8l-3.7,0.1c-3.7,0.1-6.2-0.5-7.5-1.9c-0.9-0.9-1.3-2.3-1.3-4.1V46.5H762.2z"/>
	<path class="st0" d="M791.7,37.1h-7.9V30h7.9V37.1z M783.9,40.7h7.9v29.6h-7.9V40.7z"/>
	<path class="st0" d="M824,66.7c-2.5,3.1-6.3,4.6-11.4,4.6s-8.9-1.5-11.4-4.6c-2.5-3.1-3.8-6.8-3.8-11.2c0-4.3,1.3-8,3.8-11.1
		s6.3-4.7,11.4-4.7s8.9,1.6,11.4,4.7c2.5,3.1,3.8,6.8,3.8,11.1C827.7,59.9,826.5,63.6,824,66.7z M817.8,62.4
		c1.2-1.6,1.8-3.9,1.8-6.9c0-3-0.6-5.3-1.8-6.9c-1.2-1.6-3-2.4-5.2-2.4s-4,0.8-5.2,2.4c-1.2,1.6-1.8,3.9-1.8,6.9
		c0,3,0.6,5.3,1.8,6.9c1.2,1.6,3,2.4,5.2,2.4S816.5,64,817.8,62.4z"/>
	<path class="st0" d="M857.1,42.4c1.9,1.6,2.9,4.3,2.9,8v20h-7.9v-18c0-1.6-0.2-2.8-0.6-3.6c-0.8-1.5-2.2-2.3-4.3-2.3
		c-2.6,0-4.4,1.1-5.4,3.3c-0.5,1.2-0.8,2.7-0.8,4.5v16h-7.7V40.7h7.5V45c1-1.5,1.9-2.6,2.8-3.3c1.6-1.2,3.6-1.8,6-1.8
		C852.7,40,855.2,40.8,857.1,42.4z"/>
</g>
</svg>
