<svg xmlns="http://www.w3.org/2000/svg" viewBox="0 0 472 472"><title>Asset 1</title><g id="Layer_2" data-name="Layer 2"><g id="Layer_1-2" data-name="Layer 1"><path d="M236,0C366.21,0,472,105.79,472,236S366.21,472,236,472,0,366.21,0,236,105.79,0,236,0Zm10.73,22.8V96.55h66.54c-2.13-5.21-4.35-10.35-6.7-15.09C290,48,268.92,27.79,246.73,22.8Zm-21.46,0C203.08,27.79,182,48,165.43,81.46c-2.35,4.74-4.57,9.88-6.7,15.09h66.54ZM298,30.67C308.49,42,317.76,56,325.67,71.91A262.86,262.86,0,0,1,336.4,96.55h62.69A214.43,214.43,0,0,0,298,30.67Zm-124,0A214.43,214.43,0,0,0,72.91,96.55H135.6a262.86,262.86,0,0,1,10.73-24.64C154.24,56,163.51,42,174,30.67ZM415.35,118H343.44a389.24,389.24,0,0,1,12.74,64.36h87.66A213.51,213.51,0,0,0,415.35,118ZM321,118H246.73v64.36h88A362,362,0,0,0,321,118Zm-95.71,0H151a362,362,0,0,0-13.74,64.36h88Zm-96.71,0H56.65a213.51,213.51,0,0,0-28.49,64.36h87.66A389.24,389.24,0,0,1,128.56,118ZM448,203.82H358.19c.72,10.55,1.17,21.23,1.17,32.18s-.46,21.69-1.17,32.18H448A218.66,218.66,0,0,0,450.55,236,216,216,0,0,0,448,203.82Zm-111.29,0h-90v64.36h90c.75-10.49,1.17-21.25,1.17-32.18S337.49,214.32,336.74,203.82Zm-111.47,0h-90c-.75,10.5-1.17,21.24-1.17,32.18s.42,21.69,1.17,32.18h90Zm-111.46,0H24A216,216,0,0,0,21.45,236,218.66,218.66,0,0,0,24,268.18h89.84c-.71-10.49-1.17-21.29-1.17-32.18S113.09,214.37,113.81,203.82Zm330,85.82H356.35A388.58,388.58,0,0,1,343.44,354h71.91A212.56,212.56,0,0,0,443.84,289.64Zm-109.12,0h-88V354H321A363.29,363.29,0,0,0,334.72,289.64Zm-109.45,0h-88A363.29,363.29,0,0,0,151,354h74.25Zm-109.62,0H28.16A212.56,212.56,0,0,0,56.65,354h71.91A388.58,388.58,0,0,1,115.65,289.64Zm283.44,85.81H336.4a261.87,261.87,0,0,1-10.73,24.48c-7.91,15.94-17.18,30.18-27.65,41.56A214.41,214.41,0,0,0,399.09,375.45Zm-85.65,0H246.73v73.92c22.19-5,43.25-25.4,59.84-58.83C309,385.73,311.28,380.74,313.44,375.45Zm-88.17,0H158.56c2.16,5.29,4.49,10.28,6.87,15.09C182,424,203.08,444.38,225.27,449.37Zm-89.67,0H72.91a214.41,214.41,0,0,0,101.07,66c-10.47-11.38-19.74-25.62-27.65-41.56A261.87,261.87,0,0,1,135.6,375.45Z"/></g></g></svg>