<svg xmlns="http://www.w3.org/2000/svg" viewBox="0 0 99 99"><defs><style>.cls-1{fill:#6c757d;}</style></defs><title>Asset 7</title><g id="Layer_2" data-name="Layer 2"><g id="Layer_1-2" data-name="Layer 1"><path class="cls-1" d="M99,49.5A9.5,9.5,0,0,0,89.5,40a10.69,10.69,0,0,0-1.27.09A9,9,0,0,1,89.5,40l.38,0a38.2,38.2,0,0,0-5.12-12.38,9.48,9.48,0,0,0-13.4-13.4A37.14,37.14,0,0,0,59,9.13a9.47,9.47,0,1,0-.35,3,37,37,0,0,1,10.86,4.48A9.5,9.5,0,0,0,82.41,29.51c1.87,3.45,3.72,7,4.48,10.86a9.49,9.49,0,0,0,0,18.26A35.26,35.26,0,0,1,82.4,69.49,9.49,9.49,0,0,0,69.49,82.41c-3.45,1.87-7,3.71-10.86,4.48a9.49,9.49,0,0,0-18.26,0,37,37,0,0,1-10.86-4.48,9.5,9.5,0,0,0-15-11.34h0A9.49,9.49,0,0,0,27.64,84.76,37.59,37.59,0,0,0,40,89.88a9.49,9.49,0,0,0,19,0,38.2,38.2,0,0,0,12.38-5.12,9.48,9.48,0,0,0,13.4-13.4A37.59,37.59,0,0,0,89.88,59,9.49,9.49,0,0,0,99,49.5ZM58.91,10.77A10.69,10.69,0,0,0,59,9.5,9.21,9.21,0,0,1,58.91,10.77Zm11.5,4.45c0,.07-.1.15-.16.22C70.31,15.36,70.35,15.29,70.41,15.22Zm.66-.72c-.23.23-.45.47-.65.71ZM83.79,28.57a8.54,8.54,0,0,0,.71-.64C84.1,28.3,83.93,28.46,83.79,28.57Zm-.23.17.22-.15ZM28.74,83.57a1.49,1.49,0,0,1-.15.2Zm-.18.24-.49.54C28.24,84.18,28.4,84,28.56,83.81ZM16.62,82.38a6.5,6.5,0,1,1,9.19,0A6.49,6.49,0,0,1,16.62,82.38Zm23.47,5.85A10.69,10.69,0,0,0,40,89.5,9.21,9.21,0,0,1,40.09,88.23Zm30.34-4.44a8.54,8.54,0,0,0,.64.71C70.7,84.1,70.54,83.93,70.43,83.79Zm-.18-.23c.06.07.11.15.16.22S70.31,83.64,70.25,83.56ZM84.5,71.07v0l.23.25Zm3.73-12.16A10.69,10.69,0,0,0,89.5,59,9.21,9.21,0,0,1,88.23,58.91Z"/><path class="cls-1" d="M19,49.5A9.5,9.5,0,1,0,9.5,59,9.5,9.5,0,0,0,19,49.5ZM9.5,56A6.5,6.5,0,1,1,16,49.5,6.5,6.5,0,0,1,9.5,56Z"/><path class="cls-1" d="M27.93,27.93a9.5,9.5,0,1,0-13.43,0A9.49,9.49,0,0,0,27.93,27.93ZM16.62,16.62a6.5,6.5,0,1,1,0,9.19A6.49,6.49,0,0,1,16.62,16.62Z"/></g></g></svg>