<svg xmlns="http://www.w3.org/2000/svg" viewBox="0 0 248.64 129.53"><defs><style>.cls-1{fill:#6c757d;}</style></defs><title>Asset 10</title><g id="Layer_2" data-name="Layer 2"><g id="Layer_1-2" data-name="Layer 1"><path class="cls-1" d="M46.9,121.44a20.56,20.56,0,0,1-9,5.94,38,38,0,0,1-12.95,2.11,25.66,25.66,0,0,1-13.09-3.26,21.79,21.79,0,0,1-8.68-9.46A33.27,33.27,0,0,1,0,102.2V98.29A35.28,35.28,0,0,1,2.91,83.38a21.37,21.37,0,0,1,8.37-9.63,24.14,24.14,0,0,1,12.81-3.33q10.23,0,16,4.88t6.83,14.19H35.38q-.8-4.93-3.49-7.23A11.2,11.2,0,0,0,24.45,80a10.52,10.52,0,0,0-9.21,4.54Q12.09,89.06,12,98v3.68q0,9,3.44,13.66T25.54,120q6.67,0,9.52-2.84v-9.91H24.28V98.49H46.91Z"/><path class="cls-1" d="M144.76,116.87H124L120,128.72h-12.6l21.41-57.48h11l21.51,57.49h-12.6Zm-17.57-9.59h14.37l-7.22-21.52Z"/><polygon class="cls-1" points="176.78 119.21 201.93 119.22 201.93 128.73 164.93 128.72 164.94 71.23 176.79 71.24 176.78 119.21"/><path class="cls-1" d="M236.75,113.65a6.08,6.08,0,0,0-2.36-5.15q-2.37-1.8-8.53-3.79a60.11,60.11,0,0,1-9.75-3.93q-9.8-5.3-9.79-14.26a13.9,13.9,0,0,1,2.62-8.31,17.17,17.17,0,0,1,7.55-5.7,28.31,28.31,0,0,1,11-2.05,25.79,25.79,0,0,1,11,2.23A17.53,17.53,0,0,1,246,79a16.45,16.45,0,0,1,2.66,9.24H236.8a7.74,7.74,0,0,0-2.49-6.14c-1.66-1.47-4-2.2-7-2.2a10.9,10.9,0,0,0-6.75,1.84,5.79,5.79,0,0,0-2.41,4.83,5.54,5.54,0,0,0,2.82,4.7,32,32,0,0,0,8.32,3.56q10.09,3,14.72,7.54a15,15,0,0,1,4.62,11.22,13.8,13.8,0,0,1-5.65,11.7q-5.64,4.25-15.2,4.25a29.49,29.49,0,0,1-12.08-2.44,18.93,18.93,0,0,1-8.31-6.65,17,17,0,0,1-2.87-9.79h11.89q0,9.51,11.37,9.52a11,11,0,0,0,6.59-1.72,5.58,5.58,0,0,0,2.37-4.8"/><path class="cls-1" d="M68.06,92.34A16.45,16.45,0,0,1,70.65,89L62.16,79.7a28.85,28.85,0,0,0-5.39,7Z"/><path class="cls-1" d="M88.88,85.76A16.15,16.15,0,0,1,92.44,88L101,78.7A28.86,28.86,0,0,0,93.41,74Z"/><path class="cls-1" d="M108.39,88.56,97.1,94.19a16.18,16.18,0,0,1,1.13,4L110.78,97a28.88,28.88,0,0,0-2.39-8.43"/><path class="cls-1" d="M96.29,92.56l11.28-5.63a28.92,28.92,0,0,0-5.27-7l-8.52,9.3a16.08,16.08,0,0,1,2.51,3.33"/><path class="cls-1" d="M65.82,100.58c0-.25,0-.51,0-.76L53.28,98.69q-.06.94-.06,1.89a29.13,29.13,0,0,0,.85,7l12.13-3.47a16.27,16.27,0,0,1-.38-3.51"/><path class="cls-1" d="M94.71,110.9a16.42,16.42,0,0,1-3.07,2.88l6.64,10.74a29.29,29.29,0,0,0,6.49-6Z"/><path class="cls-1" d="M98.4,100.58A15.75,15.75,0,0,1,98,104l12.13,3.49a29,29,0,0,0,.85-7q0-.9-.06-1.77L98.39,100c0,.2,0,.39,0,.59"/><path class="cls-1" d="M69.72,111.14l-10,7.63a29.22,29.22,0,0,0,6.56,5.94L72.87,114a16,16,0,0,1-3.15-2.84"/><path class="cls-1" d="M66,98A16.22,16.22,0,0,1,67.23,94L55.94,88.34a28.94,28.94,0,0,0-2.49,8.54Z"/><path class="cls-1" d="M96.73,125.49l-6.62-10.72a16.29,16.29,0,0,1-3.86,1.57l2.33,12.4a28.84,28.84,0,0,0,8.15-3.25"/><path class="cls-1" d="M97.55,105.8a16.28,16.28,0,0,1-1.77,3.63l10.07,7.6a29,29,0,0,0,3.82-7.75Z"/><path class="cls-1" d="M84.46,116.7a16.45,16.45,0,0,1-2.35.17,16.83,16.83,0,0,1-1.89-.11l-2.34,12.4a28.08,28.08,0,0,0,4.23.31,29,29,0,0,0,4.69-.38Z"/><path class="cls-1" d="M83.15,84.32a16.43,16.43,0,0,1,4,.78l4.53-11.77a28.32,28.32,0,0,0-8.57-1.62Z"/><path class="cls-1" d="M78.42,116.45a16.34,16.34,0,0,1-4-1.51l-6.63,10.73a28.72,28.72,0,0,0,8.3,3.17Z"/><path class="cls-1" d="M77.22,85a16.31,16.31,0,0,1,4.11-.73V71.7a28.63,28.63,0,0,0-8.67,1.58Z"/><path class="cls-1" d="M68.62,109.69a16.15,16.15,0,0,1-1.93-3.85l-12.12,3.48a28.73,28.73,0,0,0,4,8Z"/><path class="cls-1" d="M72,87.8a16.47,16.47,0,0,1,3.49-2.11L71,73.93a29,29,0,0,0-7.43,4.55Z"/><path class="cls-1" d="M15.07,19.63a2.59,2.59,0,0,0-1-2.16,12.39,12.39,0,0,0-3.46-1.61,33.72,33.72,0,0,1-4-1.6Q1.5,11.76,1.5,7.37A6.17,6.17,0,0,1,2.77,3.52,8.17,8.17,0,0,1,6.36.93,14,14,0,0,1,11.59,0a12.24,12.24,0,0,1,5.07,1,8,8,0,0,1,3.49,2.87A7.54,7.54,0,0,1,21.4,8.15H15.09a3.17,3.17,0,0,0-1-2.49,3.8,3.8,0,0,0-2.65-.88,4.37,4.37,0,0,0-2.68.74,2.29,2.29,0,0,0-1,1.91A2.32,2.32,0,0,0,8.87,9.26,13.8,13.8,0,0,0,12.67,11a23,23,0,0,1,4.47,1.88q4.26,2.46,4.26,6.76A6.41,6.41,0,0,1,18.8,25a11.54,11.54,0,0,1-7.12,2A14.2,14.2,0,0,1,5.9,25.82,8.74,8.74,0,0,1,2,22.69,8.2,8.2,0,0,1,.7,18.1H7.05a4,4,0,0,0,1.09,3.11,5.18,5.18,0,0,0,3.54,1,4.08,4.08,0,0,0,2.48-.68,2.22,2.22,0,0,0,.91-1.9"/><path class="cls-1" d="M45.59.36V17.54a9.88,9.88,0,0,1-1.24,5.06,8.11,8.11,0,0,1-3.57,3.25A12.64,12.64,0,0,1,35.28,27a10.86,10.86,0,0,1-7.55-2.49,8.85,8.85,0,0,1-2.81-6.81V.36h6.36V17.79c.07,2.87,1.41,4.31,4,4.31a3.9,3.9,0,0,0,3-1.08,5.07,5.07,0,0,0,1-3.52V.36Z"/><path class="cls-1" d="M63.45,19.63a2.59,2.59,0,0,0-1-2.16A12.45,12.45,0,0,0,59,15.86a33.28,33.28,0,0,1-4-1.6q-5.1-2.51-5.1-6.89a6.17,6.17,0,0,1,1.27-3.85A8.17,8.17,0,0,1,54.74.93,14,14,0,0,1,60,0,12.24,12.24,0,0,1,65,1a8,8,0,0,1,3.49,2.87,7.54,7.54,0,0,1,1.25,4.27H63.47a3.17,3.17,0,0,0-1-2.49,3.8,3.8,0,0,0-2.65-.88,4.37,4.37,0,0,0-2.68.74,2.29,2.29,0,0,0-1,1.91,2.32,2.32,0,0,0,1.08,1.83A13.8,13.8,0,0,0,61.05,11a23,23,0,0,1,4.47,1.88q4.26,2.46,4.26,6.76A6.41,6.41,0,0,1,67.18,25a11.54,11.54,0,0,1-7.12,2,14.2,14.2,0,0,1-5.78-1.15,8.74,8.74,0,0,1-3.89-3.13,8.2,8.2,0,0,1-1.31-4.59h6.35a4,4,0,0,0,1.09,3.11,5.2,5.2,0,0,0,3.54,1,4.08,4.08,0,0,0,2.48-.68,2.22,2.22,0,0,0,.91-1.9"/><polygon class="cls-1" points="93.99 5.25 86.12 5.25 86.12 26.61 79.79 26.61 79.79 5.25 72.06 5.25 72.06 0.36 93.99 0.36 93.99 5.25"/><path class="cls-1" d="M109.78,21.7h-8.67l-1.52,4.91H92.83L102.46.36h6l9.69,26.25h-6.79Zm-7.16-4.88h5.64l-2.83-9.11Z"/><rect class="cls-1" x="120.82" y="0.36" width="6.31" height="26.25"/><polygon class="cls-1" points="153.81 26.61 147.52 26.61 138.22 10.27 138.22 26.61 131.89 26.61 131.89 0.36 138.22 0.36 147.5 16.69 147.5 0.36 153.81 0.36 153.81 26.61"/><path class="cls-1" d="M173.41,21.7h-8.67l-1.51,4.91h-6.76L166.1.36H172l9.7,26.25H175Zm-7.15-4.88h5.64l-2.83-9.11Z"/><path class="cls-1" d="M184,26.61V.36h9.43q5.07,0,7.71,1.86a6.16,6.16,0,0,1,2.64,5.39,6.33,6.33,0,0,1-.94,3.48,5.46,5.46,0,0,1-2.76,2.12,5.59,5.59,0,0,1,3.16,2,5.91,5.91,0,0,1,1.1,3.61,6.94,6.94,0,0,1-2.45,5.79q-2.44,1.94-7.23,2Zm6.33-15.31h3.3a4.6,4.6,0,0,0,2.95-.76,2.69,2.69,0,0,0,.89-2.19,2.82,2.82,0,0,0-1-2.39,5.1,5.1,0,0,0-3.08-.73h-3.1Zm0,4.15v6.29h4.15a3.92,3.92,0,0,0,2.63-.79,2.73,2.73,0,0,0,.92-2.2q0-3.29-3.27-3.3Z"/><polygon class="cls-1" points="214.53 21.74 225.54 21.74 225.54 26.61 208.2 26.61 208.2 0.36 214.53 0.36 214.53 21.74"/><polygon class="cls-1" points="244.86 15.47 234.91 15.47 234.91 21.74 246.66 21.74 246.66 26.61 228.58 26.61 228.58 0.36 246.7 0.36 246.7 5.25 234.91 5.25 234.91 10.78 244.86 10.78 244.86 15.47"/><path class="cls-1" d="M1.51,62.1V36.39H9.79a12.21,12.21,0,0,1,6.13,1.54,10.9,10.9,0,0,1,4.25,4.37,13.21,13.21,0,0,1,1.54,6.31v1.18a13.26,13.26,0,0,1-1.49,6.33A10.89,10.89,0,0,1,16,60.5a11.8,11.8,0,0,1-6,1.6ZM7.7,41.17V57.33H9.86A4.84,4.84,0,0,0,14,55.44a9.35,9.35,0,0,0,1.43-5.65V48.68A9.27,9.27,0,0,0,14,43.06a4.92,4.92,0,0,0-4.17-1.89Z"/><polygon class="cls-1" points="39.48 51.19 30.38 51.19 30.38 57.33 41.25 57.33 41.25 62.1 24.18 62.1 24.18 36.39 41.28 36.39 41.28 41.17 30.38 41.17 30.38 46.6 39.48 46.6 39.48 51.19"/><polygon class="cls-1" points="54.84 55.11 59.96 36.39 66.89 36.39 58.23 62.1 51.45 62.1 42.86 36.39 49.73 36.39 54.84 55.11"/><polygon class="cls-1" points="83.97 51.19 74.96 51.19 74.96 57.33 85.74 57.33 85.74 62.1 68.76 62.1 68.76 36.39 85.77 36.39 85.77 41.17 74.96 41.17 74.96 46.6 83.97 46.6 83.97 51.19"/><polygon class="cls-1" points="94.07 57.33 103.88 57.33 103.88 62.1 87.87 62.1 87.87 36.39 94.07 36.39 94.07 57.33"/><path class="cls-1" d="M126.94,49.77a15.16,15.16,0,0,1-1.39,6.66,10.28,10.28,0,0,1-4,4.46,11,11,0,0,1-5.85,1.57A11.25,11.25,0,0,1,109.9,61a10.33,10.33,0,0,1-4-4.32,14.73,14.73,0,0,1-1.49-6.45V48.73a15.1,15.1,0,0,1,1.39-6.66,10.15,10.15,0,0,1,4-4.46,11.72,11.72,0,0,1,11.72,0,10.43,10.43,0,0,1,4,4.42,14.77,14.77,0,0,1,1.44,6.58Zm-6.3-1.07a10.73,10.73,0,0,0-1.29-5.82,4.09,4.09,0,0,0-3.66-2q-4.66,0-4.93,7l0,1.88A11.13,11.13,0,0,0,112,55.59a4.36,4.36,0,0,0,7.35,0,11,11,0,0,0,1.29-5.74Z"/><path class="cls-1" d="M135.6,53.38V62.1h-6.2V36.39h10.26a12,12,0,0,1,5.22,1.08,8.24,8.24,0,0,1,3.52,3.09,8.47,8.47,0,0,1,1.24,4.55,7.45,7.45,0,0,1-2.69,6,11.19,11.19,0,0,1-7.39,2.25Zm0-4.79h4.06a3.83,3.83,0,0,0,2.75-.9,3.35,3.35,0,0,0,1-2.54,4.14,4.14,0,0,0-1-2.88,3.45,3.45,0,0,0-2.65-1.1H135.6Z"/><polygon class="cls-1" points="160.06 36.39 165.8 54.28 171.52 36.39 179.68 36.39 179.68 62.1 173.47 62.1 173.47 56.1 174.07 43.8 167.85 62.1 163.75 62.1 157.52 43.79 158.12 56.1 158.12 62.1 151.92 62.1 151.92 36.39 160.06 36.39"/><polygon class="cls-1" points="197.77 51.19 188.64 51.19 188.64 57.33 199.54 57.33 199.54 62.1 182.44 62.1 182.44 36.39 199.57 36.39 199.57 41.17 188.64 41.17 188.64 46.6 197.77 46.6 197.77 51.19"/><polygon class="cls-1" points="223.1 62.1 216.94 62.1 207.82 46.1 207.82 62.1 201.62 62.1 201.62 36.39 207.82 36.39 216.92 52.39 216.92 36.39 223.1 36.39 223.1 62.1"/><polygon class="cls-1" points="246.7 41.17 238.98 41.17 238.98 62.1 232.78 62.1 232.78 41.17 225.2 41.17 225.2 36.39 246.7 36.39 246.7 41.17"/></g></g></svg>