<svg xmlns="http://www.w3.org/2000/svg" viewBox="0 0 753.21 92.31"><defs><style>.cls-1{fill:#1d1d1b;}</style></defs><title>Asset 1</title><g id="Layer_2" data-name="Layer 2"><g id="Layer_1-2" data-name="Layer 1"><path class="cls-1" d="M441.09,79.05q-4.95,5.92-14,9.2a58.58,58.58,0,0,1-20,3.28,39.67,39.67,0,0,1-20.25-5,33.59,33.59,0,0,1-13.45-14.63q-4.74-9.59-4.87-22.54v-6q0-13.31,4.48-23.06A33.16,33.16,0,0,1,385.92,5.31,37.33,37.33,0,0,1,405.75.14q15.81,0,24.74,7.53t10.58,22H423.23Q422,22,417.82,18.46T406.3,14.92q-9.35,0-14.23,7t-4.94,20.9v5.68q0,14,5.33,21.14T408,76.81q10.32,0,14.72-4.41V57.07H406.08V43.57h35Z"/><path class="cls-1" d="M592.48,71.9H560.35l-6.1,18.33H534.76l33.07-89h17l33.33,88.94H598.66ZM565.29,57.07h22.24L576.34,23.77Z"/><polygon class="cls-1" points="642.03 75.48 680.94 75.46 680.95 90.19 623.71 90.21 623.67 1.26 641.99 1.26 642.03 75.48"/><path class="cls-1" d="M734.82,66.83a9.41,9.41,0,0,0-3.67-8Q727.48,56.07,718,53a94.36,94.36,0,0,1-15.09-6.07q-15.15-8.19-15.16-22a21.5,21.5,0,0,1,4-12.86,26.53,26.53,0,0,1,11.67-8.84A43.86,43.86,0,0,1,720.49,0a40.16,40.16,0,0,1,17,3.44,27.07,27.07,0,0,1,11.58,9.74,25.51,25.51,0,0,1,4.13,14.3H734.86q0-6.1-3.85-9.49T720.19,14.6q-6.72,0-10.44,2.85A8.93,8.93,0,0,0,706,24.93c0,2.89,1.45,5.32,4.37,7.27s7.2,3.78,12.86,5.49q15.63,4.7,22.79,11.66a23.25,23.25,0,0,1,7.16,17.35q0,11.55-8.73,18.11T721,91.39a45.4,45.4,0,0,1-18.7-3.75A29.62,29.62,0,0,1,689.4,77.36,26.47,26.47,0,0,1,685,62.21h18.39q0,14.72,17.6,14.71,6.54,0,10.21-2.66a8.65,8.65,0,0,0,3.66-7.42"/><path class="cls-1" d="M471,33.77a25.66,25.66,0,0,1,4.05-5.2L461.77,14a45.37,45.37,0,0,0-8.43,11Z"/><path class="cls-1" d="M503.52,23.49A25.45,25.45,0,0,1,509.09,27L522.4,12.45a45.36,45.36,0,0,0-11.8-7.36Z"/><path class="cls-1" d="M534,27.87l-17.64,8.79a25.06,25.06,0,0,1,1.77,6.23L537.75,41A44.49,44.49,0,0,0,534,27.87"/><path class="cls-1" d="M515.1,34.11l17.63-8.79a45.11,45.11,0,0,0-8.24-10.94L511.18,28.9a25.59,25.59,0,0,1,3.92,5.21"/><path class="cls-1" d="M467.49,46.64c0-.39,0-.79,0-1.18L447.9,43.7c-.07,1-.1,1.95-.1,2.94a45.11,45.11,0,0,0,1.33,10.92l18.95-5.44a25.92,25.92,0,0,1-.59-5.48"/><path class="cls-1" d="M512.63,62.77a26.25,26.25,0,0,1-4.79,4.51L518.2,84.05a45.44,45.44,0,0,0,10.15-9.42Z"/><path class="cls-1" d="M518.4,46.64a25.5,25.5,0,0,1-.58,5.42l18.95,5.44a45.18,45.18,0,0,0,1.33-10.86c0-.93,0-1.85-.09-2.77l-19.63,1.86c0,.3,0,.61,0,.91"/><path class="cls-1" d="M473.58,63.15,457.9,75.07a45.48,45.48,0,0,0,10.24,9.28L478.5,67.59a26,26,0,0,1-4.92-4.44"/><path class="cls-1" d="M467.81,42.62a25.08,25.08,0,0,1,1.88-6.32l-17.63-8.78a44.88,44.88,0,0,0-3.9,13.34Z"/><path class="cls-1" d="M515.79,85.57,505.45,68.82a25.51,25.51,0,0,1-6,2.45l3.65,19.38a44.75,44.75,0,0,0,12.73-5.08"/><path class="cls-1" d="M517.06,54.8a25.27,25.27,0,0,1-2.75,5.68l15.74,11.86a45.08,45.08,0,0,0,6-12.09Z"/><path class="cls-1" d="M496.62,71.83a24.77,24.77,0,0,1-3.67.27,26.33,26.33,0,0,1-3-.17l-3.65,19.38a46.57,46.57,0,0,0,6.62.48,45.16,45.16,0,0,0,7.31-.59Z"/><path class="cls-1" d="M494.57,21.24a25.2,25.2,0,0,1,6.3,1.21L508,4.06a44.59,44.59,0,0,0-13.38-2.53Z"/><path class="cls-1" d="M487.18,71.44a24.88,24.88,0,0,1-6.25-2.36L470.56,85.85a44.9,44.9,0,0,0,13,5Z"/><path class="cls-1" d="M485.29,22.36a25.34,25.34,0,0,1,6.44-1.14V1.51A45.09,45.09,0,0,0,478.17,4Z"/><path class="cls-1" d="M471.86,60.88a25.5,25.5,0,0,1-3-6L449.91,60.3a45,45,0,0,0,6.26,12.51Z"/><path class="cls-1" d="M477.17,26.68a25.9,25.9,0,0,1,5.46-3.31L475.51,5a45.27,45.27,0,0,0-11.62,7.11Z"/><path class="cls-1" d="M20.76,30.43a3.76,3.76,0,0,0-1.42-3.13,17.63,17.63,0,0,0-5-2.32,47.27,47.27,0,0,1-5.83-2.32Q1.14,19,1.15,12.71A9,9,0,0,1,3,7.15,12,12,0,0,1,8.18,3.4a20.31,20.31,0,0,1,7.55-1.34,17.7,17.7,0,0,1,7.33,1.46,11.49,11.49,0,0,1,5,4.16,10.82,10.82,0,0,1,1.8,6.16H20.79a4.61,4.61,0,0,0-1.42-3.6A5.56,5.56,0,0,0,15.52,9a6.21,6.21,0,0,0-3.86,1.09,3.29,3.29,0,0,0-1.42,2.74,3.35,3.35,0,0,0,1.56,2.65,19.88,19.88,0,0,0,5.49,2.45,33.36,33.36,0,0,1,6.46,2.72q6.15,3.54,6.15,9.76a9.26,9.26,0,0,1-3.75,7.82Q22.4,41,15.86,41a20.26,20.26,0,0,1-8.34-1.66,12.53,12.53,0,0,1-5.63-4.53A11.81,11.81,0,0,1,0,28.21H9.17a5.85,5.85,0,0,0,1.58,4.5q1.58,1.44,5.11,1.44a5.87,5.87,0,0,0,3.58-1,3.2,3.2,0,0,0,1.32-2.74"/><path class="cls-1" d="M64.87,2.58V27.41a14.24,14.24,0,0,1-1.8,7.3,11.61,11.61,0,0,1-5.16,4.7A18.09,18.09,0,0,1,50,41Q43,41,39.06,37.43T35,27.59v-25h9.2V27.77Q44.34,34,50,34a5.61,5.61,0,0,0,4.3-1.56q1.45-1.56,1.46-5.08V2.58Z"/><path class="cls-1" d="M90.67,30.43a3.78,3.78,0,0,0-1.42-3.13,17.63,17.63,0,0,0-5-2.32,47.27,47.27,0,0,1-5.83-2.32Q71.05,19,71.05,12.71a9,9,0,0,1,1.84-5.56,12,12,0,0,1,5.2-3.75,20.27,20.27,0,0,1,7.55-1.34A17.73,17.73,0,0,1,93,3.52a11.61,11.61,0,0,1,5,4.16,10.82,10.82,0,0,1,1.8,6.16H90.69a4.58,4.58,0,0,0-1.42-3.6A5.51,5.51,0,0,0,85.43,9a6.26,6.26,0,0,0-3.87,1.09,3.32,3.32,0,0,0-1.42,2.74,3.37,3.37,0,0,0,1.57,2.65,19.88,19.88,0,0,0,5.49,2.45,33.63,33.63,0,0,1,6.46,2.72q6.15,3.54,6.15,9.76a9.26,9.26,0,0,1-3.75,7.82Q92.31,41,85.77,41a20.31,20.31,0,0,1-8.35-1.66,12.5,12.5,0,0,1-5.62-4.53,11.81,11.81,0,0,1-1.89-6.63h9.17a5.84,5.84,0,0,0,1.57,4.5q1.57,1.44,5.12,1.44a5.87,5.87,0,0,0,3.58-1,3.2,3.2,0,0,0,1.32-2.74"/><polygon class="cls-1" points="134.8 9.64 123.42 9.64 123.42 40.51 114.28 40.51 114.28 9.64 103.1 9.64 103.1 2.58 134.8 2.58 134.8 9.64"/><path class="cls-1" d="M157.61,33.42H145.08l-2.19,7.09h-9.77L147,2.58h8.6l14,37.93h-9.82Zm-10.35-7.06h8.16l-4.09-13.15Z"/><rect class="cls-1" x="173.56" y="2.58" width="9.12" height="37.92"/><polygon class="cls-1" points="221.24 40.51 212.15 40.51 198.7 16.91 198.7 40.51 189.56 40.51 189.56 2.58 198.7 2.58 212.12 26.18 212.12 2.58 221.24 2.58 221.24 40.51"/><path class="cls-1" d="M249.56,33.42H237l-2.19,7.09h-9.76L239,2.58h8.6l14,37.93h-9.82Zm-10.34-7.06h8.15l-4.09-13.15Z"/><path class="cls-1" d="M264.89,40.51V2.58h13.62q7.32,0,11.14,2.69a8.91,8.91,0,0,1,3.81,7.78,9,9,0,0,1-1.35,5,7.94,7.94,0,0,1-4,3.07,8,8,0,0,1,4.56,2.92,8.49,8.49,0,0,1,1.59,5.21q0,5.58-3.53,8.38t-10.46,2.85ZM274,18.39h4.77a6.76,6.76,0,0,0,4.27-1.09,3.92,3.92,0,0,0,1.28-3.17A4.1,4.1,0,0,0,283,10.67a7.42,7.42,0,0,0-4.45-1.05H274Zm0,6v9.09h6a5.65,5.65,0,0,0,3.8-1.13,4,4,0,0,0,1.33-3.19q0-4.74-4.71-4.77Z"/><polygon class="cls-1" points="308.97 33.47 324.88 33.47 324.88 40.51 299.83 40.51 299.83 2.58 308.97 2.58 308.97 33.47"/><polygon class="cls-1" points="352.79 24.41 338.42 24.41 338.42 33.47 355.4 33.47 355.4 40.51 329.27 40.51 329.27 2.58 355.45 2.58 355.45 9.64 338.42 9.64 338.42 17.64 352.79 17.64 352.79 24.41"/><path class="cls-1" d="M1.16,91.8V54.64h12A17.72,17.72,0,0,1,22,56.87a15.65,15.65,0,0,1,6.13,6.31,19,19,0,0,1,2.24,9.12V74a19.14,19.14,0,0,1-2.16,9.15,15.81,15.81,0,0,1-6.07,6.33,17.31,17.31,0,0,1-8.74,2.31Zm9-30.24V84.91h3.11a7,7,0,0,0,5.92-2.75c1.38-1.83,2.07-4.54,2.07-8.15V72.4q0-5.39-2.07-8.11a7.08,7.08,0,0,0-6-2.73Z"/><polygon class="cls-1" points="56.03 76.03 42.88 76.03 42.88 84.91 58.58 84.91 58.58 91.8 33.92 91.8 33.92 54.64 58.63 54.64 58.63 61.56 42.88 61.56 42.88 69.39 56.03 69.39 56.03 76.03"/><polygon class="cls-1" points="78.22 81.69 85.63 54.64 95.63 54.64 83.12 91.8 73.33 91.8 60.92 54.64 70.85 54.64 78.22 81.69"/><polygon class="cls-1" points="120.32 76.03 107.29 76.03 107.29 84.91 122.87 84.91 122.87 91.8 98.33 91.8 98.33 54.64 122.92 54.64 122.92 61.56 107.29 61.56 107.29 69.39 120.32 69.39 120.32 76.03"/><polygon class="cls-1" points="134.91 84.91 149.08 84.91 149.08 91.8 125.95 91.8 125.95 54.64 134.91 54.64 134.91 84.91"/><path class="cls-1" d="M182.41,74a21.85,21.85,0,0,1-2,9.63,14.86,14.86,0,0,1-5.73,6.44,15.89,15.89,0,0,1-8.46,2.26,16.23,16.23,0,0,1-8.42-2.18,14.94,14.94,0,0,1-5.73-6.24,21.32,21.32,0,0,1-2.15-9.32V72.48a22,22,0,0,1,2-9.64,14.93,14.93,0,0,1,5.74-6.44,16.1,16.1,0,0,1,8.51-2.27,15.86,15.86,0,0,1,8.42,2.25,15,15,0,0,1,5.76,6.39,21.38,21.38,0,0,1,2.08,9.5Zm-9.11-1.55c0-3.69-.62-6.5-1.85-8.41a5.93,5.93,0,0,0-5.3-2.87q-6.74,0-7.12,10.1L159,74q0,5.46,1.81,8.4a6.29,6.29,0,0,0,10.62.05q1.83-2.88,1.86-8.29Z"/><path class="cls-1" d="M194.92,79.19V91.8H186V54.64h14.82a17.27,17.27,0,0,1,7.55,1.57,11.86,11.86,0,0,1,5.07,4.46,12.24,12.24,0,0,1,1.8,6.58,10.77,10.77,0,0,1-3.89,8.69q-3.88,3.25-10.68,3.25Zm0-6.92h5.87a5.52,5.52,0,0,0,4-1.3,4.82,4.82,0,0,0,1.37-3.67,6,6,0,0,0-1.41-4.16,4.92,4.92,0,0,0-3.82-1.58h-6Z"/><polygon class="cls-1" points="230.26 54.64 238.56 80.49 246.82 54.64 258.62 54.64 258.62 91.8 249.63 91.8 249.63 83.12 250.5 65.36 241.52 91.8 235.6 91.8 226.59 65.33 227.46 83.12 227.46 91.8 218.5 91.8 218.5 54.64 230.26 54.64"/><polygon class="cls-1" points="284.75 76.03 271.56 76.03 271.56 84.91 287.31 84.91 287.31 91.8 262.61 91.8 262.61 54.64 287.36 54.64 287.36 61.56 271.56 61.56 271.56 69.39 284.75 69.39 284.75 76.03"/><polygon class="cls-1" points="321.35 91.8 312.45 91.8 299.28 68.68 299.28 91.8 290.32 91.8 290.32 54.64 299.28 54.64 312.42 77.76 312.42 54.64 321.35 54.64 321.35 91.8"/><polygon class="cls-1" points="355.45 61.56 344.3 61.56 344.3 91.8 335.34 91.8 335.34 61.56 324.39 61.56 324.39 54.64 355.45 54.64 355.45 61.56"/></g></g></svg>