<svg xmlns="http://www.w3.org/2000/svg" viewBox="0 0 822.53 854"><defs><style>.cls-1{fill:#6c757d;}</style></defs><title>Asset 5</title><g id="Layer_2" data-name="Layer 2"><g id="Layer_1-2" data-name="Layer 1"><path class="cls-1" d="M523.4,854a351.3,351.3,0,0,1-151.35-34.17c-46-21.75-87.19-52.81-122.51-92.32C214.48,688.29,187,642.69,167.8,592c-2.81-7.43-5.49-15.13-8-22.88l-1.11-3.48H0v-70H142.89l-.75-5.66a480.51,480.51,0,0,1,0-125.88l.75-5.66H0v-70H158.73l1.11-3.48c2.47-7.74,5.15-15.44,8-22.88,19.18-50.73,46.68-96.33,81.74-135.55C284.86,87,326.07,55.92,372.05,34.17A351.3,351.3,0,0,1,523.4,0c60.09,0,117.65,14.88,171.09,44.24,49.14,27,93.32,66.15,128,113.44L765.6,198.42C705.4,116.74,617.4,70,523.4,70c-62,0-122.14,20.46-173.76,59.18-50.22,37.66-89.73,90.35-114.27,152.38l-2.71,6.84H543.6v70H213.82l-.67,4.2a405.23,405.23,0,0,0,0,128.8l.67,4.2H543.6v70H232.66l2.71,6.84c24.54,62,64.05,114.72,114.26,152.38C401.26,763.54,461.35,784,523.4,784c94,0,182-46.74,242.2-128.42l56.93,40.74c-34.72,47.29-78.9,86.45-128,113.44C641.05,839.12,583.49,854,523.4,854Z"/></g></g></svg>