<?xml version="1.0" encoding="utf-8"?>
<!-- Generator: Adobe Illustrator 22.1.0, SVG Export Plug-In . SVG Version: 6.00 Build 0)  -->
<svg version="1.1" id="Layer_1" xmlns="http://www.w3.org/2000/svg" xmlns:xlink="http://www.w3.org/1999/xlink" x="0px" y="0px"
	 width="548.1px" height="548.1px" viewBox="0 0 548.1 548.1" style="enable-background:new 0 0 548.1 548.1;" xml:space="preserve"
	>
<style type="text/css">
	.st0{fill:#DC0879;}
	.st1{fill:#FFFFFF;}
</style>
<title>Asset 1</title>
<rect class="st0" width="548.1" height="548.1"/>
<path class="st1" d="M47.8,68.3c-0.9,0.5-3.7,1.6-8.3,3.2c-3.6,1.2-5.9,2-6.8,2.5V59.2c2.9-1.1,6.5-2.8,10.6-5.2
	c4.2-2.3,7.1-4.4,8.8-6.3h15.6v104.5h-20V68.3z"/>
<path class="st1" d="M113.7,123.4V77.4c0-3.9-0.5-7.1-1.5-9.7s-3-3.9-6.1-3.9c-3.3,0-5.4,1.3-6.3,3.8c-0.9,2.5-1.4,5.8-1.4,9.7v46.1
	c0,8.7,2.6,13,7.7,13C111.2,136.4,113.7,132.1,113.7,123.4 M85.2,145.8c-4.8-5.5-7.2-12.8-7.2-22V77c0-9.5,2.3-17,7-22.5
	c4.6-5.5,11.7-8.2,21-8.2c9.3,0,16.3,2.7,20.9,8.2c4.6,5.5,7,13,7,22.5v46.8c0,9.1-2.4,16.4-7.2,21.9c-4.8,5.5-11.7,8.3-20.6,8.3
	C97,154,90,151.3,85.2,145.8"/>
<path class="st1" d="M182.4,64.7h1.8c2.2,0,3.7-0.5,4.6-1.4c0.9-0.9,1.4-2.5,1.4-4.7c0-2.1-0.4-3.7-1.2-4.6
	c-0.8-0.9-2.2-1.4-4.3-1.4h-2.2V64.7z M175.2,87.6V47.6h9.2c2.1,0,3.9,0.2,5.4,0.5c1.5,0.3,2.8,0.9,3.9,1.7c1.1,0.8,2,1.9,2.5,3.3
	c0.6,1.4,0.8,3.1,0.8,5.1c0,2.5-0.4,4.6-1.1,6.1c-0.7,1.6-2,2.8-3.7,3.5l5.5,19.7h-7.3l-4.8-18.2h-3.2v18.2H175.2z"/>
<polygon class="st1" points="201.2,87.6 201.2,47.6 218,47.6 218,52.8 208.5,52.8 208.5,64.2 216,64.2 216,69.3 208.5,69.3 
	208.5,82.5 218.1,82.5 218.1,87.6 "/>
<path class="st1" d="M228.3,82.5h2.1c0.7,0,1.4-0.1,1.9-0.2c0.5-0.1,1-0.3,1.4-0.5c0.4-0.2,0.7-0.5,0.9-0.9c0.2-0.4,0.4-0.8,0.6-1.1
	c0.1-0.3,0.2-0.8,0.3-1.5c0.1-0.7,0.1-1.3,0.1-1.7c0-0.5,0-1.2,0-2.1V59.8c0-0.9,0-1.7-0.1-2.3c0-0.6-0.1-1.2-0.2-1.7
	c-0.1-0.6-0.3-1-0.5-1.4c-0.2-0.3-0.5-0.6-0.9-0.9c-0.4-0.3-0.9-0.5-1.4-0.6c-0.6-0.1-1.3-0.2-2.1-0.2h-2V82.5z M221,87.6V47.6h9.3
	c2.4,0,4.4,0.2,6,0.7c1.6,0.5,2.9,1.2,3.9,2.3c1,1,1.7,2.3,2.1,3.8c0.4,1.5,0.6,3.4,0.6,5.6v14.4c0,2.3-0.2,4.2-0.6,5.8
	c-0.4,1.6-1.1,2.9-2.1,4c-1,1.1-2.2,1.9-3.8,2.5c-1.6,0.5-3.5,0.8-5.9,0.8H221z"/>
<path class="st1" d="M257.9,88c-1.8,0-3.3-0.2-4.6-0.6c-1.3-0.4-2.4-1-3.2-1.8c-0.8-0.8-1.5-1.7-2-2.9c-0.5-1.2-0.9-2.5-1.1-3.8
	c-0.2-1.4-0.3-3-0.3-4.8V47.6h7.1v27.3c0,0.9,0,1.7,0.1,2.4c0,0.7,0.1,1.3,0.3,2.1c0.2,0.7,0.4,1.3,0.7,1.7c0.3,0.4,0.7,0.8,1.2,1.1
	c0.5,0.3,1.2,0.4,1.9,0.4c0.7,0,1.4-0.1,1.9-0.4c0.5-0.3,0.9-0.7,1.2-1.1c0.3-0.4,0.5-1,0.7-1.7c0.2-0.7,0.3-1.4,0.3-2.1
	c0-0.6,0.1-1.4,0.1-2.4V47.6h7.1v26.5c0,1.8-0.1,3.4-0.3,4.8c-0.2,1.4-0.6,2.6-1.1,3.8c-0.5,1.2-1.2,2.1-2,2.9s-1.9,1.3-3.2,1.8
	C261.2,87.8,259.7,88,257.9,88"/>
<path class="st1" d="M284.2,88c-1.7,0-3.2-0.2-4.6-0.6c-1.3-0.4-2.4-1-3.3-1.8c-0.9-0.8-1.6-1.7-2.1-2.9c-0.5-1.1-0.9-2.4-1.1-3.7
	c-0.2-1.3-0.3-2.8-0.3-4.4V60.7c0-1.7,0.1-3.3,0.3-4.6c0.2-1.3,0.6-2.6,1.1-3.7c0.5-1.1,1.2-2.1,2.1-2.8c0.9-0.7,1.9-1.3,3.3-1.7
	s2.8-0.6,4.6-0.6c2,0,3.7,0.3,5.1,0.8c1.4,0.5,2.5,1.3,3.3,2.3c0.8,1,1.4,2.2,1.8,3.6c0.4,1.4,0.6,3,0.6,4.8v3.4h-7v-3.4
	c0-2-0.1-3.3-0.3-4c-0.4-1.4-1.4-2.1-3.1-2.2h-0.4c-0.6,0-1.1,0.1-1.6,0.2c-0.5,0.1-0.8,0.4-1.1,0.7c-0.3,0.3-0.5,0.6-0.7,1
	c-0.2,0.4-0.3,0.8-0.4,1.4c-0.1,0.6-0.1,1.1-0.2,1.6c0,0.5,0,1.1,0,1.8v16.9c0,2.3,0.3,4,0.9,5c0.6,1,1.6,1.5,3.1,1.5
	c0.5,0,1-0.1,1.4-0.2c0.4-0.1,0.7-0.3,1-0.5c0.3-0.2,0.5-0.5,0.7-0.8c0.2-0.3,0.3-0.7,0.4-1c0.1-0.3,0.2-0.7,0.2-1.2
	c0-0.5,0.1-1,0.1-1.3c0-0.4,0-0.9,0-1.5v-3.6h7v3.3c0,1.5-0.1,2.8-0.3,4c-0.2,1.2-0.6,2.3-1.1,3.3c-0.5,1-1.2,1.9-2,2.6
	c-0.8,0.7-1.8,1.2-3.1,1.6C287.3,87.8,285.9,88,284.2,88"/>
<polygon class="st1" points="298.8,87.6 298.8,47.6 315.5,47.6 315.5,52.8 306.1,52.8 306.1,64.2 313.5,64.2 313.5,69.3 306.1,69.3 
	306.1,82.5 315.6,82.5 315.6,87.6 "/>
<path class="st1" d="M325.8,82.5h2.1c0.7,0,1.4-0.1,1.9-0.2c0.5-0.1,1-0.3,1.4-0.5c0.4-0.2,0.7-0.5,0.9-0.9c0.2-0.4,0.4-0.8,0.6-1.1
	c0.1-0.3,0.2-0.8,0.3-1.5c0.1-0.7,0.1-1.3,0.1-1.7c0-0.5,0-1.2,0-2.1V59.8c0-0.9,0-1.7-0.1-2.3c0-0.6-0.1-1.2-0.2-1.7
	c-0.1-0.6-0.3-1-0.5-1.4c-0.2-0.3-0.5-0.6-0.9-0.9c-0.4-0.3-0.9-0.5-1.4-0.6c-0.6-0.1-1.3-0.2-2.1-0.2h-2V82.5z M318.5,87.6V47.6
	h9.3c2.4,0,4.4,0.2,6,0.7c1.6,0.5,2.9,1.2,3.9,2.3c1,1,1.7,2.3,2.1,3.8c0.4,1.5,0.6,3.4,0.6,5.6v14.4c0,2.3-0.2,4.2-0.6,5.8
	c-0.4,1.6-1.1,2.9-2.1,4c-1,1.1-2.2,1.9-3.8,2.5c-1.6,0.5-3.5,0.8-5.9,0.8H318.5z"/>
<rect x="175.4" y="112.9" class="st1" width="7.2" height="39.9"/>
<polygon class="st1" points="187.4,152.8 187.4,112.9 192.4,112.9 202.2,135.5 202.2,112.9 208.2,112.9 208.2,152.8 203.5,152.8 
	193.6,129.1 193.6,152.8 "/>
<polygon class="st1" points="212.9,152.8 212.9,112.9 229.6,112.9 229.6,118 220.2,118 220.2,129.5 227.7,129.5 227.7,134.6 
	220.2,134.6 220.2,147.8 229.8,147.8 229.8,152.8 "/>
<path class="st1" d="M241.7,147.6c0.5,0.2,1.1,0.3,1.8,0.3s1.3-0.1,1.8-0.3c0.5-0.2,0.9-0.5,1.2-0.8c0.3-0.3,0.5-0.8,0.7-1.3
	c0.2-0.5,0.3-1.1,0.3-1.6c0.1-0.5,0.1-1.2,0.1-1.9v-18.1c0-1-0.1-1.8-0.1-2.4c-0.1-0.6-0.3-1.2-0.6-1.8c-0.3-0.6-0.7-1-1.3-1.3
	c-0.6-0.3-1.3-0.4-2.1-0.4c-0.9,0-1.6,0.1-2.2,0.4c-0.6,0.3-1,0.7-1.3,1.3c-0.3,0.6-0.5,1.2-0.6,1.8c-0.1,0.6-0.1,1.4-0.1,2.4v18.1
	c0,0.8,0,1.4,0.1,1.9c0.1,0.5,0.2,1.1,0.3,1.6c0.2,0.5,0.4,1,0.7,1.3C240.8,147.1,241.2,147.4,241.7,147.6 M252,160.8
	c-1.2-0.6-2.5-1.6-4-3c-1.5-1.5-2.7-3-3.7-4.5c-0.2,0-0.5,0-0.8,0c-4.1,0-7.1-1.1-8.8-3.3c-1.8-2.2-2.7-5.5-2.7-9.8v-14.7
	c0-2.1,0.2-4,0.6-5.5c0.4-1.6,1-2.9,1.9-4c0.9-1.1,2.1-2,3.6-2.6c1.5-0.6,3.3-0.9,5.4-0.9c4.1,0,7,1.1,8.8,3.3
	c1.8,2.2,2.7,5.4,2.7,9.7v14.7c0,6.2-1.8,10.2-5.5,12c1.6,1.9,2.9,3.1,3.9,3.8L252,160.8z"/>
<path class="st1" d="M270,153.3c-1.8,0-3.3-0.2-4.6-0.6c-1.3-0.4-2.4-1-3.2-1.8c-0.8-0.8-1.5-1.7-2-2.9c-0.5-1.2-0.9-2.5-1.1-3.8
	c-0.2-1.4-0.3-3-0.3-4.8v-26.5h7.1v27.3c0,0.9,0,1.7,0.1,2.4c0.1,0.7,0.2,1.3,0.3,2.1c0.2,0.7,0.4,1.3,0.7,1.7
	c0.3,0.4,0.7,0.8,1.2,1.1c0.5,0.3,1.2,0.4,1.9,0.4c0.7,0,1.4-0.1,1.9-0.4c0.5-0.3,0.9-0.7,1.2-1.1c0.3-0.4,0.5-1,0.7-1.7
	c0.2-0.7,0.3-1.4,0.3-2.1c0-0.6,0.1-1.5,0.1-2.4v-27.3h7.1v26.5c0,1.8-0.1,3.4-0.3,4.8c-0.2,1.4-0.6,2.6-1.1,3.8
	c-0.5,1.2-1.2,2.1-2,2.9c-0.8,0.8-1.9,1.3-3.2,1.8C273.3,153.1,271.8,153.3,270,153.3"/>
<path class="st1" d="M292.8,138.8h5.3l-2.7-16.4L292.8,138.8z M283.5,152.8l8.1-39.9h7.6l8.1,39.9h-6.8l-1.6-9.3H292l-1.6,9.3H283.5
	z"/>
<polygon class="st1" points="310,152.8 310,112.9 317.2,112.9 317.2,147.8 326.8,147.8 326.8,152.8 "/>
<rect x="329.6" y="112.9" class="st1" width="7.2" height="39.9"/>
<polygon class="st1" points="345.5,152.8 345.5,118.3 338.8,118.3 338.8,112.9 359.3,112.9 359.3,118.3 352.8,118.3 352.8,152.8 "/>
<rect x="361.4" y="112.9" class="st1" width="7.2" height="39.9"/>
<polygon class="st1" points="373.4,152.8 373.4,112.9 390.2,112.9 390.2,118 380.7,118 380.7,129.5 388.2,129.5 388.2,134.6 
	380.7,134.6 380.7,147.8 390.3,147.8 390.3,152.8 "/>
<path class="st1" d="M403.3,153.3c-7,0-10.7-4.1-11.1-12.2l6.3-1.3c0.2,5.3,1.7,7.9,4.5,7.9c1.1,0,1.9-0.3,2.5-1
	c0.5-0.7,0.8-1.6,0.8-2.7c0-1.1-0.2-2.1-0.6-3.1c-0.4-0.9-0.9-1.7-1.4-2.3c-0.5-0.6-1.3-1.3-2.3-2.2l-5.3-4.6
	c-1.5-1.3-2.7-2.8-3.4-4.2c-0.8-1.5-1.1-3.3-1.1-5.5c0-3.1,0.9-5.5,2.7-7.2c1.8-1.7,4.3-2.6,7.5-2.6c1.5,0,2.8,0.2,3.9,0.5
	c1.1,0.4,2.1,0.9,2.8,1.5c0.7,0.6,1.3,1.4,1.8,2.4c0.5,0.9,0.9,1.9,1.1,2.9c0.2,1,0.4,2.2,0.5,3.4l-6.2,1.2c0-0.8-0.1-1.5-0.2-2.1
	c-0.1-0.6-0.2-1.2-0.4-1.8c-0.2-0.6-0.4-1.1-0.7-1.5c-0.3-0.4-0.7-0.7-1.1-0.9c-0.5-0.2-1-0.3-1.6-0.3c-1.1,0.1-1.9,0.4-2.5,1.1
	c-0.6,0.6-0.9,1.5-0.9,2.6c0,1.3,0.3,2.3,0.8,3.2c0.5,0.8,1.3,1.7,2.4,2.7l5.2,4.5c0.9,0.8,1.6,1.6,2.3,2.3c0.6,0.7,1.3,1.6,1.8,2.5
	c0.6,0.9,1,2,1.3,3.1c0.3,1.1,0.5,2.3,0.5,3.6c0,2.9-0.9,5.3-2.8,7.1C408.7,152.4,406.2,153.3,403.3,153.3"/>
<path class="st1" d="M324.9,359.7H224c-0.6,0-1.1,0.6-1.1,1.2v30.3c0,0.7,0.5,1.2,1.1,1.2h100.9c0.6,0,1.1-0.5,1.1-1.2v-30.3
	C326,360.2,325.5,359.7,324.9,359.7"/>
<path class="st1" d="M324.9,295.1H224c-0.6,0-1.1,0.6-1.1,1.2v30.3c0,0.7,0.5,1.2,1.1,1.2h100.9c0.6,0,1.1-0.5,1.1-1.2v-30.3
	C326,295.7,325.5,295.1,324.9,295.1"/>
<path class="st1" d="M323.5,249.3L275,200.8c-0.3-0.3-0.9-0.3-1.2,0l-48.4,48.5c-0.5,0.5-0.2,1.4,0.6,1.4h96.9
	C323.6,250.7,324,249.8,323.5,249.3"/>
<path class="st1" d="M369,392.8l48.5-48.5c0.3-0.3,0.3-0.9,0-1.2L369,294.7c-0.5-0.5-1.4-0.2-1.4,0.6v96.9
	C367.5,393,368.5,393.4,369,392.8"/>
<path class="st1" d="M225.4,438.3l48.5,48.5c0.3,0.3,0.9,0.3,1.2,0l48.5-48.5c0.5-0.5,0.2-1.4-0.6-1.4H226
	C225.2,436.9,224.9,437.8,225.4,438.3"/>
<path class="st1" d="M179.9,294.7l-48.5,48.5c-0.3,0.3-0.3,0.9,0,1.2l48.5,48.5c0.5,0.5,1.4,0.2,1.4-0.6v-96.9
	C181.3,294.6,180.4,294.2,179.9,294.7"/>
</svg>
