<?xml version="1.0" encoding="utf-8"?>
<!-- Generator: Adobe Illustrator 22.1.0, SVG Export Plug-In . SVG Version: 6.00 Build 0)  -->
<svg version="1.1" id="Layer_1" xmlns="http://www.w3.org/2000/svg" xmlns:xlink="http://www.w3.org/1999/xlink" x="0px" y="0px"
	 width="1080.9px" height="205.8px" viewBox="0 0 1080.9 205.8" style="enable-background:new 0 0 1080.9 205.8;"
	 xml:space="preserve">
<style type="text/css">
	.st0{fill:#FFFFFF;}
</style>
<g>
	<g>
		<path class="st0" d="M438.1,45.4c15.5,15.7,23.2,35.1,23.2,58.4s-7.7,42.7-23.2,58.4s-35,23.5-58.7,23.5c-23.8,0-43.5-7.8-59-23.5
			s-23.2-35.1-23.2-58.4s7.7-42.7,23.2-58.4s35.1-23.5,59-23.5C403,21.9,422.6,29.7,438.1,45.4z M407.4,71.2c-7.1-8.6-16.5-13-28-13
			s-20.9,4.4-28.1,13.1s-10.9,19.6-10.9,32.5s3.6,23.7,10.9,32.5c7.2,8.7,16.6,13.1,28.1,13.1s20.8-4.3,28-13
			c7.1-8.6,10.7-19.5,10.7-32.6S414.5,79.8,407.4,71.2z"/>
	</g>
	<g>
		<path class="st0" d="M528.3,25.5l3.3,21.4c11.9-16.7,28.1-25,48.5-25c17.1,0,31,6.9,41.7,20.6c9.3,12.1,14,31.6,14,58.4v81.3
			h-42.3V103c0-16.1-1.6-27.3-4.8-33.7c-3.8-7.3-10.7-11-20.8-11c-6.4,0-12.7,1.8-18.9,5.4c-6.3,3.6-11.3,8.4-15,14.6v103.9h-42.3
			V25.5H528.3z"/>
	</g>
	<g>
		<path class="st0" d="M800.8,166.3c-14.5,12.9-33.3,19.4-56.3,19.4c-23.2,0-42.3-7.6-57.2-22.8C672.5,147.7,665,128,665,103.8
			c0-23,7.6-42.4,22.8-58.2s34.5-23.7,57.9-23.7c21,0,39.4,6.5,55.1,19.4l-21.7,29.5c-8.9-8.3-19.1-12.5-30.4-12.5
			c-11.7,0-21.4,4.4-29,13.3c-7.6,8.8-11.5,19.6-11.5,32.3c0,13.1,3.8,24,11.5,32.6c7.6,8.6,17.1,13,28.4,13
			c11.9,0,21.9-4,30.1-11.9L800.8,166.3z"/>
	</g>
	<g>
		<path class="st0" d="M867.8,46.3c9.9-16.3,22.1-24.4,36.6-24.4c6.9,0,13.7,1.2,20.3,3.6l-10.1,36.9c-4.4-2.4-9.3-3.6-14.9-3.6
			c-12.7,0-22.5,5.8-29.5,17.3v106h-42.3V25.5h36.6L867.8,46.3z"/>
	</g>
	<g>
		<path class="st0" d="M1034.3,182.1l-3.3-13.4c-9.1,11.3-23.3,17-42.6,17c-15.5,0-28.7-4.5-39.8-13.4c-11-8.9-16.5-21-16.5-36.3
			c0-12.1,3.6-22.1,10.7-30.1c7.1-7.9,15.5-13.4,25.2-16.2c9.6-2.9,20.4-4.3,32.3-4.3c8.5,0,18,1.1,28.3,3.3v-2.4
			c0-21-10.3-31.6-31-31.6c-14.1,0-29.9,4.6-47.4,13.7L939,38c21.8-10.7,44.3-16.1,67.3-16.1c21.2,0,37.3,5.8,48.2,17.4
			s16.4,27.8,16.4,48.7v94.1H1034.3z M1028.6,113.9c-8.1-1.8-15.3-2.7-21.4-2.7c-9.1,0-17,1.9-23.7,5.8s-10,10-10,18.3
			c0,6.6,2.3,11.7,7,15.3c4.7,3.7,10.3,5.5,16.8,5.5c10.9,0,21.3-4.5,31.3-13.4V113.9z"/>
	</g>
</g>
<g>
	<path class="st0" d="M200.4,86.8c4.9,9.6,7.6,20.5,7.6,32c0,39.2-31.8,71-71,71c-20.7,0-39.4-8.9-52.4-23.1
		c11.7,23.1,35.7,39,63.4,39c39.2,0,71-31.8,71-71C219,116.3,212,99.5,200.4,86.8z"/>
	<path class="st0" d="M193.2,80c-1.1-3.1-2.4-6.2-3.8-9.1c-2.9-5.8-6.6-11.2-11-15.9c1.5,2.9,2.8,6,3.8,9.1c1.1,3.2,2,6.5,2.6,9.9
		c0.8,4.2,1.2,8.5,1.2,12.9c0,39.2-31.8,71-71,71c-13.5,0-26.1-3.8-36.8-10.3c-2.9-1.8-5.8-3.8-8.4-6c-2.5-2.1-4.9-4.4-7.2-6.8
		c2.9,5.8,6.6,11.2,11,15.9c2.2,2.4,4.6,4.7,7.2,6.8c12.3,10.2,28,16.3,45.2,16.3c39.2,0,71-31.8,71-71
		C197,94.9,195.7,87.2,193.2,80z"/>
	<path class="st0" d="M175,69.1c-0.1-3.7-0.5-7.4-1.2-11c-0.6-3.4-1.5-6.7-2.6-10c-1.1-3.1-2.3-6.2-3.8-9.1
		c-8.7-17.2-24.3-30.8-44.3-36.4C85.3-7.9,46.2,14.2,35.6,51.9c-6.8,24.5,0,49.5,16,67c2.2,2.4,4.6,4.7,7.2,6.8
		c2.6,2.2,5.4,4.2,8.4,6c3.1,1.9,6.4,3.6,9.9,5c2.5,1,5.2,2,7.9,2.7c37.8,10.5,76.9-11.5,87.5-49.3C174.4,83.1,175.2,76,175,69.1z"
		/>
</g>
</svg>
