<?xml version="1.0" encoding="utf-8"?>
<!-- Generator: Adobe Illustrator 22.1.0, SVG Export Plug-In . SVG Version: 6.00 Build 0)  -->
<svg version="1.1" id="Layer_1" xmlns="http://www.w3.org/2000/svg" xmlns:xlink="http://www.w3.org/1999/xlink" x="0px" y="0px"
	 viewBox="0 0 100.4 21" style="enable-background:new 0 0 100.4 21;" xml:space="preserve">
<style type="text/css">
	.st0{fill:#FFFFFF;}
</style>
<title>Asset 1</title>
<g id="Layer_2_1_">
	<g id="Layer_1-2">
		<path class="st0" d="M43.7,9.6c0.1,1.2-0.3,2.3-1,3.3c-0.8,0.8-1.9,1.2-3,1.1c-1.1,0.1-2.2-0.3-3-1.1c-0.8-0.9-1.2-2.1-1.2-3.3
			c-0.1-1.2,0.3-2.4,1.1-3.3c0.8-0.8,1.9-1.2,3-1.1c1.1-0.1,2.2,0.3,3,1.1C43.3,7.2,43.7,8.4,43.7,9.6z M37.4,9.6
			c0,0.8,0.2,1.5,0.6,2.2c0.4,0.5,1,0.8,1.6,0.7c1.5,0,2.2-1,2.2-2.9S41,6.7,39.6,6.7c-0.6,0-1.2,0.2-1.6,0.7
			C37.6,8,37.4,8.8,37.4,9.6z"/>
		<path class="st0" d="M48.9,14c-0.7,0-1.4-0.3-1.8-0.8H47c0.1,0.6,0.1,0.9,0.1,1v2.7h-1.8V7.3h1.5L47,8.1h0.1c0.4-0.6,1.1-1,1.9-1
			c0.7,0,1.4,0.3,1.8,0.9c0.5,0.7,0.7,1.6,0.7,2.5c0,0.6-0.1,1.2-0.3,1.8c-0.2,0.5-0.5,0.9-0.9,1.2C49.8,13.8,49.4,14,48.9,14z
			 M48.4,8.6c-0.4,0-0.8,0.1-1,0.4C47.1,9.4,47,9.9,47,10.4v0.2c0,0.5,0.1,1,0.3,1.5c0.2,0.3,0.6,0.5,1,0.4c0.8,0,1.2-0.7,1.2-2
			c0-0.5-0.1-1-0.3-1.4C49.1,8.8,48.7,8.6,48.4,8.6z"/>
		<path class="st0" d="M55.8,14c-0.9,0.1-1.8-0.3-2.5-0.9c-0.6-0.7-0.9-1.6-0.9-2.5c-0.1-0.9,0.2-1.8,0.8-2.6
			c0.6-0.6,1.4-0.9,2.3-0.9c0.8-0.1,1.6,0.2,2.2,0.8c0.5,0.6,0.8,1.4,0.8,2.2V11h-4.2c0,0.4,0.2,0.9,0.5,1.2
			c0.3,0.3,0.8,0.5,1.2,0.4c0.4,0,0.8,0,1.1-0.1c0.4-0.1,0.7-0.2,1.1-0.4v1.4c-0.3,0.2-0.7,0.3-1,0.4C56.7,13.9,56.3,14,55.8,14z
			 M55.6,8.4c-0.3,0-0.7,0.1-0.9,0.4c-0.2,0.3-0.4,0.6-0.4,1h2.5c0-0.4-0.1-0.7-0.3-1C56.3,8.6,55.9,8.4,55.6,8.4z"/>
		<path class="st0" d="M66,13.8h-1.8V10c0-0.3-0.1-0.7-0.2-1c-0.2-0.3-0.5-0.4-0.8-0.4c-0.4,0-0.8,0.2-1.1,0.5
			c-0.3,0.5-0.4,1.1-0.3,1.7v3.1H60V7.3h1.4l0.2,0.8h0.1c0.2-0.3,0.5-0.6,0.8-0.7c0.4-0.2,0.8-0.2,1.2-0.2c0.6,0,1.3,0.2,1.7,0.6
			c0.4,0.5,0.6,1.1,0.5,1.8V13.8z"/>
		<path class="st0" d="M71.1,5.3h2.7c0.9-0.1,1.8,0.1,2.7,0.5c0.6,0.4,0.9,1,0.8,1.7c0,0.4-0.1,0.9-0.4,1.3c-0.2,0.3-0.6,0.5-1,0.6
			v0.1c0.5,0.1,0.9,0.3,1.2,0.7c0.3,0.4,0.4,0.9,0.4,1.3c0,0.7-0.3,1.4-0.8,1.8c-0.7,0.5-1.5,0.7-2.3,0.6h-3.2V5.3z M72.9,8.7h1
			c0.4,0,0.7-0.1,1.1-0.2c0.2-0.2,0.4-0.5,0.3-0.8c0-0.3-0.1-0.5-0.3-0.7c-0.4-0.2-0.7-0.2-1.1-0.2h-1L72.9,8.7z M72.9,10.1v2.2h1.2
			c0.4,0,0.8-0.1,1.1-0.3c0.3-0.2,0.4-0.5,0.4-0.9c0-0.7-0.5-1.1-1.5-1.1H72.9z"/>
		<path class="st0" d="M85,10.6c0.1,0.9-0.2,1.8-0.8,2.5c-0.6,0.6-1.5,0.9-2.3,0.9c-0.6,0-1.2-0.1-1.7-0.4c-0.5-0.3-0.9-0.7-1.1-1.2
			c-0.3-0.6-0.4-1.2-0.4-1.8c-0.1-0.9,0.2-1.8,0.8-2.5c0.6-0.6,1.5-0.9,2.3-0.9c0.6,0,1.2,0.1,1.7,0.4c0.5,0.3,0.9,0.7,1.1,1.2
			C84.9,9.3,85,9.9,85,10.6z M80.5,10.6c0,0.5,0.1,1,0.3,1.4c0.2,0.3,0.6,0.5,1,0.5c0.4,0,0.8-0.2,1-0.5c0.2-0.5,0.3-1,0.3-1.5
			c0-0.5-0.1-1-0.3-1.5c-0.5-0.6-1.3-0.7-1.9-0.2c-0.1,0.1-0.1,0.1-0.2,0.2C80.5,9.5,80.4,10,80.5,10.6z"/>
		<path class="st0" d="M92.4,10.6c0.1,0.9-0.3,1.8-0.8,2.5c-0.6,0.6-1.5,1-2.3,0.9c-0.6,0-1.2-0.1-1.7-0.4c-0.5-0.3-0.9-0.7-1.1-1.2
			c-0.3-0.6-0.4-1.2-0.4-1.8c-0.1-0.9,0.2-1.8,0.8-2.5c0.6-0.6,1.5-0.9,2.4-0.9c0.6,0,1.2,0.1,1.7,0.4c0.5,0.3,0.8,0.7,1.1,1.2
			C92.3,9.3,92.4,9.9,92.4,10.6z M87.9,10.6c0,0.5,0.1,1,0.3,1.4c0.2,0.3,0.6,0.5,1,0.5c0.4,0,0.8-0.2,1-0.5c0.2-0.5,0.3-1,0.3-1.5
			c0-0.5-0.1-1-0.3-1.5c-0.5-0.6-1.3-0.7-1.9-0.2c-0.1,0.1-0.1,0.1-0.2,0.2C87.9,9.5,87.8,10,87.9,10.6z"/>
		<path class="st0" d="M95.6,10.3l0.8-1l1.8-2h2l-2.6,2.8l2.8,3.7h-2.1l-1.9-2.7l-0.8,0.6v2h-1.8V4.7h1.8v4.1L95.6,10.3L95.6,10.3z"
			/>
		<path class="st0" d="M27.8,1.9l-1.3-0.7c-3.2-1.7-7.1-1.7-10.3,0l-1.8,0.9l-1.8-0.9c-3.2-1.7-7.1-1.7-10.3,0L1.1,1.9
			C0.4,2.3,0,3,0,3.7V18c0,1.1,0.9,2.1,2,2.1c0.3,0,0.7-0.1,1-0.2c2.9-1.5,6.3-1.5,9.1,0l2.1,1.1h0.1l0,0h0.4l0,0h0.1l2-1.1
			c2.9-1.5,6.2-1.5,9.1,0c1,0.5,2.2,0.1,2.8-0.9c0.2-0.3,0.2-0.6,0.2-1V3.7C28.8,3,28.4,2.3,27.8,1.9z M7.6,17.5
			c-1.8,0-3.6,0.4-5.2,1.2c-0.2,0.1-0.5,0.1-0.7,0c-0.3-0.1-0.4-0.4-0.4-0.7V3.7c0-0.3,0.2-0.5,0.4-0.7L3,2.4c2.9-1.5,6.3-1.5,9.1,0
			l1.7,0.9v16l-1.1-0.6C11.1,17.9,9.3,17.5,7.6,17.5z M27.6,18c0,0.3-0.1,0.5-0.4,0.6c-0.2,0.1-0.5,0.1-0.7,0
			c-3.2-1.7-7.1-1.7-10.3,0l-1.1,0.6v-16l1.7-0.9c2.9-1.5,6.2-1.5,9.1,0L27.2,3c0.3,0.1,0.4,0.4,0.4,0.7L27.6,18z"/>
	</g>
</g>
</svg>
