<svg xmlns="http://www.w3.org/2000/svg" viewBox="0 0 83.51 71.78"><defs><style>.cls-1{fill:#e1061f;}.cls-2{fill:none;stroke:#e1061f;stroke-linecap:round;stroke-miterlimit:10;stroke-width:1.23px;}</style></defs><title>Asset 2</title><g id="Layer_2" data-name="Layer 2"><g id="Layer_1-2" data-name="Layer 1"><path class="cls-1" d="M2.86,4a15.69,15.69,0,0,1-1.57.61C.61,4.85.18,5,0,5.08V2.27a16,16,0,0,0,2-1A6.81,6.81,0,0,0,3.69.1h3V19.89H2.86Z"/><polygon class="cls-1" points="14.94 7.65 14.94 0.09 15.89 0.09 17.74 4.37 17.74 0.09 18.88 0.09 18.88 7.65 17.98 7.65 16.11 3.15 16.11 7.65 14.94 7.65"/><path class="cls-1" d="M21.54,6.66a.9.9,0,0,0,.34.06.91.91,0,0,0,.35-.06.61.61,0,0,0,.22-.15.64.64,0,0,0,.13-.26,1.08,1.08,0,0,0,.07-.31c0-.1,0-.22,0-.37V2.14a3.17,3.17,0,0,0,0-.46,1.35,1.35,0,0,0-.11-.34.47.47,0,0,0-.24-.24A.83.83,0,0,0,21.88,1a.79.79,0,0,0-.4.08.47.47,0,0,0-.24.24,1,1,0,0,0-.11.34,3,3,0,0,0,0,.46V5.57a3.57,3.57,0,0,0,0,.37,1.55,1.55,0,0,0,.06.31,1,1,0,0,0,.13.26.66.66,0,0,0,.23.15m.34,1.08a2,2,0,0,1-1.67-.63,2.92,2.92,0,0,1-.51-1.86V2.46a4.1,4.1,0,0,1,.12-1,1.93,1.93,0,0,1,.37-.76,1.47,1.47,0,0,1,.67-.49,2.88,2.88,0,0,1,1-.16,2.07,2.07,0,0,1,1.68.62,2.86,2.86,0,0,1,.5,1.84V5.25a4,4,0,0,1-.11,1,2.17,2.17,0,0,1-.37.78,1.57,1.57,0,0,1-.68.5,2.79,2.79,0,0,1-1,.17"/><path class="cls-1" d="M16.32,15.66h.44a1,1,0,0,0,.79-.23,1.25,1.25,0,0,0,.21-.84,3.82,3.82,0,0,0,0-.55.93.93,0,0,0-.13-.35.55.55,0,0,0-.3-.21,1.88,1.88,0,0,0-.53-.06h-.45ZM14.94,20V12.45h2.18c1.29,0,1.93.71,1.93,2.15a2,2,0,0,1-.53,1.54,2.09,2.09,0,0,1-1.49.49h-.71V20Z"/><path class="cls-1" d="M21.45,19a.91.91,0,0,0,.35.06.9.9,0,0,0,.34-.06.61.61,0,0,0,.22-.15.8.8,0,0,0,.14-.26,1.55,1.55,0,0,0,.06-.31,3.57,3.57,0,0,0,0-.37V14.5a3,3,0,0,0,0-.46,1.35,1.35,0,0,0-.11-.34.47.47,0,0,0-.24-.24.79.79,0,0,0-.4-.08.83.83,0,0,0-.41.08.47.47,0,0,0-.24.24A1.35,1.35,0,0,0,21,14c0,.13,0,.28,0,.46v3.43c0,.15,0,.27,0,.37a1.08,1.08,0,0,0,.07.31.64.64,0,0,0,.13.26.61.61,0,0,0,.22.15m.35,1.08a2,2,0,0,1-1.68-.63,2.92,2.92,0,0,1-.5-1.86V14.82a4.13,4.13,0,0,1,.11-1.05A2.07,2.07,0,0,1,20.1,13a1.52,1.52,0,0,1,.67-.49,2.9,2.9,0,0,1,1-.16,2,2,0,0,1,1.67.63A2.81,2.81,0,0,1,24,14.82v2.79a4,4,0,0,1-.12,1,2.17,2.17,0,0,1-.37.78,1.52,1.52,0,0,1-.68.5,2.57,2.57,0,0,1-1,.17"/><polygon class="cls-1" points="26.12 20.01 24.59 12.45 25.81 12.45 26.8 17.71 27.74 12.45 28.99 12.45 27.45 20.01 26.12 20.01"/><polygon class="cls-1" points="29.72 20.01 29.72 12.45 32.89 12.45 32.89 13.42 31.1 13.42 31.1 15.59 32.52 15.59 32.52 16.56 31.1 16.56 31.1 19.06 32.91 19.06 32.91 20.01 29.72 20.01"/><path class="cls-1" d="M35,15.68h.33a1.21,1.21,0,0,0,.87-.26,1.26,1.26,0,0,0,.26-.89,1.31,1.31,0,0,0-.23-.87,1,1,0,0,0-.82-.26H35ZM33.66,20V12.45h1.73a4.44,4.44,0,0,1,1,.1,2,2,0,0,1,.74.32,1.44,1.44,0,0,1,.48.63,2.67,2.67,0,0,1,.16,1,2.63,2.63,0,0,1-.22,1.17,1.25,1.25,0,0,1-.7.65l1,3.73H36.55l-.9-3.45H35V20Z"/><polygon class="cls-1" points="39.53 20.01 39.53 13.46 38.27 13.46 38.27 12.45 42.14 12.45 42.14 13.46 40.91 13.46 40.91 20.01 39.53 20.01"/><polygon class="cls-1" points="43.76 20.01 43.76 17.13 42.21 12.45 43.5 12.45 44.44 15.46 45.33 12.45 46.6 12.45 45.07 17.13 45.07 20.01 43.76 20.01"/><path class="cls-1" d="M73.76,40.58a2.89,2.89,0,1,1,2.88,2.88,2.88,2.88,0,0,1-2.88-2.88"/><path class="cls-1" d="M80,44.58a3.84,3.84,0,0,1,3.5,3.83v8a1.12,1.12,0,1,1-2.24,0V49.54c0-.26-.08-.61-.55-.61-.32,0-.39.35-.4.57V70.1a1.61,1.61,0,1,1-3.22,0V58.23a.44.44,0,0,0-.46-.47h0a.44.44,0,0,0-.46.47V70.1a1.61,1.61,0,0,1-3.22,0V49.5c0-.22-.08-.57-.4-.57-.48,0-.55.35-.55.61v6.87a1.12,1.12,0,1,1-2.23,0v-8a3.83,3.83,0,0,1,3.49-3.83l.22,0h6.3l.22,0"/><path class="cls-1" d="M56.59,42.09a2.74,2.74,0,1,0-2.73,2.74,2.73,2.73,0,0,0,2.73-2.74"/><path class="cls-1" d="M48.35,48.29l-2.27,7.39s-.41,1.36.74,1.7,1.5-1,1.5-1l1.83-6.17s.1-.48.45-.37.23.61.23.61L47.64,62h3v8.28a1.43,1.43,0,1,0,2.85,0V62h.81v8.28a1.43,1.43,0,1,0,2.85,0V62h3L56.89,50.46s-.14-.51.22-.61.46.37.46.37l1.83,6.17s.35,1.33,1.49,1,.75-1.7.75-1.7l-2.28-7.39s-.81-2.14-2.61-2.14H51c-1.8,0-2.61,2.14-2.61,2.14"/><path class="cls-1" d="M40.22,42.09a2.74,2.74,0,1,0-2.73,2.74,2.73,2.73,0,0,0,2.73-2.74"/><path class="cls-1" d="M32,48.29l-2.27,7.39s-.41,1.36.74,1.7,1.49-1,1.49-1l1.84-6.17s.09-.48.45-.37.22.61.22.61L31.27,62h3v8.28a1.43,1.43,0,1,0,2.85,0V62h.81v8.28a1.43,1.43,0,1,0,2.85,0V62h3L40.52,50.46s-.14-.51.22-.61.46.37.46.37L43,56.39s.34,1.33,1.49,1,.74-1.7.74-1.7L43,48.29s-.81-2.14-2.61-2.14H34.59c-1.8,0-2.61,2.14-2.61,2.14"/><path class="cls-1" d="M65.77,57.39a2.28,2.28,0,1,0-2.27-2.27,2.27,2.27,0,0,0,2.27,2.27"/><path class="cls-1" d="M60.32,64.46a.78.78,0,0,0,.33,1.08.76.76,0,0,0,1-.32l1.24-3.95s.21-.26.21,0v9.29h0a1.17,1.17,0,1,0,2.33,0V66.9s-.06-.51.35-.51.36.51.36.51v3.67a1.17,1.17,0,1,0,2.34,0V61.28c0-.27.14-.07.14-.07l1,2.7a6.62,6.62,0,0,0,.55,1.26.87.87,0,0,0,1-1.3h0c0-.09-1.45-3.57-1.61-4.06-.52-1.5-1.45-1.48-2.35-1.51s-1.44,0-1.44,0-.57,0-1.76,0-1.56.65-2.87,4c-.18.49-.81,2-.82,2.15Z"/><path class="cls-1" d="M15.81,40.58a2.89,2.89,0,1,0-2.89,2.88,2.89,2.89,0,0,0,2.89-2.88"/><path class="cls-1" d="M9.55,44.58a3.84,3.84,0,0,0-3.5,3.83v8a1.12,1.12,0,0,0,2.24,0V49.54c0-.26.08-.61.55-.61.32,0,.39.35.4.57V70.1a1.61,1.61,0,0,0,3.22,0V58.23a.44.44,0,0,1,.46-.47h0a.44.44,0,0,1,.46.47V70.1a1.61,1.61,0,0,0,3.22,0V49.5c0-.22.08-.57.4-.57.48,0,.55.35.55.61v6.87a1.12,1.12,0,1,0,2.23,0v-8a3.83,3.83,0,0,0-3.49-3.83l-.21,0H9.77l-.22,0"/><line class="cls-2" x1="7.03" y1="57.58" x2="4.47" y2="71.16"/><path class="cls-1" d="M21.16,56.2a.85.85,0,0,0-.71-.39.83.83,0,0,0-.83.83,1.37,1.37,0,0,0,.09.36L22,61.15a1.5,1.5,0,0,1,.14.55v8.91h0a1.12,1.12,0,1,0,2.24,0V67.1s-.06-.5.34-.5.34.5.34.5v3.51a1.13,1.13,0,1,0,2.25,0V61.7a1.59,1.59,0,0,1,.13-.55l2.12-3.83a3.75,3.75,0,0,0,.26-.68.83.83,0,0,0-1.53-.44h0c-.06,0-1.12,1.94-1.48,2.29a.91.91,0,0,1-.7.34H23.35a.93.93,0,0,1-.71-.34c-.35-.35-1.41-2.24-1.48-2.29Z"/><path class="cls-1" d="M24.72,57.39a2.28,2.28,0,1,0-2.27-2.27,2.28,2.28,0,0,0,2.27,2.27"/><polygon class="cls-1" points="24.73 60.59 27.3 62.46 28.52 66.96 24.73 66.96 20.93 66.96 22.16 62.46 24.73 60.59"/></g></g></svg>