<svg xmlns="http://www.w3.org/2000/svg" viewBox="0 0 96.78 97.04"><defs><style>.cls-1{fill:#e2061f;}.cls-2{fill:#fff;}.cls-3{fill:none;stroke:#fff;stroke-linecap:round;stroke-miterlimit:10;stroke-width:1.15px;}</style></defs><title>Asset 1</title><g id="Layer_2" data-name="Layer 2"><g id="Layer_1-2" data-name="Layer 1"><rect class="cls-1" width="96.78" height="97.04"/><path class="cls-2" d="M8.44,12.09A13.26,13.26,0,0,1,7,12.67c-.64.21-1.05.35-1.21.43V10.47a16.2,16.2,0,0,0,1.88-.91A6.59,6.59,0,0,0,9.22,8.44H12v18.5H8.44Z"/><polygon class="cls-2" points="19.73 15.5 19.73 8.43 20.62 8.43 22.35 12.44 22.35 8.43 23.42 8.43 23.42 15.5 22.57 15.5 20.83 11.29 20.83 15.5 19.73 15.5"/><path class="cls-2" d="M25.9,14.58a1,1,0,0,0,.33.05,1,1,0,0,0,.32-.05.8.8,0,0,0,.21-.15.71.71,0,0,0,.12-.23,1.67,1.67,0,0,0,.06-.29c0-.1,0-.22,0-.35V10.35a2.75,2.75,0,0,0,0-.43,1.19,1.19,0,0,0-.1-.32.54.54,0,0,0-.22-.23.86.86,0,0,0-.38-.07.88.88,0,0,0-.39.07.49.49,0,0,0-.22.23,1.19,1.19,0,0,0-.1.32,2.75,2.75,0,0,0,0,.43v3.21c0,.13,0,.25,0,.35a1.67,1.67,0,0,0,.06.29.71.71,0,0,0,.12.23.57.57,0,0,0,.21.15m.33,1a1.89,1.89,0,0,1-1.57-.6,2.68,2.68,0,0,1-.47-1.73V10.65a4,4,0,0,1,.1-1A2,2,0,0,1,24.64,9a1.4,1.4,0,0,1,.63-.45,2.69,2.69,0,0,1,1-.15,1.9,1.9,0,0,1,1.56.58,2.65,2.65,0,0,1,.47,1.72v2.61a4,4,0,0,1-.1,1,2.15,2.15,0,0,1-.35.73,1.5,1.5,0,0,1-.63.47,2.7,2.7,0,0,1-.95.16"/><path class="cls-2" d="M21,23h.42a1,1,0,0,0,.73-.21,1.21,1.21,0,0,0,.2-.79,3.3,3.3,0,0,0,0-.51.93.93,0,0,0-.12-.33.46.46,0,0,0-.28-.2,1.66,1.66,0,0,0-.5-.06H21Zm-1.29,4.07V20h2c1.2,0,1.81.67,1.81,2a1.9,1.9,0,0,1-.5,1.45,2,2,0,0,1-1.39.46H21v3.16Z"/><path class="cls-2" d="M25.82,26.13a.79.79,0,0,0,.32.06.73.73,0,0,0,.32-.06.55.55,0,0,0,.34-.38,1.5,1.5,0,0,0,.06-.29c0-.1,0-.21,0-.34V21.9c0-.17,0-.31,0-.42a1.09,1.09,0,0,0-.1-.32.51.51,0,0,0-.23-.23.83.83,0,0,0-.38-.07.86.86,0,0,0-.38.07.49.49,0,0,0-.22.23,1.09,1.09,0,0,0-.1.32,2.42,2.42,0,0,0,0,.42v3.22a3.28,3.28,0,0,0,0,.34,1.5,1.5,0,0,0,.06.29.67.67,0,0,0,.12.24.55.55,0,0,0,.21.14m.32,1a1.89,1.89,0,0,1-1.56-.59,2.71,2.71,0,0,1-.48-1.74V22.2a3.93,3.93,0,0,1,.11-1,2,2,0,0,1,.34-.72,1.43,1.43,0,0,1,.64-.45,2.66,2.66,0,0,1,.95-.16,1.92,1.92,0,0,1,1.57.59,2.7,2.7,0,0,1,.47,1.71v2.61a3.62,3.62,0,0,1-.11,1,2,2,0,0,1-.34.73,1.45,1.45,0,0,1-.64.46,2.45,2.45,0,0,1-.95.16"/><polygon class="cls-2" points="30.19 27.06 28.75 19.98 29.9 19.98 30.83 24.91 31.7 19.98 32.87 19.98 31.43 27.06 30.19 27.06"/><polygon class="cls-2" points="33.55 27.06 33.55 19.98 36.51 19.98 36.51 20.89 34.84 20.89 34.84 22.92 36.16 22.92 36.16 23.83 34.84 23.83 34.84 26.16 36.53 26.16 36.53 27.06 33.55 27.06"/><path class="cls-2" d="M38.52,23h.31a1.12,1.12,0,0,0,.81-.24,1.16,1.16,0,0,0,.25-.83,1.23,1.23,0,0,0-.21-.81,1,1,0,0,0-.77-.25h-.39Zm-1.29,4.06V20h1.62a4.35,4.35,0,0,1,1,.09,1.93,1.93,0,0,1,.7.3A1.25,1.25,0,0,1,41,21a2.39,2.39,0,0,1,.15.9A2.62,2.62,0,0,1,40.9,23a1.22,1.22,0,0,1-.65.61l1,3.49H39.94l-.85-3.23h-.57v3.23Z"/><polygon class="cls-2" points="42.73 27.06 42.73 20.94 41.54 20.94 41.54 19.98 45.16 19.98 45.16 20.94 44.01 20.94 44.01 27.06 42.73 27.06"/><polygon class="cls-2" points="46.67 27.06 46.67 24.36 45.23 19.98 46.43 19.98 47.31 22.8 48.14 19.98 49.33 19.98 47.9 24.36 47.9 27.06 46.67 27.06"/><path class="cls-2" d="M74.72,46.28a2.7,2.7,0,1,1,2.7,2.7,2.7,2.7,0,0,1-2.7-2.7"/><path class="cls-2" d="M80.57,50a3.61,3.61,0,0,1,3.27,3.59v7.48a1.05,1.05,0,0,1-2.1,0V54.66c0-.24-.07-.56-.51-.56s-.36.32-.38.52V73.88a1.5,1.5,0,1,1-3,0V62.78a.42.42,0,0,0-.43-.44h0a.43.43,0,0,0-.44.44v11.1a1.5,1.5,0,1,1-3,0V54.62c0-.2-.08-.52-.38-.52s-.51.32-.51.56v6.43a1,1,0,0,1-2.09,0V53.61A3.61,3.61,0,0,1,74.27,50h6.3"/><path class="cls-2" d="M58.67,47.7a2.56,2.56,0,1,0-2.55,2.56,2.56,2.56,0,0,0,2.55-2.56"/><path class="cls-2" d="M51,53.49l-2.13,6.92s-.37,1.26.7,1.58,1.4-.92,1.4-.92l1.71-5.77s.09-.45.43-.35.2.57.2.57l-3,10.82h2.78v7.74a1.33,1.33,0,1,0,2.66,0V66.34h.75v7.74a1.34,1.34,0,0,0,2.67,0V66.34h2.77L59,55.52s-.12-.47.21-.57.43.35.43.35l1.71,5.77s.32,1.24,1.39.92.7-1.58.7-1.58l-2.12-6.92s-.76-2-2.44-2H53.41c-1.68,0-2.44,2-2.44,2"/><path class="cls-2" d="M43.37,47.7a2.56,2.56,0,1,0-2.56,2.56,2.56,2.56,0,0,0,2.56-2.56"/><path class="cls-2" d="M35.66,53.49l-2.12,6.92s-.38,1.26.69,1.58,1.4-.92,1.4-.92l1.71-5.77s.1-.45.43-.35.21.57.21.57L35,66.34h2.77v7.74a1.33,1.33,0,1,0,2.66,0V66.34h.76v7.74a1.33,1.33,0,1,0,2.66,0V66.34h2.77l-3-10.82s-.13-.47.2-.57.43.35.43.35L46,61.07s.33,1.24,1.4.92.69-1.58.69-1.58L46,53.49s-.76-2-2.44-2H38.1c-1.68,0-2.44,2-2.44,2"/><path class="cls-2" d="M67.25,62a2.13,2.13,0,1,0-2.12-2.12A2.12,2.12,0,0,0,67.25,62"/><path class="cls-2" d="M62.15,68.61a.75.75,0,0,0,.31,1,.72.72,0,0,0,.92-.3l1.15-3.69s.2-.24.2,0v8.68h0a1.09,1.09,0,0,0,2.18,0V70.9s-.06-.49.33-.49.33.49.33.49v3.42a1.1,1.1,0,0,0,2.19,0V65.64c0-.25.13-.07.13-.07l.91,2.52a6.1,6.1,0,0,0,.51,1.18.82.82,0,0,0,1.06-.43.83.83,0,0,0-.09-.78h0c0-.08-1.36-3.34-1.51-3.79-.48-1.4-1.36-1.39-2.2-1.42s-1.34,0-1.34,0-.54,0-1.65,0-1.46.6-2.68,3.74c-.18.46-.77,1.92-.77,2Z"/><path class="cls-2" d="M20.54,46.28a2.7,2.7,0,1,0-2.7,2.7,2.7,2.7,0,0,0,2.7-2.7"/><path class="cls-2" d="M14.69,50a3.61,3.61,0,0,0-3.27,3.59v7.48a1.05,1.05,0,0,0,2.1,0V54.66c0-.24.07-.56.51-.56s.37.32.38.52V73.88a1.5,1.5,0,1,0,3,0V62.78a.42.42,0,0,1,.43-.44h0a.42.42,0,0,1,.44.44v11.1a1.5,1.5,0,1,0,3,0V54.62c0-.2.08-.52.38-.52s.51.32.51.56v6.43a1,1,0,0,0,2.09,0V53.61A3.6,3.6,0,0,0,21,50h-6.3"/><line class="cls-3" x1="12.34" y1="62.18" x2="9.94" y2="74.88"/><path class="cls-2" d="M25.54,60.89a.78.78,0,0,0-1.43.41,1.39,1.39,0,0,0,.08.34l2.14,3.88a1.4,1.4,0,0,1,.13.51v8.33h0a1,1,0,1,0,2.09,0V71.08s-.06-.47.32-.47.32.47.32.47v3.28a1,1,0,1,0,2.09,0V66a1.4,1.4,0,0,1,.13-.51l2-3.58a3.65,3.65,0,0,0,.24-.64.77.77,0,0,0-.78-.77.74.74,0,0,0-.65.36h0c-.06,0-1.06,1.82-1.38,2.14a.86.86,0,0,1-.66.31H27.59a.86.86,0,0,1-.66-.31c-.33-.32-1.32-2.09-1.38-2.14Z"/><path class="cls-2" d="M28.88,62a2.13,2.13,0,1,0-2.13-2.12A2.12,2.12,0,0,0,28.88,62"/><polygon class="cls-2" points="28.88 64.99 31.29 66.74 32.43 70.95 28.88 70.95 25.33 70.95 26.48 66.74 28.88 64.99"/></g></g></svg>