<svg xmlns="http://www.w3.org/2000/svg" viewBox="0 0 377.84 377.75"><defs><style>.cls-1{fill:#6c757d;}</style></defs><title>Asset 11</title><g id="Layer_2" data-name="Layer 2"><g id="Layer_1-2" data-name="Layer 1"><path class="cls-1" d="M97.07,135A107.68,107.68,0,0,1,114,113.2L58.48,52.32A190,190,0,0,0,23.22,98.2Z"/><path class="cls-1" d="M233.18,92a105.59,105.59,0,0,1,23.29,14.59l55.68-60.79A189.54,189.54,0,0,0,262.8,15Z"/><path class="cls-1" d="M360.7,110.28l-73.8,36.79a105,105,0,0,1,7.38,26.07l82.11-7.75a187.35,187.35,0,0,0-15.69-55.11"/><path class="cls-1" d="M281.6,136.4l73.8-36.78a189.76,189.76,0,0,0-34.49-45.78l-55.68,60.77A106.43,106.43,0,0,1,281.6,136.4"/><path class="cls-1" d="M82.4,188.85c0-1.67.06-3.33.13-5L.42,176.52C.16,180.59,0,184.7,0,188.85a188.7,188.7,0,0,0,5.6,45.66l79.3-22.74a106.25,106.25,0,0,1-2.5-22.92"/><path class="cls-1" d="M271.27,256.33a107.7,107.7,0,0,1-20,18.84l43.35,70.2a190.35,190.35,0,0,0,42.46-39.43Z"/><path class="cls-1" d="M295.44,188.85A105.71,105.71,0,0,1,293,211.5l79.29,22.78a188,188,0,0,0,5.55-45.43c0-3.89-.13-7.75-.38-11.6L295.36,185c.05,1.29.08,2.56.08,3.85"/><path class="cls-1" d="M107.9,257.9,42.27,307.78a189.94,189.94,0,0,0,42.85,38.83l43.35-70.12A107.54,107.54,0,0,1,107.9,257.9"/><path class="cls-1" d="M83.73,172a105.26,105.26,0,0,1,7.87-26.46L17.83,108.82A187.63,187.63,0,0,0,1.55,164.66Z"/><path class="cls-1" d="M284.51,351.72l-43.29-70.11A106.05,106.05,0,0,1,216,291.88L231.24,373a187.14,187.14,0,0,0,53.27-21.25"/><path class="cls-1" d="M289.84,223a107.09,107.09,0,0,1-11.53,23.74l65.84,49.65a188,188,0,0,0,24.92-50.62Z"/><path class="cls-1" d="M204.28,294.25a105.15,105.15,0,0,1-27.76.38l-15.27,81.1a190.39,190.39,0,0,0,58.29-.46Z"/><path class="cls-1" d="M195.73,82.54a106,106,0,0,1,26.36,5.09l29.62-77a187.55,187.55,0,0,0-56-10.6Z"/><path class="cls-1" d="M164.78,292.6a105.86,105.86,0,0,1-26.15-9.88L95.26,352.87a188,188,0,0,0,54.27,20.74Z"/><path class="cls-1" d="M156.91,87.25a105.8,105.8,0,0,1,26.91-4.79V0a188,188,0,0,0-56.73,10.33Z"/><path class="cls-1" d="M100.67,248.43a105.74,105.74,0,0,1-12.56-25.19L8.86,246A187.82,187.82,0,0,0,35,298.31Z"/><path class="cls-1" d="M122.92,105.3a106.83,106.83,0,0,1,22.84-13.83L116,14.6a188.85,188.85,0,0,0-48.6,29.76Z"/></g></g></svg>