<?xml version="1.0" encoding="utf-8"?>
<!-- Generator: Adobe Illustrator 24.1.0, SVG Export Plug-In . SVG Version: 6.00 Build 0)  -->
<svg version="1.1" id="Layer_1" xmlns="http://www.w3.org/2000/svg" xmlns:xlink="http://www.w3.org/1999/xlink" x="0px" y="0px"
	 viewBox="0 0 459.6 459.5" style="enable-background:new 0 0 459.6 459.5;" xml:space="preserve">
<style type="text/css">
	.st0{fill:#1F538F;}
	.st1{fill-rule:evenodd;clip-rule:evenodd;fill:#00B04C;}
	.st2{fill-rule:evenodd;clip-rule:evenodd;fill:#F2B61A;}
	.st3{fill-rule:evenodd;clip-rule:evenodd;fill:#E72237;}
	.st4{fill-rule:evenodd;clip-rule:evenodd;fill:#00A74D;}
	.st5{fill-rule:evenodd;clip-rule:evenodd;fill:#008249;}
	.st6{fill-rule:evenodd;clip-rule:evenodd;fill:#FEBF1C;}
	.st7{fill-rule:evenodd;clip-rule:evenodd;fill:#F05342;}
	.st8{opacity:0.999;fill-rule:evenodd;clip-rule:evenodd;fill:#F89929;enable-background:new    ;}
	.st9{fill-rule:evenodd;clip-rule:evenodd;fill:#0098D7;}
	.st10{fill-rule:evenodd;clip-rule:evenodd;fill:#B91E4A;}
	.st11{fill-rule:evenodd;clip-rule:evenodd;fill:#00B1D3;}
	.st12{fill-rule:evenodd;clip-rule:evenodd;fill:#F36B34;}
	.st13{fill-rule:evenodd;clip-rule:evenodd;fill:#EE3245;}
	.st14{fill-rule:evenodd;clip-rule:evenodd;fill:#ED216D;}
	.st15{fill-rule:evenodd;clip-rule:evenodd;fill:#004D6C;}
	.st16{fill-rule:evenodd;clip-rule:evenodd;fill:#CE962C;}
	.st17{fill-rule:evenodd;clip-rule:evenodd;fill:#006C9D;}
	.st18{fill-rule:evenodd;clip-rule:evenodd;fill:#FFFFFF;}
	.st19{fill:#FFFFFF;}
	.st20{fill:none;}
	.st21{fill:#00B14C;}
	.st22{fill:#F3B71A;}
	.st23{fill:#E21E2D;}
	.st24{fill:#00A04C;}
	.st25{fill:#008142;}
	.st26{fill:#FEC00F;}
	.st27{fill:#F04B36;}
	.st28{fill:#F89929;}
	.st29{fill:#0095D4;}
	.st30{fill:#BB1F45;}
	.st31{fill:#00B2D9;}
	.st32{fill:#F36B34;}
	.st33{fill:#EE3245;}
	.st34{fill:#ED216D;}
	.st35{fill:#004A6C;}
	.st36{fill:#D49929;}
	.st37{fill:#006C9D;}
</style>
<g id="Group_49972" transform="translate(-529.389 -1156.741)">
	<circle id="Ellipse_9470" class="st0" cx="759.1" cy="1383" r="105"/>
	<g id="sdgs-vector" transform="translate(538.389 1162.737)">
		<g transform="matrix(1, 0, 0, 1, -9, -6)">
			
				<image style="overflow:visible;opacity:0.2;" width="118" height="109" xlink:href="7943975BEFDEB634.png"  transform="matrix(1 0 0 1 30.8976 64.3585)">
			</image>
			<g>
				<g>
					<path id="Path_88-2_12_" class="st1" d="M122.4,163.7c5.5-9.3,12.1-17.9,19.8-25.5L77.3,67.1C60.9,82.8,47,100.9,36.1,120.8
						L122.4,163.7z"/>
				</g>
			</g>
		</g>
		<g transform="matrix(1, 0, 0, 1, -9, -6)">
			
				<image style="overflow:visible;opacity:0.2;" width="104" height="119" xlink:href="7943975BEFDEB635.png"  transform="matrix(1 0 0 1 275.8976 20.3585)">
			</image>
			<g>
				<g>
					<path id="Path_89-2_12_" class="st2" d="M281.5,113.5c9.8,4.5,18.9,10.2,27.2,17l65.1-71c-17.3-14.9-36.7-27-57.7-36
						L281.5,113.5z"/>
				</g>
			</g>
		</g>
		<g transform="matrix(1, 0, 0, 1, -9, -6)">
			
				<image style="overflow:visible;opacity:0.2;" width="116" height="85" xlink:href="7943975BEFDEB633.png"  transform="matrix(1 0 0 1 338.8976 132.3586)">
			</image>
			<g>
				<g>
					<path id="Path_90-2_12_" class="st3" d="M430.5,134.9l-86.2,43c4.2,9.7,7.1,20,8.6,30.5l95.9-9.1
						C446.1,177,439.9,155.3,430.5,134.9"/>
				</g>
			</g>
		</g>
		<g transform="matrix(1, 0, 0, 1, -9, -6)">
			
				<image style="overflow:visible;opacity:0.2;" width="118" height="108" xlink:href="7943975BEFDEB63C.png"  transform="matrix(1 0 0 1 312.8976 66.3585)">
			</image>
			<g>
				<g>
					<path id="Path_91-2_12_" class="st4" d="M338.1,165.4l86.2-43c-10.6-19.8-24.2-37.8-40.3-53.5l-65.1,71
						C326.4,147.6,332.8,156.1,338.1,165.4"/>
				</g>
			</g>
		</g>
		<g transform="matrix(1, 0, 0, 1, -9, -6)">
			
				<image style="overflow:visible;opacity:0.2;" width="111" height="80" xlink:href="7943975BEFDEB63F.png"  transform="matrix(1 0 0 1 3.8976 209.3586)">
			</image>
			<g>
				<g>
					<path id="Path_92-2_12_" class="st5" d="M105.3,226.7c0-1.9,0.1-3.9,0.1-5.8l-96-8.6c-0.3,4.8-0.5,9.6-0.5,14.4
						c0,18,2.2,35.9,6.5,53.4l92.7-26.6C106.3,244.7,105.3,235.7,105.3,226.7"/>
				</g>
			</g>
		</g>
		<g transform="matrix(1, 0, 0, 1, -9, -6)">
			
				<image style="overflow:visible;opacity:0.2;" width="112" height="116" xlink:href="7943975BEFDEB63D.png"  transform="matrix(1 0 0 1 296.8976 302.3586)">
			</image>
			<g>
				<g>
					<path id="Path_93-2_12_" class="st6" d="M326,305.6c-6.8,8.3-14.7,15.7-23.4,22l50.7,82c18.8-12.7,35.5-28.3,49.6-46.1
						L326,305.6z"/>
				</g>
			</g>
		</g>
		<g transform="matrix(1, 0, 0, 1, -9, -6)">
			
				<image style="overflow:visible;opacity:0.2;" width="111" height="79" xlink:href="7943975BEFDEB632.png"  transform="matrix(1 0 0 1 345.8976 210.3586)">
			</image>
			<g>
				<g>
					<path id="Path_94-2_12_" class="st7" d="M354.3,226.7c0,8.9-0.9,17.8-2.9,26.5l92.7,26.6c4.3-17.4,6.5-35.2,6.5-53.1
						c0-4.6-0.1-9.1-0.4-13.6l-96,9.1C354.2,223.7,354.3,225.2,354.3,226.7"/>
				</g>
			</g>
		</g>
		<g transform="matrix(1, 0, 0, 1, -9, -6)">
			
				<image style="overflow:visible;opacity:0.2;" width="113" height="116" xlink:href="7943975BEFDEB636.png"  transform="matrix(1 0 0 1 52.8976 304.3586)">
			</image>
			<g>
				<g>
					<path id="Path_95-2_12_" class="st8" d="M135.1,307.4l-76.7,58.3c14.3,17.6,31.2,32.9,50.1,45.4l50.7-81.9
						C150.2,322.9,142.1,315.6,135.1,307.4"/>
				</g>
			</g>
		</g>
		<g transform="matrix(1, 0, 0, 1, -9, -6)">
			
				<image style="overflow:visible;opacity:0.2;" width="118" height="86" xlink:href="7943975BEFDEB637.png"  transform="matrix(1 0 0 1 4.8976 130.3586)">
			</image>
			<g>
				<g>
					<path id="Path_96-2_12_" class="st9" d="M106.9,207c1.7-10.7,4.8-21.1,9.2-30.9l-86.2-42.9c-9.7,20.6-16.1,42.6-19,65.2
						L106.9,207z"/>
				</g>
			</g>
		</g>
		<g transform="matrix(1, 0, 0, 1, -9, -6)">
			
				<image style="overflow:visible;opacity:0.2;" width="92" height="119" xlink:href="86C4E049AB3055D3.png"  transform="matrix(1 0 0 1 255.8976 332.3586)">
			</image>
			<g>
				<g>
					<path id="Path_97-2_12_" class="st10" d="M341.5,417l-50.6-81.9c-9.3,5.3-19.2,9.3-29.5,12l17.9,94.8
						C301.1,436.8,322.1,428.5,341.5,417"/>
				</g>
			</g>
		</g>
		<g transform="matrix(1, 0, 0, 1, -9, -6)">
			
				<image style="overflow:visible;opacity:0.2;" width="118" height="98" xlink:href="86C4E049AB3055D1.png"  transform="matrix(1 0 0 1 328.8976 263.3586)">
			</image>
			<g>
				<g>
					<path id="Path_98-2_12_" class="st11" d="M347.7,266.6c-3.3,9.8-7.8,19.1-13.5,27.7l76.9,58c12.6-18.1,22.4-38.1,29.1-59.2
						L347.7,266.6z"/>
				</g>
			</g>
		</g>
		<g transform="matrix(1, 0, 0, 1, -9, -6)">
			
				<image style="overflow:visible;opacity:0.2;" width="80" height="109" xlink:href="86C4E049AB3055D7.png"  transform="matrix(1 0 0 1 191.8976 347.3586)">
			</image>
			<g>
				<g>
					<path id="Path_99-2_12_" class="st12" d="M247.7,349.9c-10.7,1.6-21.7,1.7-32.4,0.4l-17.8,94.8c22.6,3.3,45.6,3.2,68.1-0.5
						L247.7,349.9z"/>
				</g>
			</g>
		</g>
		<g transform="matrix(1, 0, 0, 1, -9, -6)">
			
				<image style="overflow:visible;opacity:0.2;" width="78" height="114" xlink:href="86C4E049AB3055D2.png"  transform="matrix(1 0 0 1 231.8976 3.3585)">
			</image>
			<g>
				<g>
					<path id="Path_100-2_12_" class="st13" d="M237.7,102.5c10.5,0.7,20.8,2.7,30.8,5.9l34.6-90C282.1,11,260,6.8,237.7,6.1V102.5z
						"/>
				</g>
			</g>
		</g>
		<g transform="matrix(1, 0, 0, 1, -9, -6)">
			
				<image style="overflow:visible;opacity:0.2;" width="93" height="118" xlink:href="86C4E049AB3055CD.png"  transform="matrix(1 0 0 1 114.8976 333.3586)">
			</image>
			<g>
				<g>
					<path id="Path_101-2_12_" class="st14" d="M201.6,347.9c-10.7-2.5-20.9-6.4-30.6-11.5l-50.7,82c19.8,11.3,41.2,19.5,63.4,24.2
						L201.6,347.9z"/>
				</g>
			</g>
		</g>
		<g transform="matrix(1, 0, 0, 1, -9, -6)">
			
				<image style="overflow:visible;opacity:0.2;" width="78" height="114" xlink:href="86C4E049AB3055CE.png"  transform="matrix(1 0 0 1 151.8976 3.3585)">
			</image>
			<g>
				<g>
					<path id="Path_102-2_12_" class="st15" d="M192.4,108c10.2-3.2,20.8-5.1,31.5-5.6V6c-22.6,0.6-45,4.7-66.3,12.1L192.4,108z"/>
				</g>
			</g>
		</g>
		<g transform="matrix(1, 0, 0, 1, -9, -6)">
			
				<image style="overflow:visible;opacity:0.2;" width="119" height="99" xlink:href="86C4E049AB3055CF.png"  transform="matrix(1 0 0 1 13.8976 264.3586)">
			</image>
			<g>
				<g>
					<path id="Path_103-2_12_" class="st16" d="M126.7,296.3c-6.2-9.1-11.1-19-14.7-29.4l-92.6,26.6c6.9,21.9,17.3,42.5,30.6,61.2
						L126.7,296.3z"/>
				</g>
			</g>
		</g>
		<g transform="matrix(1, 0, 0, 1, -9, -6)">
			
				<image style="overflow:visible;opacity:0.2;" width="104" height="118" xlink:href="86C4E049AB3055F1.png"  transform="matrix(1 0 0 1 81.8976 20.3585)">
			</image>
			<g>
				<g>
					<path id="Path_104-2_12_" class="st17" d="M152.6,129.1c8.2-6.5,17.2-11.9,26.7-16.2L144.5,23c-20.6,8.7-39.7,20.4-56.8,34.8
						L152.6,129.1z"/>
				</g>
			</g>
		</g>
		<path id="Path_105" class="st18" d="M167.3,346.2v11.5h2.5v-15h-2l-2.3,2.7v2.6h0L167.3,346.2L167.3,346.2z"/>
		<path id="Path_106" class="st18" d="M174.1,354.2v-8c0-0.9,0.3-1.5,1.2-1.5s1.2,0.6,1.2,1.5v8.1c0,0.9-0.3,1.5-1.2,1.5
			S174.1,355.1,174.1,354.2 M179,353.8v-7.2c0-2.3-1.2-4-3.7-4s-3.7,1.7-3.7,4v7.3c0,2.3,1.2,4.1,3.7,4.1S179,356.2,179,353.8"/>
		<path id="Path_107" class="st18" d="M159,402.1h-14.9l-0.2,0.2v3.4l0.2,0.2H159l0.2-0.2v-3.4L159,402.1z"/>
		<path id="Path_108" class="st18" d="M159.2,396l-0.2-0.2h-14.9L144,396v3.4l0.2,0.2H159l0.2-0.2L159.2,396z"/>
		<path id="Path_109" class="st18" d="M167.8,397.3c-0.6-2.4-1.7-4.6-3.2-6.5l0,0c0.5,0.7,0.9,1.5,1.3,2.3
			c4.3,7.5,1.7,17.2-5.8,21.5c-7.1,4.1-16.2,2-20.8-4.7c-5.1-6.5-3.9-15.8,2.6-20.9c5.7-4.4,13.7-4.2,19,0.6l0.1,0.1l0.3,0.1
			l0.4-0.1l0.1-0.1l1.9-1.9l0.1-0.1l0.1-0.3l-0.1-0.4l-0.1-0.1c-7.5-6.7-19.1-6.1-25.8,1.4c-6.7,7.5-6.1,19.1,1.4,25.8
			c0.3,0.3,0.6,0.5,0.9,0.7c3.1,2.6,7.1,4,11.1,3.9c1.3,0,2.7-0.2,4-0.5C164.5,415.9,170.1,406.5,167.8,397.3
			C167.8,397.3,167.8,397.3,167.8,397.3"/>
		<path id="Path_110" class="st18" d="M123.1,317.7v2.6h0l1.8-1.8h0V330h2.5v-15h-2L123.1,317.7z"/>
		<path id="Path_111" class="st18" d="M128.9,317.7v2.6h0l1.8-1.8h0V330h2.5v-15h-2L128.9,317.7z"/>
		<path id="Path_112" class="st18" d="M67.8,352.5L67.8,352.5l8.5,7.3l0.4,0l0.1-0.2v0l0.4-9.1v-0.1l-0.1-0.2l-0.2-0.1l0,0l-0.1,0
			L68,352l-0.1,0l-0.1,0.1L67.8,352.5z"/>
		<path id="Path_113" class="st18" d="M75.6,360.5l-8.5-7.3l-0.4,0l-5.7,6.7l0,0.4l2.7,2.3l3.6-4.2l0.4,0l2.5,2.2l0,0.4l-3.6,4.2
			l2.8,2.4l0.4,0l5.7-6.7L75.6,360.5z"/>
		<path id="Path_114" class="st18" d="M103.5,386l-0.4,0l-2.5-2.1l0-0.4l1.3-1.5h0.4l2.5,2.1l0,0.4L103.5,386z M101,388.8l1.3-1.5
			l0-0.4l-2.5-2.2l-0.4,0l-1.3,1.5l0,0.4l2.5,2.2L101,388.8 M99.6,382.7l1.3-1.5l0-0.4l-2.5-2.1H98l-1.3,1.5l0,0.4l2.5,2.1
			L99.6,382.7 M97.2,385.5l-0.4,0l-2.5-2.2l0-0.4l1.3-1.5l0.4,0l2.5,2.2l0,0.4L97.2,385.5z M106.5,383.9l-8.4-7.2l-0.4,0l-7.3,8.5
			l0,0.4l8.4,7.2l0.4,0l7.3-8.5L106.5,383.9"/>
		<path id="Path_115" class="st18" d="M97.5,352.4h-0.2l-1.9-1.6v-0.2l1.8-2.1h0.2l1.9,1.6v0.2L97.5,352.4z M93.3,357.3h-0.2
			l-1.9-1.6v-0.2l1.8-2.1h0.2l1.9,1.6v0.2L93.3,357.3z M89.2,362.1H89l-1.9-1.6l0-0.2l1.8-2.1h0.2l1.9,1.6v0.2L89.2,362.1z
			 M85,366.9h-0.2l-1.9-1.6v-0.2l1.8-2.1H85l1.9,1.6v0.2L85,366.9z M80.9,371.8h-0.2l-1.9-1.6v-0.2l1.8-2.1h0.2l1.9,1.6v0.2
			L80.9,371.8z M93.8,349.3l1.8-2.1V347l-1.9-1.6h-0.2l-1.8,2.1v0.2l1.9,1.6L93.8,349.3 M89.6,354.1l1.8-2.1v-0.2l-1.9-1.6h-0.2
			l-1.8,2.1l0,0.2l1.9,1.6L89.6,354.1 M85.5,358.9l1.8-2.1v-0.2l-1.9-1.6h-0.2l-1.8,2.1v0.2l1.9,1.6L85.5,358.9 M81.3,363.8l1.8-2.1
			v-0.2l-1.9-1.6h-0.2l-1.8,2.1l0,0.2l1.9,1.6L81.3,363.8 M77.2,368.6l1.8-2.1v-0.2l-1.9-1.6l-0.2,0l-1.8,2.1v0.2l1.9,1.6
			L77.2,368.6 M103.9,347.4l-8.3-7.1l-0.4,0l-24.1,28.2l0,0.4l8.2,7l0.4,0l24.1-28.2L103.9,347.4"/>
		<path id="Path_116" class="st18" d="M107.5,383.2l-0.3,0l-8.5-7.2l0-0.3l1.5-1.7l0.3,0l8.5,7.3l0,0.3L107.5,383.2z"/>
		<path id="Path_117" class="st18" d="M101,369.1l-0.4,0l-2.5-2.1l0-0.4l1.3-1.5l0.4,0l2.5,2.1l0,0.4L101,369.1z M98.5,371.9
			l1.3-1.5l0-0.4l-2.5-2.1l-0.4,0l-1.3,1.5l0,0.4l2.5,2.1L98.5,371.9 M96.1,374.7l-0.4,0l-2.5-2.1l0-0.4l1.3-1.5l0.4,0l2.5,2.1
			l0,0.4L96.1,374.7z M93.7,377.6L95,376l0-0.4l-2.4-2.1l-0.4,0l-1.3,1.5l0,0.4l2.5,2.1L93.7,377.6 M91.2,380.4l-0.4,0l-2.5-2.1
			l0-0.4l1.3-1.6l0.4,0l2.4,2.1l0,0.4L91.2,380.4z M97.7,365.3L97.7,365.3l-2.9,3.4l-0.4,0l-2.5-2.1l0-0.4l0.3-0.4l0,0l0.1-0.1h0.1
			c0.7-0.2,3.6-0.7,4.8-0.9h0.1l0.3,0.1L97.7,365.3L97.7,365.3z M92.3,371.5l1.3-1.5l0-0.4l-2.5-2.1l-0.4,0l-1.3,1.5l0,0.4l2.5,2.1
			L92.3,371.5 M89.9,374.3l-0.4,0l-2.5-2.1l0-0.4l1.3-1.5l0.4,0l2.5,2.1l0,0.4L89.9,374.3z M87.5,377.2l1.3-1.5l0-0.4l-2.5-2.1
			l-0.4,0l-1.3,1.6l0,0.4l2.5,2.1L87.5,377.2 M101.1,363.9l-0.2,0.1l0,0.4l0,0l0.1,0.1l1.9,1.7l0,0l0.4,0l2.1-2.4l0.1-0.1l0.1-0.1
			l-0.1-0.4l-0.3-0.1h-0.1C104.2,363.3,102.3,363.6,101.1,363.9L101.1,363.9z M109.3,361.3l-0.1-0.3l-0.2-0.1h0l-0.1,0L92,364.2
			h-0.1l-0.2,0.1l0,0L80.9,377l0,0.4l8.2,7l0.4,0L109.3,361.3L109.3,361.3"/>
		<path id="Path_118" class="st18" d="M91.6,280.3L91.6,280.3l0,11.5h2.5v-15h-2l-2.3,2.7v2.6h0L91.6,280.3z"/>
		<path id="Path_119" class="st18" d="M95.7,279.8v1.8H98v-1.9c0-0.9,0.4-1.2,1-1.2s0.9,0.2,0.9,1.1v1.2c0.1,1-0.2,1.9-0.9,2.6
			l-1.4,1.5c-1.4,1.5-1.9,2.4-1.9,3.9v2.8h6.5v-2.1H98V289c0-0.9,0.4-1.7,1.1-2.3l1.6-1.7c1.1-1,1.7-2.3,1.6-3.8v-1.5
			c0-2.1-1-3.2-3.3-3.2S95.7,277.7,95.7,279.8"/>
		<path id="Path_120" class="st18" d="M68.1,288.3c-3.2-1-6.6-0.6-9.4,1l-0.2,0.1c-1.6,1-4.1,2.7-5.9,7.9l0,0.1v0.2l0.1,0.1l0.1,0.1
			c0.6,0.5,1.5,1.2,2.2,1.9v0l0.3,0.1l0.2-0.1l0-0.1c1.4-5,3.5-6.3,4.9-7.2l0.2-0.1c2-1,4.3-1.3,6.5-0.6c2.2,0.7,3.8,2.5,4.8,5.4
			c1.7,4.8,0.1,7.5-1.6,8.9c-1.7,1.4-3.9,2-6.1,1.8H64c-1.9-0.1-4.9-0.7-9-4.6c-8.1-7.8-12.4-7.2-15.2-6.9h-0.2
			c-3.2,0.6-6,2.5-7.8,5.2c-1.2,2-2.3,5.3-0.5,10.1c0.8,2.5,2.4,4.7,4.7,6.2c3.7,2.2,8.3,2.2,11.9-0.2c1.4-0.9,2.6-2,3.4-3.4l2,0.8
			l0.3-0.1v-0.2l0,0l-1.3-7l0-0.1l-0.1-0.1H52l-0.1,0l-5.7,4l-0.1,0.1l-0.1,0.1l0.1,0.3l0.1,0l1.9,0.8c-0.5,0.7-1.2,1.3-2,1.8
			c-2.5,1.7-5.7,1.8-8.2,0.3l-0.1,0c-1.6-1-2.8-2.6-3.3-4.5c-1-2.9-1-5.3,0.2-7.2c1.2-1.8,3.1-3.1,5.3-3.6h0.2
			c2.3-0.3,5.5-0.7,12.4,5.9c3.6,3.4,7.2,5.2,11.1,5.5c1.8,0.2,3.7,0,5.4-0.7c1.2-0.4,2.3-1.1,3.3-1.9c1.7-1.4,5.2-5.5,2.6-12.7
			C73.3,290.9,70.4,289.1,68.1,288.3"/>
		<path id="Path_121" class="st19" d="M41.8,319.3c-2,0-4-0.5-5.7-1.6c-2.2-1.4-3.9-3.6-4.7-6.2c-1.8-4.8-0.7-8.2,0.5-10.2
			c1.8-2.7,4.6-4.6,7.8-5.2h0.1c0.7-0.1,1.4-0.2,2.2-0.2c2.4,0,6.4,0.7,13,7c4,3.8,7,4.4,9,4.6h0.2c0.3,0,0.5,0,0.8,0
			c1.9,0,3.8-0.6,5.3-1.8c1.7-1.4,3.3-4.1,1.6-8.9c-1-2.8-2.6-4.7-4.8-5.4c-0.8-0.2-1.6-0.4-2.4-0.4c-1.4,0-2.9,0.3-4.1,1l-0.2,0.1
			c-1.4,0.9-3.4,2.2-4.9,7.2l0,0.1l-0.2,0.1l-0.3-0.1l0,0c-0.6-0.5-1.3-1.1-2.2-1.9l-0.1-0.1l-0.1-0.1v-0.2l0-0.1
			c1.8-5.2,4.3-6.9,5.9-7.9l0.2-0.1c1.8-1,3.9-1.6,6-1.5c1.2,0,2.3,0.2,3.4,0.5c2.2,0.7,5.2,2.6,7,7.5c2.6,7.2-1,11.3-2.6,12.7
			c-1,0.8-2.1,1.5-3.3,1.9c-1.4,0.5-2.8,0.7-4.2,0.7l0,0c-0.4,0-0.8,0-1.2-0.1c-3.8-0.3-7.5-2-11.1-5.5c-5.6-5.4-8.7-6.1-10.8-6.1
			c-0.6,0-1.1,0.1-1.7,0.1h-0.1c-2.2,0.5-4.1,1.8-5.3,3.6c-1.2,1.9-1.2,4.3-0.2,7.2c0.5,1.8,1.7,3.4,3.3,4.5l0.1,0
			c1.1,0.7,2.4,1,3.8,1c1.6,0,3.1-0.5,4.5-1.3c0.8-0.5,1.4-1.1,1.9-1.8l-1.9-0.8l-0.1,0l0,0l-0.1-0.3l0.1-0.1l0.1-0.1l5.7-4l0.1-0.1
			h0.2l0.1,0.2l0,0.1l1.3,7v0.2l-0.3,0.1l0,0l-2-0.8c-0.9,1.4-2.1,2.6-3.4,3.4C46.1,318.6,44,319.3,41.8,319.3z M42,296
			c-0.7,0-1.4,0.1-2.2,0.2h-0.2c-3.2,0.6-6,2.5-7.8,5.2c-1.2,2-2.3,5.3-0.5,10.1c0.8,2.5,2.4,4.7,4.7,6.1c1.7,1.1,3.7,1.6,5.7,1.6
			c2.2,0,4.3-0.6,6.2-1.8c1.4-0.9,2.6-2,3.4-3.4l0,0l2,0.8l0.3-0.1v-0.2l0,0l-1.3-7l0-0.1l-0.1-0.1H52l-0.1,0l-5.7,4l-0.1,0.1
			l-0.1,0.1l0.1,0.3l0.1,0l1.9,0.8l0,0c-0.5,0.7-1.2,1.3-2,1.8c-1.3,0.8-2.9,1.3-4.5,1.3c-1.3,0-2.6-0.3-3.8-1l-0.1,0
			c-1.6-1-2.8-2.6-3.3-4.5c-1-2.9-1-5.3,0.2-7.2c1.2-1.8,3.1-3.1,5.3-3.6h0.2c0.5-0.1,1.1-0.1,1.7-0.1c1.5,0,2.9,0.4,4.2,1.1
			c2.4,1.3,4.7,3,6.6,5c3.6,3.4,7.2,5.2,11,5.5c0.4,0,0.8,0.1,1.2,0.1c1.4,0,2.9-0.2,4.2-0.7c1.2-0.4,2.3-1.1,3.3-1.9
			c1.7-1.4,5.2-5.4,2.6-12.7c-1.8-4.8-4.7-6.7-6.9-7.4c-1.1-0.4-2.3-0.5-3.4-0.5c-2.1,0-4.2,0.5-6,1.5l-0.2,0.1
			c-1.5,1-4.1,2.7-5.9,7.9l-0.1,0.2v0.2l0.1,0.1l0.1,0.1c0.9,0.7,1.6,1.3,2.2,1.9l0,0l0.3,0.1l0.2-0.1l0-0.1c1.4-5,3.5-6.4,4.9-7.3
			l0.2-0.1c1.3-0.7,2.7-1,4.1-1c0.8,0,1.6,0.1,2.4,0.4c2.2,0.7,3.8,2.5,4.8,5.4c1.7,4.8,0.1,7.5-1.6,8.9c-1.5,1.2-3.4,1.8-5.3,1.8
			c-0.3,0-0.5,0-0.8,0l0,0l-0.2,0c-1.9-0.1-4.9-0.7-9-4.6C48.4,296.7,44.4,296,42,296L42,296z"/>
		<path id="Path_122" class="st18" d="M81.8,223.9v15h-2.5v-11.5h0l-1.8,1.8h0v-2.6l2.3-2.7L81.8,223.9z"/>
		<path id="Path_123" class="st18" d="M90.1,227.1v1.3c0.1,1.1-0.7,2.1-1.7,2.4c1.2,0.2,2,1.3,1.9,2.5v2.2c0,2.1-1.1,3.4-3.6,3.4
			s-3.5-1.5-3.5-3.7v-2h2.3v2.1c0,0.9,0.3,1.5,1.2,1.5c0.8,0,1.1-0.6,1.1-1.4v-2.5c0-0.8-0.4-1.2-1.2-1.2h-1.1v-1.9h1
			c0.8,0,1.3-0.4,1.3-1.2v-1.6c0-0.8-0.3-1.3-1.1-1.3s-1.1,0.5-1.1,1.5v1.5h-2.3v-1.3c0-2.2,0.9-3.7,3.5-3.7
			C89.1,223.7,90.1,225,90.1,227.1"/>
		<path id="Path_124" class="st18" d="M52.3,238.9c-0.3-0.1-1.7-1.7-0.8-3c0.2-0.2-0.4-0.7-0.3-0.8c0.5-0.1,1,0.2,1.1,0.7
			c0,0.2,0.1,0.4,0.1,0.7C52.4,237.4,52.4,238.2,52.3,238.9 M49.6,244.9l-0.4-0.1c-0.6-0.3-0.5,0.2-0.9,0.1s0.3-0.8-0.6-0.2
			s-0.7,0-1.1-1c-0.3-1,0.1-2,1-2.5c0.7-0.3,1.3-0.5,2-0.7c1.3-0.4,1.6-1.3,1.9-0.8l0.2,0.3c0.1,0.2,0.2,0.5,0.2,0.7
			C51.4,242.2,50.6,243.7,49.6,244.9 M41.7,248.8c-1.1,0.1-2.2,0-3.2-0.2c-0.2-0.1-0.2-0.3-0.2-0.5c0.4-0.9,1.2-1.5,2.1-1.5
			c1.8-0.3,4.4,0.9,4.8,0.6s1.1-1.3,2.2-1.4c0.4,0,0.7,0,1.1,0.2C46.6,247.7,44.2,248.7,41.7,248.8 M39.6,241.5
			c-0.1,0.3-0.4,2.2-0.7,2s-0.1-2.2,0-2.4C39.3,240.3,40.3,240.2,39.6,241.5 M44.1,238.9c-0.3,0.2-0.8,0.2-1.1,0
			c-0.3-0.2,0.1-0.6,0.3-0.6C43.7,238.2,44.3,238.7,44.1,238.9L44.1,238.9z M49.2,238.5c-0.1,0-0.2-0.1-0.4-0.4
			c-0.1-0.1,0-0.3,0.1-0.4c0.1,0,0.2-0.1,0.3,0c0.2,0.1,0.6,0.4,0.6,0.6L49.2,238.5 M49.7,238.8c-0.2,0-0.6,0.4-0.3,0.6
			c0.3,0.2,0.8,0.2,1.1,0C50.7,239.3,50.1,238.8,49.7,238.8 M37.8,244.3c0.2-0.9,0.5-0.4,0.5-1s0.3-0.7,0.2-1.4
			c-0.1-0.5,0.1-1.1,0.5-1.4c0.5-0.6,0.4-0.3,0.5-0.8s-0.4-0.6-0.9-0.8c-0.7-0.4-1.1-1.1-1.2-1.8c0-0.4,0.3-0.1,0.8,0.5
			s0.8,0.9,1.4,0.8s1.2-0.7,1-1.2c-0.2-0.4-2.1-1.7-2-2s0.4-0.1,1,0.3s1.2,0.3,1.4,1c0.4,1.4,1.9,0.7,3.1,1.9
			c0.5,0.5,0.6-0.1,0.9-0.7s-0.3-0.9,0.1-1.2c0.3-0.3,0.7-0.2,1,0c0.1,0.1,0.1,0.1,0.1,0.2c0.2,0.5,0.5,1.1,0.8,1.7
			c0.5,0.6,1.1,1.1,1.9,1.4c0.8,0-0.4-1.1-0.5-1.6c-0.1-0.5,0.1-1.1,0.5-1.4c0.4-0.1,0.8-0.3,1.2-0.6c0.7-0.5-0.1-0.6-0.1-1.3
			s0.4-0.4,0.6-0.2c0.2,0.3,0.7,0.4,1,0.2c0.1-0.1,0.2-0.2,0.3-0.4c0-0.2,0-0.4,0-0.5c-1.9-6-8.4-9.3-14.4-7.4
			c-1.2,0.4-2.3,1-3.3,1.7c1.3-0.2,3.9-0.8,3.7,0.3c-0.2,1.1,1.8,1.1,0.8,1.7c-0.4,0.2-1.6,1.2-1.8,1.1c-0.8-0.4,1.5-1,1-1.3
			s-1.3,0.1-2,0.3c-0.7,0.1-1.4,0.3-2.1,0.5c-0.5,0.3-1,0.6-0.8,1s1.5,0.6,1.8,0.6s0.5-0.1,0.9-0.7s1-0.1,0.9,0
			c-0.3,0.2-0.6,0.5-0.8,0.8c-0.3,0.4-0.7,0.5-1.1,0.3c-0.6-0.1-1.2-0.1-1.7,0.1c-0.3,0.2-0.5,0.4-0.8,0.6l-0.3,0.3l0,0.5
			c-0.1,0.1-0.3,0.4-0.6,0.2c-0.4-0.1-0.9,0-1.2,0.2l-0.1,0.3c0,0.4,0.2,1.1,0.9,0.5c0.2-0.2,1.3-0.2,1.9-0.9c0.3-0.3,0.7,0,0.8,0.2
			s0.6,1.1,0.9,1s-0.4-0.9-0.2-1s0.7,0.7,0.8,0.6c0.4-0.3,0.8-0.3,0.9,0.2c0.1,0.4-0.3,0.6-0.7,0.8c-0.6,0.3-1.7-0.2-2.4-0.4
			c-0.6-0.2-1.3-0.3-1.9-0.3l-0.7,0.3c0,0,0,0.2-0.5,0.9l-0.1,0.1c0,0.4,0,0.8,0,1.1c0.1,1.5,0.5,3,1.2,4.4h0
			c0.6,0.2,0.5,0.1,0.9-0.2s0.8-0.7,1.1-0.3s0.6,0.2,0.7,0.9s0.6-0.5,0.8,0.5c0.3,1.5,0.6,0.7,0.6,1c0.1,0.7,0.2,2.1,0.8,2.1
			c0.6,0,1.1-0.3,1.5-0.7C37.5,245.4,37.7,244.8,37.8,244.3 M30.7,232.2L30.7,232.2c0.3-0.3,0.6-0.4,0.9-0.5c0.3-0.1,0.7,0,0.7,0.2
			l-0.8,0.7c-0.4,0.4-0.9,1.2-1.3,1.3h-0.3C30.1,233.3,30.4,232.7,30.7,232.2 M31.2,231c0.1-0.2,0.6-0.9,0.6-1l0.5-0.3l0.5,0.2
			l-0.1,0.7c-0.3,0.3-0.7,0.6-1.2,0.6C31.2,231.3,31.1,231,31.2,231 M68.1,235c-12.3-14.2-33.8-15.8-48-3.5
			c-2.5,2.2-4.7,4.7-6.5,7.5l-0.2,0.3l0.2,0.3c12.3,14.2,33.7,15.8,48,3.5c2.5-2.2,4.7-4.7,6.5-7.5l0.2-0.3L68.1,235"/>
		<path id="Path_125" class="st18" d="M81.3,175.8v15h-2.5v-11.5h0l-1.8,1.8h0v-2.6l2.3-2.7L81.3,175.8z"/>
		<path id="Path_126" class="st18" d="M84.3,186.4l2.3-6.2h0v6.2H84.3z M89,190.8v-2.4h1v-2h-1v-10.6h-2.5l-4.3,11v1.5h4.4v2.4
			L89,190.8z"/>
		<path id="Path_127" class="st18" d="M47,162.6c-0.4,1.3-1.8,2.1-3.1,1.7c-1.3-0.4-2.1-1.8-1.7-3.1c0.4-1.3,1.8-2.1,3.1-1.7
			c0,0,0,0,0,0C46.6,159.9,47.4,161.3,47,162.6 M48.9,152c-1.5,0.5-10.6,4.1-13,12.3c-2.1,7,2.1,16.5,2.1,16.5s-6.6,1.1-8.9,6.7
			l0,0.1v0l0.2,0.3l0.2,0c1.5-0.4,5.6-1.2,9.1-0.2s6.5,4,7.5,5.1l0.1,0.1l0.1,0.1l0.3-0.1v-0.1c1.2-6-3.8-10.5-3.8-10.5
			s8.6-5.7,10.7-12.7c2.4-8.1-3.3-16.1-4.2-17.4l-0.1-0.1l-0.1,0H49L48.9,152"/>
		<path id="Path_128" class="st18" d="M15.1,183.6L15.1,183.6l0.1,0.3l1.6,0.5h0.2c4.6-2.9,2.5-7.6,1.9-8.7l0-0.1v-0.1l0.1-0.1l0,0
			c5.5-3.2,3.5-8.8,3-10l-0.1-0.1v-0.1l0-0.1l0.1-0.1c1.1-0.7,5.9-4.4,3-10l0,0v-0.2l0.1-0.1l0.1,0c1.1-0.6,5.4-3.4,3.1-8.3
			l-0.1-0.1l-1.6-0.5l-0.3,0.2v0.1l0,0.1c0.7,3.2-0.8,6.4-3.6,8l-0.1,0.1l-0.1,0.1v0.1l0.1,0.1c0.5,1.2,2.2,6.8-2.8,9.8l-0.1,0
			l-0.1,0.1v0.2l0,0.1c2.6,5.3-1.9,9-3,9.8l-0.1,0.1l0,0.1v0.1l0.1,0.1c1.5,2.9,1,6.4-1.3,8.7L15.1,183.6"/>
		<path id="Path_129" class="st18" d="M24.8,177.4L24.8,177.4l0-0.2l0.1-0.1l0,0c5.5-3.2,3.5-8.8,3-10l-0.1-0.1v-0.1l0-0.1l0.1-0.1
			c1.1-0.7,5.9-4.4,3-10l0,0v-0.2l0.1-0.1l0.1,0c1.1-0.6,5.4-3.4,3.1-8.3l-0.1-0.1l-1.6-0.5l-0.3,0.2v0.1l0,0.1
			c0.7,3.2-0.8,6.4-3.6,8l-0.1,0.1l-0.1,0.1v0.1l0.1,0.1c0.5,1.2,2.2,6.8-2.8,9.8l-0.1,0l-0.1,0.1v0.2l0,0.1c2.6,5.3-1.9,9-3,9.8
			l-0.1,0.1l0,0.1v0.1l0.1,0.1c1.5,2.9,1,6.4-1.3,8.7l-0.1,0.1v0l0.2,0.3l1.6,0.5H23C27.5,183.3,25.4,178.6,24.8,177.4"/>
		<path id="Path_130" class="st18" d="M101.7,130.4v2.6h0l1.8-1.8h0v11.5h2.5v-15h-2L101.7,130.4z"/>
		<path id="Path_131" class="st18" d="M112,132.4c-0.8-0.1-1.7,0.3-2.1,1h0v-3.7h4.3v-2h-6.6v8.4h2.3v-0.3c0-0.9,0.4-1.4,1.1-1.4
			c0.8,0,1.1,0.5,1.1,1.3v3.6c0,0.8-0.3,1.4-1.1,1.4c-0.9,0-1.2-0.6-1.2-1.5v-1.9h-2.3v1.7c0,2.3,0.9,3.7,3.5,3.7s3.6-1.4,3.6-3.4
			v-3.7C114.6,133.3,113.3,132.4,112,132.4"/>
		<path id="Path_132" class="st18" d="M64.5,107.8l0.2,0l4.6,2.9l0.1,0.2l-1.2,1.8l-0.2,0l-4.6-2.9l-0.1-0.2L64.5,107.8z"/>
		<path id="Path_133" class="st18" d="M84.2,91.9l-19.5,30.4l0.1,0.2l1.9,1.2l0.2-0.1l19.5-30.4L86.3,93l-1.9-1.2L84.2,91.9z"/>
		<path id="Path_134" class="st18" d="M87.9,94.3l-19.5,30.4l0.1,0.2l1.9,1.2l0.2,0l19.5-30.4L90,95.4l-1.9-1.2L87.9,94.3z"/>
		<path id="Path_135" class="st18" d="M68.7,90.1c-1.1,0.4-2,1.1-2.7,2c-0.6,0.9-0.8,2-0.5,3.1l0.1,0.2l0.2,0.1l0.3,0l0.2-0.2l0-0.1
			v-0.2c0.1-0.5,0.2-1,0.5-1.4c0.8-1.2,2-2,3.3-2.3h0l0.3-0.2l0.1-0.3v0c-0.3-1.4,0-2.8,0.7-4c0.2-0.4,0.6-0.8,1-1.1l0.2-0.1
			l0.1-0.2l-0.1-0.4l-0.1-0.1l-0.2,0c-1.1,0.2-2,0.9-2.6,1.8C68.8,87.8,68.6,89,68.7,90.1"/>
		<path id="Path_136" class="st18" d="M55.4,84.2l0.1,0.2l0.1,0.1l0.3,0.1l0.2-0.1l0,0l0.1-0.2l0.1-0.2c0.7-0.9,1.7-1.3,2.8-1.2h0
			l0.3-0.1l0.1-0.1l0.1-0.2v-0.1c0.1-0.6,0.2-1.1,0.5-1.6c0.3-0.5,0.8-0.9,1.3-1.1l0.2,0l0.1-0.1l0,0v0l0-0.1l-0.1-0.2l-0.1-0.1
			l-0.1-0.1l-0.2,0c-1-0.1-2,0.4-2.6,1.3c-0.2,0.4-0.4,0.8-0.5,1.2c-1,0-1.9,0.5-2.5,1.3C55.6,83.2,55.4,83.7,55.4,84.2"/>
		<path id="Path_137" class="st18" d="M55.9,93.6l0.1,0.1h0.3l0.2-0.2v-0.2c0-0.5,0.2-0.9,0.5-1.3c0.6-0.9,1.4-1.5,2.4-1.8h0
			l0.2-0.2l0,0l0-0.3v0c-0.3-1.2-0.2-2.4,0.5-3.5c0.2-0.3,0.4-0.5,0.7-0.7l0.2-0.1l0.1-0.1l0-0.1L61,84.8l-0.1-0.1l-0.2,0
			c-0.8,0.2-1.5,0.7-2,1.5c-0.5,0.9-0.7,1.9-0.5,2.9c-0.8,0.3-1.5,0.9-2,1.6c-0.5,0.8-0.7,1.9-0.4,2.8L55.9,93.6"/>
		<path id="Path_138" class="st18" d="M48.5,110.5c-1.8-1.2-2.3-3.6-1.2-5.4l0.1-0.2c-2.3-1.8-2.8-5.1-1-7.4s5.1-2.8,7.4-1
			c0.5,0.4,0.9,0.9,1.3,1.4c2.3-2.3,6.1-2.2,8.4,0.1c1.9,2,2.2,5,0.8,7.3c-0.1,0.2-4.3,6.6-4.3,6.6c-1.2,1.9-3.8,2.5-5.8,1.3
			c-0.9-0.6-1.6-1.5-1.8-2.5C51.2,111.4,49.7,111.3,48.5,110.5"/>
		<path id="Path_139" class="st18" d="M143.1,97.3v2.6h0l1.8-1.8h0v11.5h2.5v-15h-2L143.1,97.3z"/>
		<path id="Path_140" class="st18" d="M153.7,106.2c0,1-0.4,1.5-1.2,1.5s-1.2-0.6-1.2-1.5v-2.7c0-0.8,0.4-1.4,1.2-1.4
			c0.9,0,1.2,0.5,1.2,1.5V106.2z M156.2,106v-2.2c0-2.5-1-3.7-2.8-3.7c-0.9-0.1-1.7,0.4-2.1,1.2h0v-3.2c0-0.9,0.3-1.5,1.2-1.5
			s1.2,0.5,1.2,1.5v1h2.3v-0.8c0-2.2-0.7-3.8-3.5-3.8c-2.7,0-3.6,1.7-3.6,4v7.3c0,2.3,1,4,3.7,4S156.2,108.3,156.2,106"/>
		<path id="Path_141" class="st18" d="M121.8,28.2c-0.3,1.3,0.5,2.7,1.9,3c0.3,0.1,0.6,0.1,0.9,0c0.1-0.8-0.1-1.6-0.6-2.2
			C123.4,28.5,122.7,28.2,121.8,28.2"/>
		<path id="Path_142" class="st18" d="M123.9,34.6c0.1-0.8-0.1-1.6-0.6-2.2c-0.6-0.5-1.4-0.8-2.2-0.8c-0.3,1.3,0.5,2.7,1.9,3
			C123.3,34.6,123.6,34.6,123.9,34.6"/>
		<path id="Path_143" class="st18" d="M126.3,31.7c0.7,0.2,1.4,0.1,2.1-0.3c0.5-0.5,0.9-1.2,1-1.9c-0.7-0.2-1.4-0.1-2.1,0.3
			C126.8,30.3,126.4,31,126.3,31.7"/>
		<path id="Path_144" class="st18" d="M125.2,26.8c-0.1,0.8,0.1,1.7,0.6,2.4c0.8-0.4,1.3-1,1.6-1.8c0.1-0.8-0.1-1.7-0.6-2.4
			C126,25.3,125.5,26,125.2,26.8"/>
		<path id="Path_145" class="st18" d="M127.7,34.8c0.6-0.4,1.1-1,1.3-1.7c-0.6-0.3-1.4-0.4-2.1-0.2c-0.6,0.4-1.1,1-1.3,1.7
			C126.3,35,127.1,35,127.7,34.8"/>
		<path id="Path_146" class="st18" d="M137.5,49.8l-6.6,3.9c-0.5,0.3-0.7,1-0.3,1.5c0.3,0.5,0.9,0.6,1.4,0.4l6.6-3.9
			c0.5-0.3,0.7-1,0.4-1.5S138,49.5,137.5,49.8L137.5,49.8"/>
		<path id="Path_147" class="st18" d="M143.6,60.1l-6.6,3.9c-0.5,0.3-0.7,0.9-0.4,1.5c0.3,0.5,0.9,0.7,1.5,0.4c0,0,0,0,0.1,0
			l6.6-3.9c0.5-0.3,0.7-1,0.4-1.5S144.1,59.8,143.6,60.1L143.6,60.1"/>
		<path id="Path_148" class="st18" d="M106.4,64.9l-0.5,0.1C105.9,65.1,106.1,65,106.4,64.9"/>
		<path id="Path_149" class="st18" d="M119.5,62.7c0.4-0.2,0.9-0.5,1.3-0.8l2,3.5l-1.3,0.7L119.5,62.7z M138.8,52.4l-6.1,3.6
			c-0.3,0.2-0.4,0.5-0.2,0.8l1.1,1.9l-3.7,2.8l-5.9,3.3l-2.1-3.6c0.7-0.6,1.4-1.2,2.1-1.8c4.7-4.9,3.2-10.3,1.2-13.4
			s-1.7-5.1-0.6-6.5c0.3-0.4,0.7-0.7,1.1-1.1c0.6,1,1.4,1.8,2.2,2.5l0.4-0.3c-0.9-0.7-1.6-1.6-2.2-2.6c0.4-0.3,0.9-0.6,1.3-0.8
			c-0.6,0-1.2-0.1-1.8-0.2c-0.5-1.5-0.5-3.2,0.1-4.7c0.2-0.9,0.4-1.7,0.5-2.6h-0.5c-0.1,0.9-0.2,1.7-0.5,2.5
			c-0.5,1.5-0.6,3.2-0.2,4.7c-0.5-0.1-1-0.2-1.5-0.4c-2.3-0.7-3.4,1.4-4.6,5.3s-4.4,5.8-9.4,4.5c-6.6-1.8-10.2,0.3-12.5,2
			c2.1-0.3,3.6,1,6.8,4.5c3.4,3.7,6.7,4.3,10,2.7c-1.4,1.6-0.9,2.6-2.3,5.6c-1.1,2.3-3.8,3.4-5,3.8c2.2-0.5,5.6,0.2,8-0.3
			c1.4-0.3,2.8-0.8,4.1-1.4l2,3.4l-10.6,5.9l1.4,2.4L130.6,63l4.3-1.9L136,63c0.2,0.3,0.5,0.4,0.8,0.2l6.1-3.6
			c0.3-0.2,0.4-0.5,0.2-0.8l-3.6-6.1C139.4,52.4,139.1,52.3,138.8,52.4"/>
		<path id="Path_150" class="st18" d="M110.5,74.8c0.3,0.4,0.2,1.1-0.3,1.4l-0.5,0.3c-0.5,0.2-1.1,0-1.3-0.5l-1-1.7
			c-0.3-0.4-0.2-1.1,0.3-1.4l0.5-0.3c0.5-0.2,1.1,0,1.3,0.5L110.5,74.8z"/>
		<path id="Path_151" class="st18" d="M298,104.6h-4.1v-0.7c0-0.9,0.4-1.7,1.1-2.3l1.6-1.7c1.1-1,1.7-2.3,1.6-3.8v-1.5
			c0-2.1-1-3.2-3.3-3.2s-3.3,1.2-3.3,3.3v1.8h2.3v-1.9c0-0.9,0.4-1.2,1-1.2s0.9,0.2,0.9,1.1v1.2c0.1,1-0.2,1.9-0.9,2.6l-1.4,1.5
			c-1.4,1.5-1.9,2.4-1.9,3.9v2.8h6.5L298,104.6z"/>
		<path id="Path_152" class="st18" d="M305.6,72.2l-0.5,0.9l0,0v0c-0.1,0.2-0.1,0.5,0.2,0.6l0,0l10.5,6.4l0,0
			c0.2,0.1,0.5,0.1,0.7-0.2c0,0,0,0,0,0l0,0l0.6-1c7.1,1.7,14.4-0.4,18.9-5.7l0,0l0-0.1c0.1-0.2,0.1-0.5-0.2-0.7c0,0,0,0,0,0
			l-33.2-20.1l-0.2-0.1c-0.2-0.1-0.5-0.1-0.7,0.2c0,0,0,0,0,0l-0.1,0.2C299,59.1,300.7,66.7,305.6,72.2"/>
		<path id="Path_153" class="st18" d="M333.5,51.7c-0.3,0.1-6.3,2.8-5.2,8.6c0.5,2.7-0.5,4.1-1.6,4.9l2.2,1.3
			c1.4-1.2,2.3-3.3,1.7-6.3c-0.8-4.3,4-6.5,4.1-6.5c0.5-0.2,0.7-0.8,0.5-1.3c0-0.1-0.1-0.1-0.1-0.2
			C334.8,51.7,334.2,51.4,333.5,51.7"/>
		<path id="Path_154" class="st18" d="M320.1,61.1l2.2,1.3c1.4-1.2,2.3-3.3,1.7-6.3c-0.9-4.3,4-6.5,4.1-6.5c0.5-0.2,0.7-0.8,0.5-1.3
			c0-0.1-0.1-0.1-0.1-0.2c-0.3-0.6-1-0.8-1.6-0.6c-0.3,0.1-6.3,2.8-5.2,8.6C322.3,58.9,321.2,60.4,320.1,61.1"/>
		<path id="Path_155" class="st18" d="M320.3,43.6c-0.3,0.1-6.3,2.8-5.2,8.6c0.5,2.7-0.5,4.1-1.6,4.9l2.2,1.3
			c1.4-1.2,2.3-3.3,1.7-6.3c-0.9-4.3,4-6.5,4.1-6.5c0.5-0.2,0.7-0.8,0.5-1.3c0-0.1-0.1-0.1-0.1-0.2
			C321.6,43.6,320.9,43.4,320.3,43.6"/>
		<path id="Path_156" class="st18" d="M333.7,146.5c2.5,0,3.6-1.3,3.6-3.4v-2.2c0.1-1.2-0.7-2.3-1.9-2.5c1.1-0.3,1.8-1.3,1.7-2.4
			v-1.3c0-2.1-1-3.4-3.3-3.4c-2.6,0-3.5,1.5-3.5,3.8v1.3h2.3v-1.5c0-0.9,0.3-1.5,1.1-1.5s1.1,0.5,1.1,1.3v1.6c0,0.8-0.5,1.2-1.3,1.2
			h-1v1.9h1.1c0.9,0,1.2,0.4,1.2,1.2v2.5c0,0.8-0.4,1.3-1.1,1.3c-0.9,0-1.2-0.6-1.2-1.5v-2.1h-2.3v2
			C330.3,145,331.2,146.5,333.7,146.5"/>
		<path id="Path_157" class="st18" d="M392.1,96.2c-0.9-1.7-3-2.4-4.7-1.5c0,0-0.1,0.1-0.1,0.1c-0.9,0.5-1.3,2.1-1.5,3.1
			c-0.9-0.2-2.5-0.6-3.4,0c-1.6,1.1-2.1,3.3-1,4.9c0,0,0.1,0.1,0.1,0.1c0.5,0.8,1.4,1.5,2.3,1.7l7.2,1.7l1.7-7.2l0,0
			C392.9,98,392.7,97,392.1,96.2"/>
		<path id="Path_158" class="st18" d="M382,121.8L382,121.8c-0.4,0.2-0.8,0.1-1.1-0.2L370.5,110l0.5,8.4c0,0.5-0.3,0.9-0.8,0.9
			c-0.3,0-0.5-0.1-0.7-0.3l-7.7-9.2l1.1,7.6c0,0.3-0.1,0.7-0.4,0.8l-10.3,6.4c-0.4,0.2-0.9,0.1-1.2-0.3c-0.2-0.4-0.1-0.9,0.3-1.1
			l9.8-6.1l-1.4-10c-0.1-0.5,0.3-0.9,0.7-1c0.3,0,0.6,0.1,0.8,0.3l8,9.5l-0.5-8.3c0-0.5,0.3-0.9,0.8-0.9c0.3,0,0.5,0.1,0.7,0.3
			l9.6,10.8l-8.1-29.9c-0.1-0.4,0.1-0.9,0.6-1c0.2-0.1,0.5,0,0.7,0.1l9.1,5.8c0.4,0.3,0.5,0.8,0.2,1.2c-0.3,0.4-0.8,0.5-1.2,0.3
			l-7.3-4.6l8.5,31.3C382.4,121.3,382.3,121.6,382,121.8"/>
		<path id="Path_159" class="st18" d="M355.7,188.5l2.3-6.2h0v6.2L355.7,188.5z M358,192.9h2.4v-2.4h1v-2h-1v-10.6h-2.5l-4.4,11v1.6
			h4.4L358,192.9z"/>
		<path id="Path_160" class="st18" d="M399.1,163.4l-14.9-4l6.4,24.1l13.9,0.5L399.1,163.4z"/>
		<path id="Path_161" class="st18" d="M400.5,163l5.5,20.5l11.9-7.4l-6.4-24.1L400.5,163z"/>
		<path id="Path_162" class="st18" d="M421.5,148.8c-0.2-0.8-1.1-1.4-1.9-1.1c-0.8,0.2-1.4,1.1-1.1,1.9c0,0,0,0,0,0l0.4,1.7l3-0.8
			L421.5,148.8z"/>
		<path id="Path_163" class="st18" d="M425.3,173.7l-0.4,0.1l2.9,4.9l0.1-5.7l-0.4,0.1l0.4-0.1l-5.7-21.4l-0.4,0.1l-0.4,0.1
			l-0.4,0.1l-0.8,0.2l-0.4,0.1l-0.4,0.1l-0.4,0.1l5.7,21.4L425.3,173.7z"/>
		<path id="Path_164" class="st18" d="M414.5,152.4l-1.7-0.7l6.6,24.8l-13.1,8.4l-0.7,0.2l-0.1,0l-0.7,0.2l-15.3-0.2l-6.8-25.4
			l-1.1,1.5l6.7,25.3l16.7,0.2l0.7-0.2l0.1,0l0.7-0.2l13.1-8.4l1.2-0.7L414.5,152.4z"/>
		<path id="Path_165" class="st18" d="M359.7,228.9c-0.8-0.1-1.7,0.3-2.1,1h0v-3.7h4.3v-2.1h-6.6v8.5h2.3v-0.3
			c0-0.9,0.4-1.4,1.1-1.4s1.1,0.5,1.1,1.3v3.6c0,0.8-0.3,1.3-1.1,1.3c-0.9,0-1.2-0.6-1.2-1.5v-1.9h-2.3v1.7c0,2.3,0.9,3.7,3.5,3.7
			s3.6-1.3,3.6-3.4v-3.7C362.3,229.9,361.1,228.9,359.7,228.9"/>
		<path id="Path_166" class="st18" d="M410.1,243.8c-4.9,0-8.9-4-8.9-8.9s4-8.9,8.9-8.9c4.9,0,8.9,4,8.9,8.9c0,0,0,0,0,0
			C419,239.9,415,243.8,410.1,243.8 M427.2,218H418l-0.1,0.1v3.1l0.1,0.1h3.7l-4.1,4.1c-5.2-4.1-12.9-3.2-17,2
			c-4.1,5.2-3.2,12.9,2,17c1.7,1.4,3.8,2.2,6,2.5v3.5h-3.6l-0.1,0.1v3.3l0.1,0.1h3.6v3.5l0.1,0.1h3.3l0.1-0.1V254h3.6l0.1-0.1v-3.3
			l-0.1-0.1h-3.6v-3.6c6.6-1.1,11.1-7.3,10-13.9c-0.3-1.8-1-3.5-2-5l4-4v3.4l0.1,0.1h3.1l0.1-0.1v-9.2L427.2,218"/>
		<path id="Path_167" class="st18" d="M415.5,231.3h-10.8l-0.1,0.1v2.6l0.1,0.1h10.8l0.1-0.1v-2.6L415.5,231.3z"/>
		<path id="Path_168" class="st18" d="M415.5,236h-10.8l-0.1,0.1v2.6l0.1,0.1h10.8l0.1-0.1v-2.6L415.5,236z"/>
		<path id="Path_169" class="st18" d="M344.8,281.7c0-0.8,0.4-1.4,1.2-1.4c0.9,0,1.2,0.5,1.2,1.5v2.6c0,1-0.3,1.5-1.2,1.5
			s-1.2-0.6-1.2-1.5L344.8,281.7z M345.9,288c2.7,0,3.7-1.5,3.7-3.8v-2.2c0-2.5-1-3.7-2.8-3.7c-0.9-0.1-1.7,0.4-2.1,1.2h0v-3.2
			c0-0.9,0.3-1.5,1.2-1.5s1.2,0.5,1.2,1.5v1h2.3v-0.8c0-2.2-0.7-3.8-3.5-3.8c-2.7,0-3.6,1.7-3.6,4v7.3
			C342.3,286.4,343.3,288,345.9,288"/>
		<path id="Path_170" class="st18" d="M391.7,290.4c-0.6,0.6-1,1.4-1.1,2.3c-0.4,3.6-1.1,5.8-3.7,8.4c-1.7,1.6-3.9,2.8-4.3,5.3
			c-0.2,1.7-0.6,3.4-1.4,4.9l-5.3-1.7l12-22.2L391.7,290.4z M401.8,305.6c-0.7-2.1-2.7-3.4-4.8-3.3c-0.9,0-6.5,0.5-7,0.6l0,0
			c0.2,0.4,2.8,5.4,3.4,6.1c1.1,1.9,3.3,2.8,5.4,2.2C401,310.3,402.3,307.9,401.8,305.6 M387.5,285.9l-0.2,0.2l-12.9,23.7v0.3
			l0.2,0.2l26.3,9.1l0.4-0.1l2.6-4.9l4.1,1.8l-1.1,2.1l7.4-2.2l-2.2-7.4l-1.1,2.1l-3.7-2.5l2.7-5l-0.1-0.4L387.8,286L387.5,285.9"/>
		<path id="Path_171" class="st18" d="M312.9,319.9h3.9l-3.4,12.9h2.5l3.3-12.7v-2.3h-6.3V319.9z"/>
		<path id="Path_172" class="st18" d="M355.9,366.8c-2.3,2.1-5.9,2-8-0.4c-1.7-1.8-2-4.6-0.7-6.7l1.4,1.6c-0.7,1.9,0.3,4.1,2.2,4.8
			c1.9,0.7,4.1-0.3,4.8-2.2c0.7-1.9-0.3-4.1-2.2-4.8c-0.7-0.3-1.5-0.3-2.3-0.1l-1.4-1.6c2.8-1.3,6.2-0.1,7.5,2.7
			C358.3,362.5,357.8,365.1,355.9,366.8 M347.1,358.4l2.5,2.8c0.3,0.3,0.8,0.3,1.2,0c0.3-0.3,0.3-0.7,0-1.1l-2.5-2.8
			c-0.4-0.3-0.9-0.2-1.2,0.2C347,357.8,346.9,358.1,347.1,358.4 M344.8,354.7c-4.4,4.1-4.7,11-0.7,15.4c4.1,4.4,11,4.7,15.4,0.7
			c4.4-4.1,4.7-11,0.7-15.4c0,0,0,0,0,0C356.1,350.9,349.2,350.6,344.8,354.7"/>
		<path id="Path_173" class="st18" d="M342.9,371.1c-0.3-0.3-0.8-0.4-1.2-0.1l-3.5,3.2c-0.3,0.4-0.3,0.9,0.1,1.3
			c0.3,0.3,0.8,0.3,1.2,0.1l3.5-3.2C343.2,372,343.2,371.4,342.9,371.1"/>
		<path id="Path_174" class="st18" d="M366.1,349.9c-0.3-0.3-0.8-0.4-1.2-0.1l-3.5,3.2c-0.3,0.4-0.3,0.9,0.1,1.3
			c0.3,0.3,0.8,0.3,1.1,0l3.5-3.2C366.4,350.7,366.4,350.2,366.1,349.9"/>
		<path id="Path_175" class="st18" d="M343.6,353.4c0.3-0.3,0.4-0.8,0.1-1.2l-3.2-3.5c-0.4-0.3-0.9-0.3-1.3,0.1
			c-0.3,0.3-0.3,0.8-0.1,1.2l3.2,3.5C342.8,353.7,343.3,353.7,343.6,353.4"/>
		<path id="Path_176" class="st18" d="M364.9,376.6c0.3-0.3,0.4-0.8,0.1-1.2l-3.2-3.5c-0.4-0.3-0.9-0.3-1.3,0.1
			c-0.3,0.3-0.3,0.8,0,1.1l3.2,3.5C364,376.9,364.6,376.9,364.9,376.6"/>
		<path id="Path_177" class="st18" d="M339.9,365.4c-0.1-0.5-0.5-0.8-1-0.7l-4.7,1c-0.5,0.1-0.8,0.5-0.8,1c0.1,0.5,0.5,0.8,1,0.8
			c0,0,0.1,0,0.1,0l4.6-1C339.7,366.3,340,365.9,339.9,365.4"/>
		<path id="Path_178" class="st18" d="M370.6,358.5c-0.1-0.5-0.6-0.8-1-0.7l-4.6,1c-0.5,0.2-0.7,0.7-0.6,1.1c0.1,0.4,0.5,0.7,1,0.6
			l4.7-1.1C370.4,359.4,370.7,358.9,370.6,358.5"/>
		<path id="Path_179" class="st18" d="M349.3,350.5c0.5-0.1,0.8-0.5,0.7-1l-1.1-4.7c-0.1-0.5-0.6-0.7-1.1-0.6
			c-0.5,0.1-0.8,0.6-0.7,1l1,4.6C348.4,350.3,348.9,350.6,349.3,350.5"/>
		<path id="Path_180" class="st18" d="M356.2,381.1c0.5-0.1,0.8-0.6,0.7-1l-1-4.6c-0.2-0.5-0.7-0.7-1.1-0.6c-0.4,0.1-0.7,0.5-0.6,1
			l1.1,4.7C355.3,381,355.8,381.2,356.2,381.1"/>
		<path id="Path_181" class="st18" d="M340.2,358.9c0.1-0.4-0.1-0.9-0.5-1.1l-4.6-1.4c-0.5-0.1-1,0.2-1,0.7c-0.1,0.4,0.1,0.8,0.5,1
			l4.6,1.4C339.5,359.6,340,359.3,340.2,358.9"/>
		<path id="Path_182" class="st18" d="M370.1,368.4c0.1-0.5-0.1-0.9-0.5-1.1l-4.6-1.4c-0.5-0.1-1,0.2-1.1,0.7
			c-0.1,0.4,0.1,0.8,0.5,1l4.6,1.4C369.5,369.1,370,368.8,370.1,368.4"/>
		<path id="Path_183" class="st18" d="M355.9,350.7c0.4,0.1,0.9-0.1,1.1-0.5l1.4-4.6c0.1-0.5-0.2-1-0.7-1.1c-0.4-0.1-0.9,0.1-1,0.5
			l-1.4,4.6C355.2,350.1,355.4,350.6,355.9,350.7"/>
		<path id="Path_184" class="st18" d="M346.3,380.7c0.4,0.1,0.9-0.1,1.1-0.5l1.4-4.6c0.1-0.5-0.1-0.9-0.6-1.1
			c-0.5-0.1-0.9,0.1-1.1,0.5l-1.4,4.6C345.6,380.1,345.9,380.6,346.3,380.7"/>
		<path id="Path_185" class="st18" d="M272,354.3c0,0.9-0.3,1.6-1.2,1.6s-1.2-0.6-1.2-1.6v-2.4c0-0.9,0.3-1.5,1.2-1.5
			s1.2,0.6,1.2,1.5V354.3z M269.6,346c0-0.9,0.3-1.4,1.1-1.4s1.1,0.5,1.1,1.4v1c0,0.9-0.3,1.4-1.1,1.4s-1.1-0.5-1.1-1.4V346z
			 M274.5,354v-1.6c0.1-1.3-0.5-2.5-1.7-3c1-0.5,1.6-1.5,1.5-2.6v-0.6c0-2.3-1.2-3.6-3.5-3.6s-3.5,1.2-3.5,3.6v0.6
			c-0.1,1.1,0.5,2.1,1.4,2.6c-1.1,0.5-1.8,1.8-1.7,3v1.6c0,2.3,1.1,3.9,3.7,3.9S274.5,356.3,274.5,354"/>
		<path id="Path_186" class="st18" d="M301.6,384.7l-5.4,8.9c-0.2,0.3-0.3,0.8-0.1,1.2l5.2,19.5c0.1,0.2,0.3,0.4,0.5,0.3
			c0,0,0,0,0,0l7.5-2c0.2-0.1,0.4-0.3,0.3-0.5c0,0,0,0,0,0l-7.3-27.3C302.3,384.5,302,384.1,301.6,384.7"/>
		<path id="Path_187" class="st18" d="M283,399.4l-5.4,8.9c-0.2,0.3-0.3,0.8-0.1,1.1l2.8,10.4c0.1,0.2,0.3,0.4,0.5,0.3c0,0,0,0,0,0
			l7.5-2c0.2-0.1,0.4-0.3,0.3-0.5l-4.9-18.2C283.7,399.2,283.4,398.8,283,399.4"/>
		<path id="Path_188" class="st18" d="M302.7,375.4l-0.1-0.1l-0.2,0l0,0l-0.1,0l-5.2,2.8l-0.1,0l-0.1,0.1l0.1,0.3l0.1,0l1.6,0.9
			l-9.3,16.1l-7.4-4.3l-0.2,0.1l-1.2,2l0,0l-6.9,11.9l0.1,0.2l2,1.2l0.2-0.1l6.8-11.7l5.4,3.1l0,0l2,1.2l0.2-0.1l10.5-18.2l1.7,1
			l0.3-0.1l0-0.2v0L302.7,375.4L302.7,375.4z"/>
		<path id="Path_189" class="st18" d="M293.9,397.8l-2.6,4.5l-0.2,0.1L287,400c-0.7-0.4-0.7,0.1-0.7,0.3l4.5,16.8
			c0,0.2,0.3,0.4,0.5,0.3c0,0,0,0,0,0l7.5-2c0.2,0,0.4-0.3,0.3-0.5c0,0,0,0,0,0l-4.6-17C294.6,397.5,294.3,397.2,293.9,397.8"/>
		<path id="Path_190" class="st18" d="M221.8,358.1c0,0.8-0.4,1.4-1.2,1.4s-1.2-0.5-1.2-1.5v-2.6c0-1,0.4-1.5,1.2-1.5
			s1.2,0.6,1.2,1.5L221.8,358.1z M224.3,355.8c0-2.3-1-4-3.7-4s-3.7,1.5-3.7,3.8v2.2c0,2.5,1,3.7,2.8,3.7c0.9,0.1,1.7-0.4,2.1-1.2
			l0,0v3.2c0,0.9-0.4,1.5-1.2,1.5s-1.2-0.5-1.2-1.5v-1H217v0.8c0,2.2,0.8,3.7,3.6,3.7c2.6,0,3.7-1.7,3.7-4L224.3,355.8z"/>
		<path id="Path_191" class="st18" d="M244.5,79.7L244.5,79.7l0,11.5h2.5v-15h-2l-2.3,2.7v2.6h0L244.5,79.7z"/>
		<path id="Path_192" class="st18" d="M245.8,15.3c-1.1-0.2-1.9-1.3-1.7-2.4c0.2-1.1,1.3-1.9,2.4-1.7s1.9,1.3,1.7,2.4c0,0,0,0,0,0
			C248,14.7,246.9,15.5,245.8,15.3"/>
		<path id="Path_193" class="st18" d="M249.4,11.4c0.4-1.4,1.7-2.2,3.1-2l0.7,0.1l0.3,0.1l4.6,0.8c0.4,0,0.8,0.4,0.7,0.9
			S258.4,12,258,12c0,0-0.1,0-0.1,0l-4.8-0.8c-0.2-0.1-0.4,0-0.5,0.2c0,0,0,0.1,0,0.1c0,0.2,0.2,0.3,0.3,0.4l14.5,2.6
			c0.6,0.1,1,0.7,0.9,1.3c-0.1,0.6-0.7,1-1.3,0.9c0,0,0,0,0,0l-8.3-1.5c-0.2,0-0.3,0.1-0.4,0.2c0,0,0,0,0,0c0,0.2,0.1,0.3,0.2,0.4
			c0,0,0,0,0,0l8.3,1.5c0.6,0.1,1.1,0.7,0.9,1.3c-0.1,0.6-0.7,1.1-1.3,0.9c0,0,0,0,0,0L251.9,17c-0.2,0-0.4,0-0.4,0.2
			c-0.1,0.3,0.2,0.4,0.4,0.5l4.8,0.8c0.4,0.1,0.7,0.5,0.6,0.9c-0.1,0.4-0.5,0.7-0.9,0.6l-4.6-0.8l-0.3-0.1l-0.7-0.1
			c-1.4-0.2-2.4-1.5-2.3-2.9V16l0.4-2.2l0.4-2.2L249.4,11.4"/>
		<path id="Path_194" class="st18" d="M244.7,27.5c-1.1,0-2,0.9-2,2c0,1.1,0.9,2,2,2s2-0.9,2-2C246.7,28.4,245.9,27.5,244.7,27.5"/>
		<path id="Path_195" class="st18" d="M248.1,34.1l4.9,2.5c0,0,0.9,0.5,1.3-0.3s-0.5-1.2-0.5-1.2l-4.1-2c0,0-0.3-0.1-0.2-0.4
			s0.5-0.1,0.5-0.1l7.7,3.7l0.4-2.1l5.8,1c0.6,0.1,1.1-0.3,1.1-0.9c0.1-0.5-0.3-1-0.8-1.1l-5.8-1l0.1-0.3l0-0.3l5.8,1
			c0.5,0.1,1.1-0.2,1.2-0.8c0.1-0.5-0.2-1.1-0.8-1.2c0,0-0.1,0-0.1,0l-5.8-1l0.4-2.1l-8.5,0.8c0,0-0.4,0-0.4-0.2s0.3-0.3,0.3-0.3
			l4.6-0.5c0,0,1-0.1,0.9-0.9s-1.1-0.7-1.1-0.7l-5.5,0.7c0,0-1.6,0.3-1.8,1.6l-0.4,2l-0.4,2C246.7,33.3,248.1,34.1,248.1,34.1"/>
		<path id="Path_196" class="st18" d="M242.7,39c-1.1-0.2-2.1,0.5-2.3,1.6c-0.2,1.1,0.5,2.1,1.6,2.3c1.1,0.2,2.1-0.5,2.3-1.6
			C244.5,40.2,243.8,39.2,242.7,39C242.7,39,242.7,39,242.7,39"/>
		<path id="Path_197" class="st18" d="M246,45.6l4.9,2.5c0,0,0.9,0.5,1.3-0.3s-0.5-1.2-0.5-1.2l-4.1-2c0,0-0.3-0.1-0.2-0.4
			s0.5-0.1,0.5-0.1l7.7,3.7l0.4-2.1l5.8,1c0.5,0.1,1.1-0.2,1.2-0.8c0.1-0.5-0.2-1.1-0.8-1.2c0,0,0,0-0.1,0l-5.8-1l0-0.3l0-0.3l5.8,1
			c0.6,0.1,1.1-0.3,1.1-0.9c0.1-0.5-0.3-1-0.8-1.1l-5.8-1l0.4-2.1l-8.5,0.8c0,0-0.4,0-0.4-0.2s0.3-0.3,0.3-0.3l4.6-0.5
			c0,0,1-0.1,0.9-0.9s-1.1-0.7-1.1-0.7l-5.5,0.7c0,0-1.6,0.3-1.8,1.6l-0.4,2l-0.4,2C244.6,44.7,246,45.6,246,45.6"/>
		<path id="Path_198" class="st18" d="M256.6,23c0.2-0.9-0.4-1.7-1.3-1.9s-1.7,0.4-1.9,1.3c-0.2,0.9,0.4,1.7,1.3,1.9c0,0,0,0,0,0
			C255.6,24.4,256.5,23.9,256.6,23"/>
		<path id="Path_199" class="st18" d="M260.9,27.7c0.2,0.2,0.6,0.2,0.8-0.1c0,0,0,0,0,0c0.2-0.2,0.1-0.5-0.1-0.7l-2.6-1.4l0-0.2
			l6.5,1.2l0,0c0.5,0.1,0.9-0.2,1-0.7s-0.2-0.9-0.7-1l-2.6-0.5c0,0-0.4,0-0.3-0.3s0.4-0.2,0.4-0.2l2.6,0.4c0.5,0.1,0.9-0.2,1-0.7
			c0.1-0.5-0.2-0.9-0.7-1l-6.5-1.1l0-0.1l2-0.3l1-0.2c0.2-0.3,0.1-0.7-0.2-0.8l-0.6,0l0,0c-0.1,0-2.7,0.6-3.1,0.6
			c-1.1,0.2-1.2,0.8-1.3,1.5s-0.2,1-0.2,1s-0.1,0.4-0.2,1.2s0.3,1.2,2.5,2.5C259.8,27,260.8,27.7,260.9,27.7L260.9,27.7z"/>
		<path id="Path_200" class="st18" d="M240.3,58.4c0.2-1.1-0.5-2.2-1.7-2.4s-2.2,0.5-2.4,1.7c-0.2,1.1,0.5,2.2,1.7,2.4c0,0,0,0,0,0
			C239,60.2,240.1,59.5,240.3,58.4"/>
		<path id="Path_201" class="st18" d="M241.5,56.1l0,0.2l-0.4,2.2l-0.4,2.2v0.2c-0.1,1.4,0.9,2.7,2.3,2.9l0.7,0.1l0.3,0.1l4.6,0.8
			c0.3,0.1,0.6-0.1,0.8-0.3l0.1,0l9.2,3.5l0.4-0.2v-0.1l-0.2-0.3l-9.2-3.5h-0.1c0-0.4-0.3-0.7-0.7-0.7l-4.8-0.9
			c-0.2,0-0.4-0.1-0.4-0.5c0-0.2,0.3-0.2,0.4-0.2l14.5,2.6c0.6,0.1,1.2-0.3,1.3-0.9c0.1-0.6-0.3-1.2-0.9-1.3l-8.3-1.5
			c-0.2,0-0.3-0.2-0.3-0.4c0,0,0,0,0-0.1c0-0.2,0.2-0.3,0.3-0.3c0,0,0,0,0.1,0l8.3,1.5c0.6,0.1,1.2-0.3,1.4-0.9
			c0.1-0.6-0.3-1.2-0.9-1.4c0,0,0,0,0,0L245,56.5c-0.2,0-0.4-0.1-0.3-0.4c0.1-0.3,0.3-0.3,0.5-0.3l4.8,0.9c0.5,0,0.8-0.4,0.8-0.8
			c0-0.4-0.2-0.7-0.6-0.8l-4.6-0.8l-0.3-0.1l-0.7-0.1C243.2,53.8,241.9,54.7,241.5,56.1"/>
		<path id="Path_202" class="st18" d="M254.5,50.3l-2.4-2l-0.4-0.3c-0.3-0.1-0.6,0.2-0.7,0.5c0,0.2,0,0.4,0.2,0.5l0,0
			c0.5,0.4,1,0.9,1.4,1.3c0.1,0.1,0.2,0.3,0.1,0.5l-0.2,1l-0.2,1c0,0.2-0.1,0.4-0.3,0.5c-0.3,0.2-1.7,0.7-1.8,0.8l0,0
			c-0.2,0.1-0.3,0.2-0.4,0.4c-0.1,0.3,0.2,0.6,0.5,0.7h0.3l3.2-1.1l0.4,0l0.6,0.1l3,1.4l0.1-0.8l2.6,0.5l0,0c0.5,0,0.8-0.4,0.8-0.8
			c0-0.3-0.2-0.6-0.5-0.8l-2.5-0.4h-0.1l0-0.2l0-0.2l0.1,0l2.5,0.4c0.5,0,0.8-0.4,0.8-0.8c0-0.4-0.2-0.7-0.5-0.8l-2.6-0.5l0.1-0.8
			l-3.3,0.3l-0.6-0.1L254.5,50.3"/>
		<path id="Path_203" class="st18" d="M251.5,51.8c0.2-0.9-0.4-1.7-1.3-1.9c-0.9-0.2-1.7,0.4-1.9,1.3c-0.2,0.9,0.4,1.7,1.3,1.9
			C250.5,53.3,251.4,52.7,251.5,51.8"/>
		<path id="Path_204" class="st18" d="M195,74.7v15h-2.5V78.2h0l-1.8,1.8h0v-2.6l2.3-2.7H195z"/>
		<path id="Path_205" class="st18" d="M196.1,74.7h6.3V77l-3.3,12.7h-2.5l3.4-12.9h-3.9V74.7z"/>
		<path id="Path_206" class="st18" d="M194.5,30.7c1.5-2.2,2.1-5,1.5-7.6c-0.1-0.4-0.2-0.8-0.4-1.2c4.2-0.5,8.1,2.5,8.6,6.8
			c0.2,1.9-0.3,3.8-1.3,5.3C200.8,31.6,197.7,30.3,194.5,30.7 M203,38.6c1,4.2-1.6,8.3-5.8,9.3c-1.3,0.3-2.7,0.3-4-0.1
			c1.3-2.1,1.7-4.7,1.1-7.1c-0.1-0.6-0.3-1.2-0.6-1.8c3,0.9,6.3,0.2,8.7-1.7C202.8,37.6,202.9,38.1,203,38.6 M177.4,44.5
			c-0.1-0.5-0.2-1.1-0.2-1.6c3.1,0.7,6.3-0.1,8.6-2.2c0.1,3.1,1.7,6,4.4,7.7c-3.1,2.9-8,2.8-10.9-0.4
			C178.4,47.1,177.7,45.8,177.4,44.5 M171.9,35.2c-0.9-3.8,1.3-7.7,5-9c0.3,3.1,2.1,5.9,4.9,7.5c-3,1.1-5.3,3.5-6.1,6.6
			C173.7,39.1,172.4,37.3,171.9,35.2 M184.8,17.7c-3,0.7-5.3,3.1-5.9,6.1c3.2-0.1,6.2,1.2,8.1,3.7c0.7-3.1,2.8-5.6,5.7-6.9
			C190.9,18.2,187.8,17,184.8,17.7 M190.5,34.4c2.7,3.3,7.5,3.8,10.9,1.2c0.1,0,0.1-0.1,0.2-0.1c-2.7-3.3-7.5-3.8-10.8-1.2
			C190.6,34.3,190.6,34.4,190.5,34.4 M186.9,35.3c-4.1-1.1-8.3,1.4-9.4,5.5c0,0.1,0,0.1,0,0.2c1.2,0.3,2.4,0.3,3.7,0.1
			C184,40.4,186.2,38.1,186.9,35.3 M178.8,25.8c0,0.4,0.1,0.8,0.2,1.2c0.9,3.7,4.3,6.3,8.1,6c0-0.4-0.1-0.8-0.2-1.2
			C186.1,28,182.7,25.5,178.8,25.8 M191.5,46.9c2.3-3.6,1.2-8.3-2.4-10.6c0,0-0.1-0.1-0.1-0.1c-2.3,3.6-1.2,8.3,2.4,10.6
			C191.4,46.9,191.5,46.9,191.5,46.9 M194.1,23.5c-0.1-0.4-0.2-0.8-0.4-1.1c-3.6,1.4-5.6,5.2-4.7,8.9c0.1,0.4,0.2,0.8,0.4,1.1
			C192.9,31,194.9,27.3,194.1,23.5 M206,27.4c-1.2-5.1-6.1-8.3-11.2-7.4c-2.9-4.5-8.8-5.9-13.3-3c-2.5,1.6-4.1,4.2-4.5,7.1
			c-5.2,1.4-8.2,6.7-6.9,11.8c0.7,2.8,2.7,5.1,5.2,6.3c-0.3,5.3,3.8,9.9,9.1,10.2c2.9,0.2,5.7-1,7.7-3.1c5,1.9,10.6-0.6,12.5-5.6
			c1-2.6,0.8-5.6-0.5-8.1C205.9,33.4,206.6,30.3,206,27.4"/>
		<path id="Path_207" class="st18" d="M247.3,427.1l-10.6,6.1v-12.2l10.6-6.1V427.1z M212.3,433.2v-11.3l9.8,5.7L212.3,433.2z
			 M210.7,433.2l-10.6-6.1v-12.2l10.6,6.1V433.2z M222.1,399.3l-9.8,5.7v-11.3L222.1,399.3z M235.1,405l-9.8-5.7l9.8-5.7L235.1,405z
			 M225.3,413.4l10.6,6.1l10.6-6.1l-10.6-6.1L225.3,413.4z M222.9,412v-11.3l-9.8,5.7L222.9,412z M234.3,406.4l-9.8-5.7V412
			L234.3,406.4z M222.9,426.1v-11.3l-9.8,5.7L222.9,426.1z M248.5,412.7l-11.8-6.8v-13.6c0-0.3-0.2-0.6-0.4-0.7l-12.2-7
			c-0.2-0.1-0.6-0.1-0.8,0l-12.2,7c-0.3,0.1-0.4,0.4-0.4,0.7v13.6l-11.8,6.8c-0.3,0.1-0.4,0.4-0.4,0.7v14.1c0,0.3,0.2,0.6,0.4,0.7
			l12.2,7l0.4,0.1l0.4-0.1l11.8-6.8l11.8,6.8l0.4,0.1l0.4-0.1l12.2-7c0.3-0.1,0.4-0.4,0.4-0.7v-14.1
			C249,413.1,248.8,412.9,248.5,412.7"/>
		<rect id="Rectangle_230" y="0" class="st20" width="441.6" height="441.5"/>
		<path id="Path_208" class="st19" d="M143.4,206.6v11.3h2.1c2.8,0,4.8-2,4.8-5.6v-0.1c0-3.6-1.9-5.6-4.8-5.6L143.4,206.6z
			 M139.6,203.3h5.8c5.2,0,8.6,3.6,8.6,8.9v0.2c0,5.3-3.4,8.9-8.6,8.9h-5.8L139.6,203.3z"/>
		<path id="Path_209" class="st19" d="M156.1,203.3h11.6v3.4h-7.9v3.9h7v3.4h-7v4h8v3.4h-11.7V203.3z"/>
		<path id="Path_210" class="st19" d="M168.4,203.3h4l3.8,12.4l3.8-12.4h3.9l-6.1,18.2h-3.5L168.4,203.3z"/>
		<path id="Path_211" class="st19" d="M185.3,203.3H197v3.4H189v3.9h7v3.4h-7v4h8v3.4h-11.7V203.3z"/>
		<path id="Path_212" class="st19" d="M199,203.3h3.7v14.6h7.3v3.4h-11V203.3z"/>
		<path id="Path_213" class="st19" d="M222.5,212.4v-0.2c0-3.6-1.8-5.8-4.3-5.8s-4.3,2.2-4.3,5.8v0.2c0,3.6,1.8,5.8,4.3,5.8
			S222.5,216,222.5,212.4 M210.1,212.5v-0.3c0-5.4,3.4-9.2,8.2-9.2s8.1,3.8,8.1,9.2v0.3c0,5.4-3.4,9.2-8.2,9.2
			S210.1,217.9,210.1,212.5"/>
		<path id="Path_214" class="st19" d="M234.2,212.5c1.5,0.1,2.9-1,3-2.5c0-0.1,0-0.3,0-0.4v0c0-1.9-1.1-2.9-3.1-2.9h-2v5.8
			L234.2,212.5z M228.4,203.3h6c4.1,0,6.6,2.3,6.6,6.2v0.1c0,4.1-3,6.2-6.8,6.3h-2.1v5.5h-3.7L228.4,203.3z"/>
		<path id="Path_215" class="st19" d="M242.5,203.3h3.9l4,7.3l4-7.3h3.9v18.1h-3.7v-11.5l-4.2,7.5h-0.1l-4.2-7.4v11.5h-3.6V203.3z"
			/>
		<path id="Path_216" class="st19" d="M261,203.3h11.6v3.4h-7.9v3.9h7v3.4h-7v4h8v3.4H261V203.3z"/>
		<path id="Path_217" class="st19" d="M274.7,203.3h3.4l6.9,10.5v-10.5h3.7v18.1h-3.2l-7.1-10.9v10.9h-3.7V203.3z"/>
		<path id="Path_218" class="st19" d="M294.8,206.7h-4.5v-3.5h12.8v3.5h-4.5v14.6h-3.7V206.7z"/>
		<path id="Path_219" class="st19" d="M138.3,194.8l2.4-3c1.3,1.3,3.1,2.1,4.9,2.2c1.6,0,2.5-0.8,2.5-2v0c0-1-0.6-1.6-3.4-2.7
			c-3.5-1.4-5.7-2.7-5.7-6.1v-0.1c0-3.5,2.7-5.8,6.5-5.8c2.4,0,4.6,0.8,6.4,2.4l-2.3,3.1c-1.2-1.1-2.6-1.7-4.2-1.8
			c-1.4,0-2.3,0.7-2.3,1.7v0c0,1.1,0.7,1.7,3.8,2.9c3.5,1.4,5.3,2.8,5.3,5.9v0.1c0,3.7-2.8,5.9-6.6,5.9
			C142.9,197.7,140.3,196.6,138.3,194.8"/>
		<path id="Path_220" class="st19" d="M154,189.7v-12.1h4.1v12.1c0,2.8,1.3,4.2,3.5,4.2s3.5-1.4,3.5-4.1v-12.2h4.1v12
			c0,5.5-3,8.1-7.6,8.1S154,195.1,154,189.7"/>
		<path id="Path_221" class="st19" d="M170.3,194.8l2.4-3c1.3,1.3,3.1,2.1,4.9,2.2c1.6,0,2.5-0.8,2.5-2v0c0-1-0.6-1.6-3.4-2.7
			c-3.5-1.4-5.7-2.7-5.7-6.1v-0.1c0-3.5,2.7-5.8,6.5-5.8c2.4,0,4.6,0.8,6.4,2.4l-2.3,3.1c-1.2-1.1-2.6-1.7-4.2-1.8
			c-1.4,0-2.3,0.7-2.3,1.7v0c0,1.1,0.7,1.7,3.8,2.9c3.4,1.4,5.3,2.8,5.3,5.9v0.1c0,3.7-2.8,5.9-6.6,5.9
			C174.9,197.7,172.3,196.6,170.3,194.8"/>
		<path id="Path_222" class="st19" d="M189.6,181.4h-5v-3.8h14v3.8h-5v16h-4.1L189.6,181.4z"/>
		<path id="Path_223" class="st19" d="M208,189.5l-2.1-6.4l-2.2,6.4H208z M204,177.5h3.9l7.1,19.9h-4.2l-1.5-4.3h-6.8l-1.4,4.3h-4.1
			L204,177.5z"/>
		<rect id="Rectangle_231" x="216.5" y="177.6" class="st19" width="4.1" height="19.8"/>
		<path id="Path_224" class="st19" d="M223.7,177.6h3.8l7.6,11.5v-11.5h4v19.8h-3.5l-7.8-12v12h-4V177.6z"/>
		<path id="Path_225" class="st19" d="M251.6,189.5l-2.1-6.4l-2.2,6.4H251.6z M247.5,177.5h3.9l7.1,19.9h-4.2l-1.5-4.3H246l-1.4,4.3
			h-4.1L247.5,177.5z"/>
		<path id="Path_226" class="st19" d="M267.5,189.2h-3.6v4.6h3.7c1.8,0,3-0.8,3-2.3v0C270.6,190,269.6,189.2,267.5,189.2
			 M269.8,183.4c0-1.4-1-2.2-2.8-2.2h-3.1v4.5h2.9C268.6,185.7,269.8,185,269.8,183.4L269.8,183.4z M259.9,177.6h7.4
			c1.9-0.1,3.7,0.5,5.2,1.7c0.9,0.9,1.4,2.1,1.3,3.4v0.1c0.1,1.9-1,3.6-2.7,4.3c2.1,0.8,3.5,2.1,3.5,4.7v0.1c0,3.6-2.9,5.4-7.2,5.4
			h-7.6L259.9,177.6z"/>
		<path id="Path_227" class="st19" d="M276.6,177.6h4.1v16h8v3.8h-12.1V177.6z"/>
		<path id="Path_228" class="st19" d="M290.4,177.6h12.8v3.7h-8.7v4.3h7.6v3.7h-7.6v4.4h8.8v3.7h-12.9V177.6z"/>
		<path id="Path_229" class="st19" d="M159.3,243h17.5c-0.3,14-8.1,21.1-18.5,21.1c-11.2,0-18.4-9.5-18.4-19.6s7.2-19.6,18.4-19.6
			c12.4,0,15.9,7.8,17.3,11.8l-7.9,0.5c-1.4-3.3-4.1-5.5-9.4-5.5c-5.9,0-10.6,4.8-10.6,12.9c0,6.8,4.3,12.9,11.1,12.9
			c4.7,0.2,8.8-3.2,9.6-7.9h-9.1V243z"/>
		<path id="Path_230" class="st19" d="M251.5,225.6h7.5v30.7h14.5v7h-22V225.6z"/>
		<path id="Path_231" class="st19" d="M294.7,235.6c0-2.6-2.5-4.2-5.5-4.2c-3.8,0-6,1.7-6,4.1c0,2.6,2.5,3.9,4.4,4.5l6.9,2.2
			c5,1.6,8.6,4.5,8.6,10.4c0,4.6-3.3,11.6-13.8,11.6c-13.1,0-14.3-8.5-14.3-11.9l7.5-0.1c0,4,3.2,5.6,6.8,5.6c2.6,0,6.2-1.2,6.2-4.2
			c0-2-0.9-3.1-4.6-4.4l-8.2-3c-4.1-1.3-6.9-5.1-7.1-9.4c0-4.8,3.3-11.8,13.1-11.8c11.7,0,13.5,7.7,13.5,10.5L294.7,235.6z"/>
		<path id="Path_232" class="st21" d="M188.8,239.8c0.5-0.8,1-1.5,1.7-2.1l-5.5-6c-1.4,1.3-2.6,2.8-3.5,4.5L188.8,239.8z"/>
		<path id="Path_233" class="st22" d="M202.3,235.6c0.8,0.4,1.6,0.9,2.3,1.4l5.5-6c-1.5-1.3-3.1-2.3-4.9-3L202.3,235.6z"/>
		<path id="Path_234" class="st23" d="M214.8,237.4l-7.3,3.6c0.4,0.8,0.6,1.7,0.7,2.6l8.1-0.8C216.2,240.9,215.6,239.1,214.8,237.4"
			/>
		<path id="Path_235" class="st24" d="M207,240l7.3-3.6c-0.9-1.7-2-3.2-3.4-4.5l-5.5,6C206.1,238.5,206.6,239.2,207,240"/>
		<path id="Path_236" class="st25" d="M187.4,245.1v-0.5l-8.1-0.7c0,0.4,0,0.8,0,1.2c0,1.5,0.2,3,0.6,4.5l7.8-2.2
			C187.5,246.6,187.4,245.9,187.4,245.1"/>
		<path id="Path_237" class="st26" d="M206,251.8c-0.6,0.7-1.2,1.3-2,1.9l4.3,6.9c1.6-1.1,3-2.4,4.2-3.9L206,251.8z"/>
		<path id="Path_238" class="st27" d="M208.4,245.1c0,0.8-0.1,1.5-0.2,2.2l7.8,2.2c0.4-1.5,0.5-3,0.5-4.5c0-0.4,0-0.8,0-1.1
			l-8.1,0.8L208.4,245.1"/>
		<path id="Path_239" class="st28" d="M189.9,251.9l-6.5,4.9c1.2,1.5,2.6,2.8,4.2,3.8l4.3-6.9C191.2,253.3,190.5,252.6,189.9,251.9"
			/>
		<path id="Path_240" class="st29" d="M187.5,243.5c0.1-0.9,0.4-1.8,0.8-2.6l-7.3-3.6c-0.8,1.7-1.4,3.6-1.6,5.5L187.5,243.5z"/>
		<path id="Path_241" class="st30" d="M207.3,261.2l-4.3-6.9c-0.8,0.4-1.6,0.8-2.5,1l1.5,8C203.9,262.9,205.7,262.2,207.3,261.2"/>
		<path id="Path_242" class="st31" d="M207.9,248.5c-0.3,0.8-0.7,1.6-1.1,2.3l6.5,4.9c1.1-1.5,1.9-3.2,2.5-5L207.9,248.5z"/>
		<path id="Path_243" class="st32" d="M199.4,255.5c-0.5,0.1-1,0.1-1.5,0.1c-0.4,0-0.8,0-1.2-0.1l-1.5,8c1.9,0.3,3.8,0.3,5.8,0
			L199.4,255.5z"/>
		<path id="Path_244" class="st33" d="M198.6,234.6c0.9,0.1,1.8,0.2,2.6,0.5l2.9-7.6c-1.8-0.6-3.6-1-5.5-1L198.6,234.6z"/>
		<path id="Path_245" class="st34" d="M195.5,255.4c-0.9-0.2-1.8-0.5-2.6-1l-4.3,6.9c1.7,1,3.5,1.7,5.4,2L195.5,255.4z"/>
		<path id="Path_246" class="st35" d="M194.7,235.1c0.9-0.3,1.8-0.4,2.7-0.5v-8.1c-1.9,0.1-3.8,0.4-5.6,1L194.7,235.1z"/>
		<path id="Path_247" class="st36" d="M189.2,251c-0.5-0.8-0.9-1.6-1.2-2.5l-7.8,2.2c0.6,1.8,1.5,3.6,2.6,5.2L189.2,251z"/>
		<path id="Path_248" class="st37" d="M191.4,236.9c0.7-0.5,1.4-1,2.3-1.4l-2.9-7.6c-1.7,0.7-3.4,1.7-4.8,3L191.4,236.9z"/>
		<path id="Path_249" class="st19" d="M232.2,234.3L232.2,234.3l-4.9,14.9h9.8L232.2,234.3z M239.1,255.4h-14l-2.5,8h-8.3l13.9-38.3
			h8l13.7,38.3h-8.4L239.1,255.4z"/>
	</g>
</g>
</svg>
