<svg xmlns="http://www.w3.org/2000/svg" xmlns:xlink="http://www.w3.org/1999/xlink" viewBox="0 0 180.5 94.02"><defs><style>.cls-1{fill:none;}.cls-2{clip-path:url(#clip-path);}.cls-3{fill:#009edb;}.cls-4{fill:#56c02b;}.cls-5{fill:#dda83a;}.cls-6{fill:#c5192d;}.cls-7{fill:#4c9f38;}.cls-8{fill:#3f7e44;}.cls-9{fill:#fcc30b;}.cls-10{fill:#ff3a21;}.cls-11{fill:#fd9d24;}.cls-12{fill:#0a97d9;}.cls-13{fill:#a21942;}.cls-14{fill:#26bde2;}.cls-15{fill:#fd6925;}.cls-16{fill:#e5243b;}.cls-17{fill:#dd1367;}.cls-18{fill:#19486a;}.cls-19{fill:#bf8b2e;}.cls-20{fill:#00689d;}</style><clipPath id="clip-path" transform="translate(-7.95 -11.22)"><rect class="cls-1" width="196.79" height="116.42"/></clipPath></defs><title>Asset 1</title><g id="Layer_2" data-name="Layer 2"><g id="Layer_1-2" data-name="Layer 1"><g class="cls-2"><path class="cls-3" d="M42,99.37a15,15,0,0,1-6.57,4.31,27.54,27.54,0,0,1-9.4,1.53,18.58,18.58,0,0,1-9.5-2.37A15.75,15.75,0,0,1,10.22,96,24.22,24.22,0,0,1,8,85.4V82.56a25.6,25.6,0,0,1,2.11-10.82,15.55,15.55,0,0,1,6.08-7,17.51,17.51,0,0,1,9.3-2.42q7.41,0,11.6,3.54t5,10.31H33.63a8.36,8.36,0,0,0-2.53-5.25,8.1,8.1,0,0,0-5.41-1.66A7.62,7.62,0,0,0,19,72.56q-2.28,3.3-2.32,9.8V85q0,6.57,2.49,9.92a8.55,8.55,0,0,0,7.31,3.35c3.23,0,5.53-.68,6.91-2.06V89.05H25.57V82.71H42Z" transform="translate(-7.95 -11.22)"/><path class="cls-3" d="M113,96.06H98l-2.87,8.6H85.94l15.55-41.73h8l15.61,41.74h-9.14Zm-12.75-7h10.43l-5.24-15.62Z" transform="translate(-7.95 -11.22)"/><polygon class="cls-3" points="128.33 86.53 146.59 86.53 146.59 93.44 119.73 93.44 119.74 51.7 128.34 51.7 128.33 86.53"/><path class="cls-3" d="M179.82,93.72A4.42,4.42,0,0,0,178.1,90a22.71,22.71,0,0,0-6.19-2.76,43.2,43.2,0,0,1-7.08-2.85q-7.11-3.84-7.11-10.35a10.09,10.09,0,0,1,1.91-6,12.36,12.36,0,0,1,5.47-4.14,20.51,20.51,0,0,1,8-1.49,18.71,18.71,0,0,1,8,1.62,12.62,12.62,0,0,1,5.43,4.57,12,12,0,0,1,1.94,6.71h-8.6A5.62,5.62,0,0,0,178,70.8,7.41,7.41,0,0,0,173,69.21a7.91,7.91,0,0,0-4.9,1.33,4.2,4.2,0,0,0-1.75,3.51,4,4,0,0,0,2.05,3.41,22.94,22.94,0,0,0,6,2.58q7.33,2.22,10.69,5.48a10.89,10.89,0,0,1,3.36,8.14,10.06,10.06,0,0,1-4.11,8.5q-4.09,3.07-11,3.08a21.21,21.21,0,0,1-8.77-1.77,13.83,13.83,0,0,1-6-4.83,12.39,12.39,0,0,1-2.07-7.11h8.63c0,4.6,2.75,6.9,8.25,6.91a8.07,8.07,0,0,0,4.79-1.25,4.07,4.07,0,0,0,1.72-3.48" transform="translate(-7.95 -11.22)"/><path class="cls-4" d="M57.35,78.26a11.64,11.64,0,0,1,1.88-2.42l-6.17-6.76a21.11,21.11,0,0,0-3.91,5.09Z" transform="translate(-7.95 -11.22)"/><path class="cls-5" d="M72.46,73.48a12,12,0,0,1,2.59,1.62l6.18-6.75a21.39,21.39,0,0,0-5.48-3.42Z" transform="translate(-7.95 -11.22)"/><path class="cls-6" d="M86.62,75.51,78.43,79.6a11.7,11.7,0,0,1,.82,2.89l9.11-.86a21,21,0,0,0-1.74-6.12" transform="translate(-7.95 -11.22)"/><path class="cls-7" d="M77.84,78.41,86,74.33a20.75,20.75,0,0,0-3.83-5.08L76,76a12.27,12.27,0,0,1,1.82,2.42" transform="translate(-7.95 -11.22)"/><path class="cls-8" d="M55.72,84.24c0-.19,0-.37,0-.56l-9.11-.81c0,.45,0,.91,0,1.37a21.27,21.27,0,0,0,.62,5.07L56,86.78a11.84,11.84,0,0,1-.28-2.54" transform="translate(-7.95 -11.22)"/><path class="cls-9" d="M76.69,91.73a12.21,12.21,0,0,1-2.22,2.09l4.81,7.79A20.82,20.82,0,0,0,84,97.24Z" transform="translate(-7.95 -11.22)"/><path class="cls-10" d="M79.37,84.24a11.56,11.56,0,0,1-.27,2.51l8.81,2.53a21,21,0,0,0,.61-5c0-.44,0-.86,0-1.29l-9.11.86v.43" transform="translate(-7.95 -11.22)"/><path class="cls-11" d="M58.55,91.9l-7.29,5.54A21,21,0,0,0,56,101.75L60.84,94a11.86,11.86,0,0,1-2.29-2.07" transform="translate(-7.95 -11.22)"/><path class="cls-12" d="M55.87,82.37a11.62,11.62,0,0,1,.87-2.94l-8.19-4.08a20.94,20.94,0,0,0-1.81,6.2Z" transform="translate(-7.95 -11.22)"/><path class="cls-13" d="M78.16,102.32l-4.81-7.78a11.84,11.84,0,0,1-2.8,1.14l1.69,9a20.55,20.55,0,0,0,5.92-2.36" transform="translate(-7.95 -11.22)"/><path class="cls-14" d="M78.75,88a11.86,11.86,0,0,1-1.28,2.63l7.31,5.52a20.79,20.79,0,0,0,2.77-5.63Z" transform="translate(-7.95 -11.22)"/><path class="cls-15" d="M69.25,95.94a11.83,11.83,0,0,1-1.7.12A12.48,12.48,0,0,1,66.17,96l-1.7,9a22.33,22.33,0,0,0,3.08.22,21.27,21.27,0,0,0,3.4-.27Z" transform="translate(-7.95 -11.22)"/><path class="cls-16" d="M68.3,72.43a11.8,11.8,0,0,1,2.93.57l3.29-8.55a20.72,20.72,0,0,0-6.22-1.17Z" transform="translate(-7.95 -11.22)"/><path class="cls-17" d="M64.87,95.76A11.73,11.73,0,0,1,62,94.66l-4.81,7.79a21,21,0,0,0,6,2.3Z" transform="translate(-7.95 -11.22)"/><path class="cls-18" d="M64,73a11.36,11.36,0,0,1,3-.53V63.27a20.86,20.86,0,0,0-6.3,1.15Z" transform="translate(-7.95 -11.22)"/><path class="cls-19" d="M57.75,90.85a11.83,11.83,0,0,1-1.4-2.8l-8.8,2.53a21.11,21.11,0,0,0,2.91,5.81Z" transform="translate(-7.95 -11.22)"/><path class="cls-20" d="M60.22,75a11.6,11.6,0,0,1,2.53-1.53l-3.3-8.54a21,21,0,0,0-5.4,3.31Z" transform="translate(-7.95 -11.22)"/><path class="cls-3" d="M18.88,25.47a1.89,1.89,0,0,0-.72-1.57,8.93,8.93,0,0,0-2.5-1.16,22.17,22.17,0,0,1-2.93-1.17Q9,19.76,9,16.57A4.47,4.47,0,0,1,10,13.78a5.9,5.9,0,0,1,2.61-1.89,10.32,10.32,0,0,1,3.79-.67A9,9,0,0,1,20,12,5.92,5.92,0,0,1,22.57,14a5.47,5.47,0,0,1,.9,3.1H18.89a2.33,2.33,0,0,0-.71-1.81,2.78,2.78,0,0,0-1.93-.64,3.18,3.18,0,0,0-1.95.54,1.61,1.61,0,0,0,.07,2.71,9.86,9.86,0,0,0,2.77,1.23,16.59,16.59,0,0,1,3.24,1.37,5.45,5.45,0,0,1,3.09,4.91,4.66,4.66,0,0,1-1.88,3.92,8.4,8.4,0,0,1-5.17,1.43,10.32,10.32,0,0,1-4.2-.83A6.37,6.37,0,0,1,9.4,27.69a5.86,5.86,0,0,1-1-3.33h4.6a2.93,2.93,0,0,0,.8,2.26,3.74,3.74,0,0,0,2.57.72,2.94,2.94,0,0,0,1.8-.49,1.63,1.63,0,0,0,.66-1.38" transform="translate(-7.95 -11.22)"/><path class="cls-3" d="M41,11.48V24a7.06,7.06,0,0,1-.91,3.67A5.79,5.79,0,0,1,37.54,30a9.1,9.1,0,0,1-4,.81A7.84,7.84,0,0,1,28.07,29a6.39,6.39,0,0,1-2-4.94V11.48h4.62V24.14q.08,3.12,2.9,3.12a2.83,2.83,0,0,0,2.16-.78,3.65,3.65,0,0,0,.73-2.55V11.48Z" transform="translate(-7.95 -11.22)"/><path class="cls-3" d="M54,25.47a1.91,1.91,0,0,0-.71-1.57,9.17,9.17,0,0,0-2.51-1.16,22.75,22.75,0,0,1-2.93-1.17q-3.7-1.82-3.71-5a4.47,4.47,0,0,1,.93-2.79,5.9,5.9,0,0,1,2.61-1.89,10.32,10.32,0,0,1,3.79-.67,9.07,9.07,0,0,1,3.69.73A5.89,5.89,0,0,1,57.69,14a5.47,5.47,0,0,1,.9,3.1H54a2.33,2.33,0,0,0-.71-1.81,2.78,2.78,0,0,0-1.93-.64,3.18,3.18,0,0,0-1.95.54,1.6,1.6,0,0,0,.08,2.71,9.63,9.63,0,0,0,2.76,1.23,16.59,16.59,0,0,1,3.24,1.37,5.45,5.45,0,0,1,3.09,4.91,4.66,4.66,0,0,1-1.88,3.92,8.4,8.4,0,0,1-5.17,1.43,10.36,10.36,0,0,1-4.2-.83,6.37,6.37,0,0,1-2.82-2.28,5.93,5.93,0,0,1-1-3.33h4.61A2.93,2.93,0,0,0,49,26.62a3.74,3.74,0,0,0,2.57.72,2.94,2.94,0,0,0,1.8-.49A1.63,1.63,0,0,0,54,25.47" transform="translate(-7.95 -11.22)"/><polygon class="cls-3" points="68.22 3.81 62.51 3.81 62.51 19.32 57.91 19.32 57.91 3.81 52.3 3.81 52.3 0.26 68.22 0.26 68.22 3.81"/><path class="cls-3" d="M87.63,27h-6.3l-1.09,3.56H75.33l7-19.06h4.31l7,19.06H88.74Zm-5.2-3.55h4.1l-2-6.61Z" transform="translate(-7.95 -11.22)"/><rect class="cls-3" x="87.7" y="0.26" width="4.58" height="19.05"/><polygon class="cls-3" points="111.65 19.31 107.08 19.31 100.33 7.46 100.33 19.31 95.74 19.31 95.74 0.26 100.33 0.26 107.07 12.12 107.07 0.26 111.65 0.26 111.65 19.31"/><path class="cls-3" d="M133.83,27h-6.3l-1.1,3.56h-4.9l7-19.06h4.32l7,19.06h-4.93Zm-5.2-3.55h4.1l-2.06-6.61Z" transform="translate(-7.95 -11.22)"/><path class="cls-3" d="M141.53,30.54V11.48h6.84a9.71,9.71,0,0,1,5.6,1.35,4.49,4.49,0,0,1,1.91,3.91,4.49,4.49,0,0,1-.68,2.53,3.92,3.92,0,0,1-2,1.54,4,4,0,0,1,2.29,1.47,4.27,4.27,0,0,1,.8,2.62,5,5,0,0,1-1.77,4.2,8.48,8.48,0,0,1-5.26,1.44Zm4.59-11.11h2.4a3.39,3.39,0,0,0,2.14-.56,1.92,1.92,0,0,0,.64-1.58,2,2,0,0,0-.69-1.74,3.68,3.68,0,0,0-2.24-.53h-2.25Zm0,3V27h3a2.85,2.85,0,0,0,1.91-.57,2,2,0,0,0,.67-1.6,2.11,2.11,0,0,0-2.37-2.39Z" transform="translate(-7.95 -11.22)"/><polygon class="cls-3" points="155.73 15.78 163.72 15.78 163.72 19.31 151.13 19.31 151.13 0.26 155.73 0.26 155.73 15.78"/><polygon class="cls-3" points="177.75 11.23 170.52 11.23 170.52 15.78 179.05 15.78 179.05 19.31 165.93 19.31 165.93 0.26 179.08 0.26 179.08 3.81 170.52 3.81 170.52 7.83 177.75 7.83 177.75 11.23"/><path class="cls-3" d="M9,56.31V37.64h6a8.81,8.81,0,0,1,4.45,1.12,7.86,7.86,0,0,1,3.09,3.17,9.67,9.67,0,0,1,1.12,4.58v.86A9.56,9.56,0,0,1,22.61,52a7.82,7.82,0,0,1-3.05,3.17,8.6,8.6,0,0,1-4.39,1.17Zm4.5-15.2V52.84h1.56a3.51,3.51,0,0,0,3-1.38,6.73,6.73,0,0,0,1-4.09v-.81a6.74,6.74,0,0,0-1-4.08,3.57,3.57,0,0,0-3-1.37Z" transform="translate(-7.95 -11.22)"/><polygon class="cls-3" points="28.65 37.16 22.04 37.16 22.04 41.62 29.93 41.62 29.93 45.08 17.54 45.08 17.54 26.41 29.96 26.41 29.96 29.89 22.04 29.89 22.04 33.83 28.65 33.83 28.65 37.16"/><polygon class="cls-3" points="39.8 40.01 43.52 26.41 48.55 26.41 42.26 45.08 37.34 45.08 31.11 26.41 36.1 26.41 39.8 40.01"/><polygon class="cls-3" points="60.95 37.16 54.4 37.16 54.4 41.62 62.23 41.62 62.23 45.08 49.9 45.08 49.9 26.41 62.26 26.41 62.26 29.89 54.4 29.89 54.4 33.83 60.95 33.83 60.95 37.16"/><polygon class="cls-3" points="68.28 41.62 75.4 41.62 75.4 45.08 63.78 45.08 63.78 26.41 68.28 26.41 68.28 41.62"/><path class="cls-3" d="M100.09,47.36a11.06,11.06,0,0,1-1,4.83,7.58,7.58,0,0,1-2.88,3.24,8.65,8.65,0,0,1-8.48,0,7.56,7.56,0,0,1-2.88-3.14,10.61,10.61,0,0,1-1.08-4.68v-1a11.08,11.08,0,0,1,1-4.84,7.41,7.41,0,0,1,2.89-3.24,8.52,8.52,0,0,1,8.5,0A7.52,7.52,0,0,1,99,41.72a10.74,10.74,0,0,1,1,4.78Zm-4.58-.79a7.84,7.84,0,0,0-.93-4.22,3,3,0,0,0-2.66-1.44c-2.25,0-3.45,1.69-3.58,5.07v1.38a8.1,8.1,0,0,0,.91,4.21,3.17,3.17,0,0,0,5.34,0,8,8,0,0,0,.93-4.17Z" transform="translate(-7.95 -11.22)"/><path class="cls-3" d="M106.38,50v6.34h-4.5V37.64h7.45a8.65,8.65,0,0,1,3.79.79,6,6,0,0,1,2.55,2.24,6.14,6.14,0,0,1,.9,3.3,5.42,5.42,0,0,1-1.95,4.37A8.14,8.14,0,0,1,109.25,50Zm0-3.47h3a2.76,2.76,0,0,0,2-.66A2.41,2.41,0,0,0,112,44a3,3,0,0,0-.71-2.09,2.51,2.51,0,0,0-1.92-.8h-3Z" transform="translate(-7.95 -11.22)"/><polygon class="cls-3" points="116.19 26.41 120.35 39.4 124.51 26.41 130.43 26.41 130.43 45.08 125.92 45.08 125.92 40.72 126.35 31.8 121.84 45.08 118.86 45.08 114.34 31.79 114.78 40.72 114.78 45.08 110.27 45.08 110.27 26.41 116.19 26.41"/><polygon class="cls-3" points="143.56 37.16 136.94 37.16 136.94 41.62 144.84 41.62 144.84 45.08 132.44 45.08 132.44 26.41 144.87 26.41 144.87 29.89 136.94 29.89 136.94 33.83 143.56 33.83 143.56 37.16"/><polygon class="cls-3" points="161.95 45.08 157.47 45.08 150.86 33.47 150.86 45.08 146.36 45.08 146.36 26.41 150.86 26.41 157.46 38.03 157.46 26.41 161.95 26.41 161.95 45.08"/><polygon class="cls-3" points="179.08 29.89 173.48 29.89 173.48 45.08 168.97 45.08 168.97 29.89 163.47 29.89 163.47 26.41 179.08 26.41 179.08 29.89"/></g></g></g></svg>