<svg xmlns="http://www.w3.org/2000/svg" viewBox="0 0 142.53 89.59"><defs><style>.cls-1{fill:#6c757d;}</style></defs><title>Asset 1</title><g id="Layer_2" data-name="Layer 2"><g id="Layer_1-2" data-name="Layer 1"><g id="Layer_2-2" data-name="Layer 2"><g id="Layer_1-2-2" data-name="Layer 1-2"><path class="cls-1" d="M102.22,16.49A14.79,14.79,0,1,0,117,1.7h0a14.69,14.69,0,0,0-14.78,14.6ZM117,26a9.51,9.51,0,1,1,9.51-9.51h0A9.6,9.6,0,0,1,117,26Z"/><path class="cls-1" d="M119.75,36.13A22.84,22.84,0,0,0,97.15,56.4c-1.05-2.11-2.11-4.22-2.74-5.7-.43-1.06-.85-2.11-1.27-3a10.69,10.69,0,0,0-9.72-6.47l-4.85,1.26A7.79,7.79,0,0,0,75.82,45c-2.11,3.38-1.27,7.39-1.06,8.23,1.91,12.89,11.2,36.33,31.9,36.33h1.68a52.36,52.36,0,0,0,16.06-4.65,35.72,35.72,0,0,0,12-9.29c.43-.42.64-1.06,1.06-1.48V87a2.54,2.54,0,0,0,5.07,0V58.94A23,23,0,0,0,119.75,36.13ZM132,72.45c-5.49,7-14.57,9.93-20.06,11.2a37,37,0,0,1-4.44.84,14.92,14.92,0,0,1-6.12-.63,30.76,30.76,0,0,1-4.65-1.69C83.21,74.78,79.62,52.81,79.62,52.6v-.21A6.85,6.85,0,0,1,80,48c.22-.42.64-.84,1.9-1.26a5.55,5.55,0,0,1,6.34,3.16v.22a17,17,0,0,1,1.27,2.74C91.66,57.88,94,63,96.94,66.33a13.77,13.77,0,0,0,2.53,2.53A15.73,15.73,0,0,0,102,70.34c.42.21.84.21,1.27.42,1.9.43,4.64,0,7.6-3.16,4.22-4.65,5.7-12.89,5.7-13.31v-.42a2.55,2.55,0,0,0-5.07-.42c-.42,1.9-1.69,7.81-4.43,10.55-1.69,1.69-2.54,1.48-3,1.48A5.6,5.6,0,0,1,102,64.23V59a17.47,17.47,0,0,1,34-5.72h0v.43C137.28,61.05,136,67.38,132,72.45Z"/><path class="cls-1" d="M24.71,29.58A14.79,14.79,0,1,0,9.93,14.78v0a14.69,14.69,0,0,0,14.6,14.78Zm0-24.29a9.51,9.51,0,1,1-9.5,9.52h0A9.6,9.6,0,0,1,24.71,5.29Z"/><path class="cls-1" d="M60.61,50.91a9.46,9.46,0,0,0-.42-7.18c-1.69-3.38-4.22-4-5.7-4-3.38-.21-6.34,2.32-7.82,4.64a11.1,11.1,0,0,1-3.16,3.17A23.14,23.14,0,0,0,22.81,34,22.86,22.86,0,0,0,0,56.82V82a2.57,2.57,0,0,0,2.53,2.53A2.57,2.57,0,0,0,5.07,82V63.58A39.64,39.64,0,0,0,18,78.79c1.06.63,2.11,1.27,3.38,1.9a27.12,27.12,0,0,0,12,2.75,34.85,34.85,0,0,0,9.08-1.27h.21a1.9,1.9,0,0,0,1.48-.64A47.76,47.76,0,0,0,65.48,67.81C68.65,64.43,70.34,57,67.8,53A7.81,7.81,0,0,0,60.61,50.91ZM45.41,76.23a11.33,11.33,0,0,1-2.54.85l-2.53.63c-6.76,1.48-13.52.85-19.22-2.74-7.6-5.28-15-16.9-13.31-25.35,0-.42.22-.84.22-1.26v-.85a17.5,17.5,0,0,1,30.83,3.17A16,16,0,0,1,40.13,56v4.86c-3.59-1.9-6.34-7.82-7-10.14a2.61,2.61,0,0,0-3.24-1.74l-.14.05a2.42,2.42,0,0,0-1.69,2.11v1.27c.42,1.27,4.22,12,12,13.94.42,0,.84.21,1.26.21H42.8a7.87,7.87,0,0,0,2.54-.42,10.45,10.45,0,0,0,3.38-1.9c.21-.22.42-.22.42-.43a29.29,29.29,0,0,1,2.53-1.9,19.11,19.11,0,0,0,3.38-2.32c.21-.21.64-.42.85-.63,1.69-1.27,3.17-2.54,4.64-3,2.12-.63,2.54,0,2.75.21,1.06,1.69.21,6.55-1.69,8.45A41,41,0,0,1,45.41,76.23ZM54.28,45c.42,0,.84.63,1.27,1.26.63,1.27.42,2.75-.64,5.28a17.88,17.88,0,0,1-3.17,4.71,12.9,12.9,0,0,1-2.11,1.48c-1.27.84-2.32,1.48-3.17,2.11-.21.21-.42.21-.84.21V56.86a24.45,24.45,0,0,0-.42-4,21.67,21.67,0,0,0,5.91-5.7A4.66,4.66,0,0,1,54.28,45Z"/></g></g></g></g></svg>