<svg xmlns="http://www.w3.org/2000/svg" viewBox="0 0 728 728"><defs><style>.cls-1{fill:#6c757d;}</style></defs><title>Asset 13</title><g id="Layer_2" data-name="Layer 2"><g id="Layer_1-2" data-name="Layer 1"><path class="cls-1" d="M364,184a179.86,179.86,0,1,0,153.18,85.37l-16.77,16.77a157.22,157.22,0,1,1-41.71-47.38l16.4-16.41A178.66,178.66,0,0,0,364,184Z"/><path class="cls-1" d="M364,58.5A305.5,305.5,0,0,0,148,580a305.52,305.52,0,0,0,459.35-400.8l-64.47,64.47a215.7,215.7,0,1,1-42.5-46.59l63.85-63.86A303.24,303.24,0,0,0,364,58.5Z"/><path class="cls-1" d="M649,137.54l-16.37,16.37A341,341,0,0,1,122.88,605.12a341,341,0,0,1,466.48-497l16.29-16.3A364,364,0,0,0,0,364,364,364,0,0,0,621.39,621.39,364.06,364.06,0,0,0,649,137.54Z"/><polygon class="cls-1" points="674.12 113.76 692.37 45.63 624.25 63.88 641.05 80.69 434.69 287.05 417.88 270.25 399.63 338.37 467.76 320.12 450.95 303.31 657.32 96.95 674.12 113.76"/></g></g></svg>