<svg xmlns="http://www.w3.org/2000/svg" viewBox="0 0 834.53 864"><defs><style>.cls-1{fill:#6c757d;}</style></defs><title>Asset 4</title><g id="Layer_2" data-name="Layer 2"><g id="Layer_1-2" data-name="Layer 1"><path class="cls-1" d="M528.4,784C402.32,784,293.56,698.31,245,575.6H553.6v-80H223.08a400.67,400.67,0,0,1,0-127.2H553.6v-80H245C293.56,165.69,402.32,80,528.4,80c93.9,0,181.77,47.52,241.07,130.38l65.06-46.56C799,114.11,753.08,73,701.89,44.85,647.71,15.09,589.34,0,528.4,0A356.29,356.29,0,0,0,374.91,34.65c-46.58,22-88.33,53.5-124.09,93.5-35.48,39.69-63.3,85.82-82.7,137.12q-4.34,11.46-8,23.13H0v80H142.18a485.94,485.94,0,0,0,0,127.2H0v80H160.08q3.72,11.65,8,23.13c19.4,51.3,47.22,97.43,82.7,137.12,35.76,40,77.51,71.46,124.09,93.5A356.29,356.29,0,0,0,528.4,864c60.94,0,119.31-15.09,173.49-44.85,51.19-28.12,97.06-69.26,132.64-119l-65.06-46.56C710.17,736.48,622.3,784,528.4,784Z"/></g></g></svg>