<svg xmlns="http://www.w3.org/2000/svg" viewBox="0 0 100.41 21"><defs><style>.cls-1{fill:#fff;}</style></defs><title>Asset 1</title><g id="Layer_2" data-name="Layer 2"><g id="Layer_1-2" data-name="Layer 1"><path class="cls-1" d="M43.66,9.55a4.66,4.66,0,0,1-1,3.27,3.93,3.93,0,0,1-3,1.14,3.91,3.91,0,0,1-3-1.14A4.69,4.69,0,0,1,35.5,9.54a4.63,4.63,0,0,1,1.06-3.27,4,4,0,0,1,3-1.13,3.91,3.91,0,0,1,3,1.14A4.7,4.7,0,0,1,43.66,9.55Zm-6.25,0A3.58,3.58,0,0,0,38,11.71a1.91,1.91,0,0,0,1.63.73c1.45,0,2.18-1,2.18-2.89S41,6.66,39.59,6.66A1.93,1.93,0,0,0,38,7.38,3.56,3.56,0,0,0,37.41,9.55Z"/><path class="cls-1" d="M48.89,14a2.17,2.17,0,0,1-1.81-.84H47c.06.55.09.87.09,1v2.66H45.3V7.29h1.45l.25.85h.08a2.09,2.09,0,0,1,1.86-1,2.14,2.14,0,0,1,1.82.9,4.21,4.21,0,0,1,.65,2.49,5,5,0,0,1-.3,1.82,2.58,2.58,0,0,1-.88,1.18A2.24,2.24,0,0,1,48.89,14ZM48.37,8.6a1.13,1.13,0,0,0-1,.41,2.37,2.37,0,0,0-.32,1.34v.2a2.76,2.76,0,0,0,.32,1.51,1.12,1.12,0,0,0,1,.45q1.2,0,1.2-2a2.83,2.83,0,0,0-.3-1.45A1,1,0,0,0,48.37,8.6Z"/><path class="cls-1" d="M55.85,14a3.4,3.4,0,0,1-2.47-.87,3.32,3.32,0,0,1-.89-2.47,3.68,3.68,0,0,1,.82-2.55,2.94,2.94,0,0,1,2.28-.9A2.85,2.85,0,0,1,57.75,8a3,3,0,0,1,.78,2.19V11H54.3a1.72,1.72,0,0,0,.45,1.19,1.58,1.58,0,0,0,1.19.43,5.13,5.13,0,0,0,1.12-.12,5.62,5.62,0,0,0,1.1-.39V13.5a4.4,4.4,0,0,1-1,.35A6.89,6.89,0,0,1,55.85,14ZM55.6,8.44a1.14,1.14,0,0,0-.89.36,1.69,1.69,0,0,0-.37,1h2.51a1.47,1.47,0,0,0-.35-1A1.16,1.16,0,0,0,55.6,8.44Z"/><path class="cls-1" d="M66,13.84H64.24V10A1.8,1.8,0,0,0,64,9a.92.92,0,0,0-.81-.36,1.2,1.2,0,0,0-1.08.5,3.16,3.16,0,0,0-.33,1.66v3.08H60V7.29h1.36l.24.84h.1a2,2,0,0,1,.83-.72,2.81,2.81,0,0,1,1.19-.24,2.28,2.28,0,0,1,1.73.62A2.46,2.46,0,0,1,66,9.57Z"/><path class="cls-1" d="M71.12,5.28h2.67a5.13,5.13,0,0,1,2.65.52,1.81,1.81,0,0,1,.82,1.65,2.09,2.09,0,0,1-.36,1.26,1.48,1.48,0,0,1-1,.59v.06a1.9,1.9,0,0,1,1.18.68,2.2,2.2,0,0,1,.36,1.32,2.21,2.21,0,0,1-.85,1.83,3.65,3.65,0,0,1-2.3.65H71.12Zm1.82,3.39h1a1.93,1.93,0,0,0,1.07-.23.85.85,0,0,0,.34-.75A.75.75,0,0,0,75,7a2.33,2.33,0,0,0-1.13-.21h-1Zm0,1.44v2.23h1.18a1.78,1.78,0,0,0,1.11-.28,1.06,1.06,0,0,0,.36-.88c0-.71-.51-1.07-1.52-1.07Z"/><path class="cls-1" d="M85,10.56a3.53,3.53,0,0,1-.84,2.5,3.08,3.08,0,0,1-2.35.9,3.36,3.36,0,0,1-1.67-.41A2.78,2.78,0,0,1,79,12.36a4,4,0,0,1-.38-1.8,3.52,3.52,0,0,1,.84-2.5,3.07,3.07,0,0,1,2.35-.89,3.32,3.32,0,0,1,1.66.41,2.7,2.7,0,0,1,1.11,1.18A3.92,3.92,0,0,1,85,10.56Zm-4.53,0A2.76,2.76,0,0,0,80.79,12a1.14,1.14,0,0,0,1,.5,1.13,1.13,0,0,0,1-.5,2.77,2.77,0,0,0,.31-1.47,2.61,2.61,0,0,0-.32-1.46,1.33,1.33,0,0,0-2.06,0A2.61,2.61,0,0,0,80.47,10.56Z"/><path class="cls-1" d="M92.43,10.56a3.49,3.49,0,0,1-.85,2.5,3,3,0,0,1-2.34.9,3.36,3.36,0,0,1-1.67-.41,2.78,2.78,0,0,1-1.11-1.19,4,4,0,0,1-.38-1.8,3.56,3.56,0,0,1,.83-2.5,3.11,3.11,0,0,1,2.36-.89,3.32,3.32,0,0,1,1.66.41A2.75,2.75,0,0,1,92,8.76,3.92,3.92,0,0,1,92.43,10.56Zm-4.53,0A2.76,2.76,0,0,0,88.22,12a1.14,1.14,0,0,0,1,.5,1.13,1.13,0,0,0,1-.5,2.77,2.77,0,0,0,.31-1.47,2.7,2.7,0,0,0-.32-1.46,1.33,1.33,0,0,0-2.06,0A2.61,2.61,0,0,0,87.9,10.56Z"/><path class="cls-1" d="M95.62,10.28l.78-1,1.84-2h2l-2.6,2.85,2.76,3.7H98.35l-1.89-2.65-.77.62v2H93.91V4.73h1.78V8.79l-.09,1.49Z"/><path class="cls-1" d="M27.81,1.91l-1.29-.67a11.33,11.33,0,0,0-10.3,0l-1.76.91L12.7,1.24a11.33,11.33,0,0,0-10.3,0l-1.29.67A2,2,0,0,0,0,3.73V18a2.05,2.05,0,0,0,3,1.83,10,10,0,0,1,9.12,0l2.05,1.06h.06l0,0h.38l0,0h.06l2-1.06a10,10,0,0,1,9.11,0,2.05,2.05,0,0,0,3-1.83V3.73A2,2,0,0,0,27.81,1.91ZM7.55,17.48A11.3,11.3,0,0,0,2.4,18.72a.75.75,0,0,1-.74,0A.73.73,0,0,1,1.29,18V3.73a.78.78,0,0,1,.41-.68L3,2.39a10.07,10.07,0,0,1,9.12,0l1.71.89v16l-1.12-.57A11.24,11.24,0,0,0,7.55,17.48ZM27.63,18a.73.73,0,0,1-.37.65.75.75,0,0,1-.74,0,11.33,11.33,0,0,0-10.3,0l-1.11.57v-16l1.7-.88a10.05,10.05,0,0,1,9.11,0l1.3.67a.76.76,0,0,1,.41.68Z"/></g></g></svg>