<svg xmlns="http://www.w3.org/2000/svg" viewBox="0 0 469.96 283.12"><defs><style>.cls-1{fill:#6c757d;}</style></defs><title>Asset 6</title><g id="Layer_2" data-name="Layer 2"><g id="Layer_1-2" data-name="Layer 1"><path class="cls-1" d="M158.61,92a9.68,9.68,0,0,1,7.92-1.32q46.22,11.61,69.71,39.86-2.38-55.69-33-82.64Q152.81,3.79,23.43,32q31.16,129.1,92.94,155,47.52,20.31,117-20.86Q216.44,125,161.51,111.24a10.61,10.61,0,0,1-7.66-12.94A9.75,9.75,0,0,1,158.61,92ZM1.79,18.57a9.67,9.67,0,0,1,6.33-4.76Q156.25-21,217.22,32q48.35,42.24,38.83,137.3l-.27,2.9V272.56a10,10,0,0,1-2.91,7.39,10.43,10.43,0,0,1-7.65,3.17,10.16,10.16,0,0,1-7.4-3.17,9.59,9.59,0,0,1-3.16-7.39v-82.9q-72.87,39.6-126.47,16.89Q33.48,175.14.2,26.22A9.74,9.74,0,0,1,1.79,18.57ZM469.63,85.89q-29,108.78-86.86,132.81-39.34,16.37-90-7.13v61a10,10,0,0,1-2.91,7.39,10.45,10.45,0,0,1-7.66,3.17,10.14,10.14,0,0,1-7.39-3.17,9.6,9.6,0,0,1-3.17-7.39V188.34q-3.17-64.43,33.28-96.11,46.71-40.4,156.55-19.54a10.37,10.37,0,0,1,6.87,4.75A11.2,11.2,0,0,1,469.63,85.89ZM360.86,144.77a9.62,9.62,0,0,1-6.34,5q-39.87,11.88-59.94,38.81,46.21,24.56,80.27,10.56Q420,180.41,446.14,91.44q-90.3-15-127.53,16.9-20.06,16.89-24.82,50.16,21.93-19.27,54.66-29a11.19,11.19,0,0,1,7.93.79,10.52,10.52,0,0,1,5.28,6.34A10.32,10.32,0,0,1,360.86,144.77Z"/></g></g></svg>