<svg xmlns="http://www.w3.org/2000/svg" viewBox="0 0 142.56 153.33"><defs><style>.cls-1{fill:#6c757d;}</style></defs><title>Asset 8</title><g id="Layer_2" data-name="Layer 2"><g id="Layer_1-2" data-name="Layer 1"><path class="cls-1" d="M102.22,80.26A14.79,14.79,0,1,0,117,65.47,14.69,14.69,0,0,0,102.22,80.26ZM117,89.76a9.51,9.51,0,1,1,9.51-9.5A9.61,9.61,0,0,1,117,89.76Z"/><path class="cls-1" d="M119.75,99.9a22.84,22.84,0,0,0-22.6,20.27c-1.05-2.11-2.11-4.22-2.74-5.7-.43-1.06-.85-2.11-1.27-3A10.69,10.69,0,0,0,83.42,105l-4.85,1.26a7.89,7.89,0,0,0-2.75,2.54c-2.11,3.38-1.27,7.39-1.06,8.23,1.91,12.89,11.2,36.33,31.9,36.33h1.68a52.18,52.18,0,0,0,16.06-4.65,35.65,35.65,0,0,0,12-9.29c.43-.42.64-1.06,1.06-1.48V150.8a2.54,2.54,0,0,0,5.07,0V122.71A23,23,0,0,0,119.75,99.9ZM132,136.22c-5.49,7-14.57,9.93-20.06,11.2a37.67,37.67,0,0,1-4.44.84,14.88,14.88,0,0,1-6.12-.63,30.36,30.36,0,0,1-4.65-1.69c-13.52-7.39-17.11-29.36-17.11-29.57v-.21a6.89,6.89,0,0,1,.42-4.44c.22-.42.64-.84,1.9-1.26a5.54,5.54,0,0,1,6.34,3.16v.22a17.09,17.09,0,0,1,1.27,2.74c2.11,5.07,4.43,10.14,7.39,13.52a14.37,14.37,0,0,0,2.53,2.53,15.18,15.18,0,0,0,2.54,1.48c.42.21.84.21,1.27.42,1.9.43,4.64,0,7.6-3.16,4.22-4.65,5.7-12.89,5.7-13.31v-.42a2.55,2.55,0,0,0-5.07-.42c-.42,1.9-1.69,7.81-4.43,10.55-1.69,1.69-2.54,1.48-3,1.48A5.63,5.63,0,0,1,102,128v-5.28A17.47,17.47,0,0,1,136,117h0v.43C137.28,124.82,136,131.15,132,136.22Z"/><path class="cls-1" d="M24.71,93.35A14.79,14.79,0,1,0,9.93,78.57,14.69,14.69,0,0,0,24.71,93.35Zm0-24.29a9.51,9.51,0,1,1-9.5,9.51A9.6,9.6,0,0,1,24.71,69.06Z"/><path class="cls-1" d="M60.61,114.68a9.49,9.49,0,0,0-.42-7.18c-1.69-3.38-4.22-4-5.7-4-3.38-.21-6.34,2.32-7.82,4.64a11.22,11.22,0,0,1-3.16,3.17,23.14,23.14,0,0,0-20.7-13.52A22.85,22.85,0,0,0,0,120.59v25.14a2.56,2.56,0,0,0,2.53,2.53,2.57,2.57,0,0,0,2.54-2.53V127.35A39.7,39.7,0,0,0,18,142.56c1.06.63,2.11,1.27,3.38,1.9a27.12,27.12,0,0,0,12,2.75,35,35,0,0,0,9.08-1.27h.21a1.89,1.89,0,0,0,1.48-.64,47.77,47.77,0,0,0,21.33-13.72c3.17-3.38,4.86-10.77,2.32-14.79A7.81,7.81,0,0,0,60.61,114.68ZM45.41,140a11.5,11.5,0,0,1-2.54.85l-2.53.63c-6.76,1.48-13.52.85-19.22-2.74-7.6-5.28-15-16.9-13.31-25.35,0-.42.22-.84.22-1.26v-.85a17.51,17.51,0,0,1,30.83,3.17,15.81,15.81,0,0,1,1.27,5.28v4.86c-3.59-1.9-6.34-7.82-7-10.14a2.6,2.6,0,0,0-3.38-1.69,2.42,2.42,0,0,0-1.69,2.11v1.27c.42,1.27,4.22,12,12,13.94.42,0,.84.21,1.26.21h1.48a8,8,0,0,0,2.54-.42,10.39,10.39,0,0,0,3.38-1.9c.21-.22.42-.22.42-.43a28.23,28.23,0,0,1,2.53-1.9,18.88,18.88,0,0,0,3.38-2.32c.21-.21.64-.42.85-.63,1.69-1.27,3.17-2.54,4.64-3,2.12-.63,2.54,0,2.75.21,1.06,1.69.21,6.55-1.69,8.45A41,41,0,0,1,45.41,140Zm8.87-31.25c.42,0,.84.63,1.27,1.26.63,1.27.42,2.75-.64,5.28A17.94,17.94,0,0,1,51.74,120a12.48,12.48,0,0,1-2.11,1.48c-1.27.84-2.32,1.48-3.17,2.11-.21.21-.42.21-.84.21v-3.17a23.61,23.61,0,0,0-.42-4,21.62,21.62,0,0,0,5.91-5.7A4.67,4.67,0,0,1,54.28,108.77Z"/><path class="cls-1" d="M78.78,54.91h15A19.43,19.43,0,0,0,113.2,35.27V19.43A19.38,19.38,0,0,0,93.77,0H44.14A19.38,19.38,0,0,0,24.71,19.43V35.27A19.56,19.56,0,0,0,44.14,54.91H55.55c-.43,4-1.27,10.77-1.69,14.36a2.55,2.55,0,0,0,.63,2.12,2.3,2.3,0,0,0,1.9.84h0A26.6,26.6,0,0,0,78.78,54.91ZM59.56,66.53C60.4,60.83,61,53,61,52.59a3.5,3.5,0,0,0-.64-2.11,2.27,2.27,0,0,0-1.9-.85H44.14A14.2,14.2,0,0,1,30,35.27V19.43A14.34,14.34,0,0,1,44.14,5.07H93.77a14.37,14.37,0,0,1,14.36,14.36V35.27A14.37,14.37,0,0,1,93.77,49.63H76.88a3,3,0,0,0-2.54,1.9C71,61.88,63.78,65.26,59.56,66.53Z"/><path class="cls-1" d="M96.31,35.69a2.57,2.57,0,0,0-2.54-2.53h-49a2.57,2.57,0,0,0-2.53,2.53,2.73,2.73,0,0,0,2.53,2.54H93.56A2.63,2.63,0,0,0,96.31,35.69Z"/><path class="cls-1" d="M44.77,23.44H79.2a2.54,2.54,0,0,0,0-5.07H44.77a2.57,2.57,0,0,0-2.53,2.54A2.43,2.43,0,0,0,44.77,23.44Z"/></g></g></svg>